<svg version="1.1" id="Layer_1" xmlns="http://www.w3.org/2000/svg" x="0" y="0" width="125" height="100" viewBox="0 0 125 100" xml:space="preserve"><style>.orange_x002D_fill{fill:#e48027}</style><switch><g><path class="orange_x002D_fill" d="M38.79 28.79c5.62 7 11.24 13.39 13.39 21.84 1.57 6.16-3.93 13.59-10.55 15-7.1 1.53-14.67-3.29-15.95-10.36-.47-1.95-.47-3.99 0-5.94 2.61-7.74 7.67-13.92 13.11-20.54zM27.35 52.41c-.28 4.17 1.9 7.53 5 10 .84.66 2.81 1.43 3.64.5.83-.93.6-1.87-1.07-3.26-2.88-2.23-4.08-6.05-3.01-9.56.49-1.57.9-3.16 1.24-4.77.1-.89.72-1.79-.74-2.79-1.17-.47-1.97 0-2.66 1.43a30.026 30.026 0 0 0-2.4 8.45z"/><path class="orange_x002D_fill" d="M46.08 100H6.38a5.586 5.586 0 0 1-3.29-1.19c-.25-.2-.49-.4-.72-.61C.22 96.22-.55 93.12.4 90.33c.49-1.4 1.38-2.63 2.54-3.53l1.78-1.43.63-28.09c-.89-1.43-1.73-2.86-2.5-4.29a8.67 8.67 0 0 1 .27-8.71l1.08-1.84V14.09l-1.7-4.2c-.9-2.17-.66-4.66.65-6.61C4.5 1.23 6.76 0 9.17 0h57.8v2H9.2a5.25 5.25 0 0 0-4.44 2.37c-.96 1.4-1.14 3.2-.48 4.76l1.91 4.56V43l-1.4 2.27a6.675 6.675 0 0 0-.2 6.77c.8 1.43 1.66 3 2.57 4.44l.15.26-.67 29.6-2.43 2c-.91.67-1.6 1.59-2 2.66-.68 2.02-.13 4.26 1.4 5.71l.62.53c.63.45 1.37.68 2.14.69h39.7V100zM70.62 69.61h-1.97l.18-12.86.15-.23c.39-.64 1.4-2.36 2.6-4.49a6.698 6.698 0 0 0-.21-6.77L69.98 43V13.67l1.97-4.64c.63-1.54.44-3.3-.49-4.67A5.306 5.306 0 0 0 66.99 2V0a7.189 7.189 0 0 1 6.07 3.27 6.937 6.937 0 0 1 .69 6.53l-1.8 4.29v28.36l1.11 1.84a8.723 8.723 0 0 1 .27 8.79c-1.04 1.94-2.02 3.56-2.51 4.29l-.2 12.24zM96.1 68.19H74.92c-.65 0-1.26-.3-1.67-.81-.37-.47-.51-1.07-.39-1.66l2.28-10.44c.36-1.53 1.71-2.6 3.26-2.59h14.33c1.49-.02 2.79 1.02 3.13 2.49l2.33 10.54c.13.61-.02 1.25-.41 1.73-.42.49-1.04.77-1.68.74zM78.39 54.57c-.65-.02-1.24.42-1.4 1.06l-2.28 10.43c0 .11.08.16.18.16h21.2c.06 0 .12-.02.15-.07L94 55.53c-.13-.59-.64-1-1.24-1l-14.37.04zM109.58 84.07H88.31c-.64 0-1.25-.29-1.66-.8-.39-.49-.54-1.13-.39-1.74l2.25-10.43c.39-1.51 1.75-2.56 3.29-2.53h14.36c1.49-.02 2.79 1.02 3.13 2.49l2.3 10.53c.14.61 0 1.26-.39 1.74-.41.47-1 .74-1.62.74zm-17.7-13.6c-.64-.03-1.21.38-1.4 1L88.14 82c0 .1 0 .14.17.14h21.27c.05.03.11.03.15 0l-2.33-10.71c-.13-.59-.65-1.01-1.25-1l-14.27.04z"/><path class="orange_x002D_fill" d="M67.58 100H46.36c-.64 0-1.25-.29-1.66-.8-.39-.49-.54-1.13-.39-1.74L46.59 87c.37-1.52 1.72-2.59 3.26-2.59h14.3c1.48 0 2.78 1.02 3.13 2.49l2.26 10.56a2.086 2.086 0 0 1-1.96 2.54zM49.87 86.4c-.64-.03-1.21.38-1.4 1l-2.39 10.49c.01.09.09.16.18.16h21.31c.05.02.1.02.15 0L65.4 87.41c-.15-.57-.67-.96-1.25-.94l-14.28-.07zM81.25 84.19H60.03c-.64 0-1.25-.29-1.66-.8-.39-.49-.54-1.13-.41-1.74l2.29-10.43c.34-1.55 1.7-2.65 3.26-2.64h14.36c1.49 0 2.78 1.03 3.13 2.5l2.3 10.53a2 2 0 0 1-.42 1.79c-.39.49-1 .78-1.63.79zm-17.71-13.6c-.64-.03-1.21.38-1.4 1l-2.3 10.49c0 .1 0 .14.17.14h21.21c.05.03.11.03.15 0L79.1 71.6c-.14-.59-.66-1-1.25-1l-14.31-.01zM94.92 100H73.7c-.64 0-1.25-.29-1.66-.8-.39-.49-.53-1.13-.39-1.74L73.94 87c.37-1.53 1.71-2.6 3.26-2.59h14.34c1.48-.01 2.78 1.02 3.13 2.49l2.26 10.54c.13.61-.02 1.25-.41 1.74-.38.51-.97.81-1.6.82zM77.27 86.4c-.64-.03-1.21.38-1.4 1l-2.39 10.49c.01.09.09.16.18.16h21.26c.06.03.13.03.2 0L92.8 87.39c-.16-.57-.67-.95-1.25-.94l-14.28-.05zM122.9 100h-21.23c-.64 0-1.25-.29-1.66-.8-.39-.49-.54-1.13-.39-1.74L101.9 87c.37-1.52 1.72-2.59 3.26-2.59h14.36c1.49 0 2.79 1.04 3.13 2.51l2.3 10.53c.13.61-.02 1.25-.39 1.74-.41.52-1.01.81-1.66.81zm-17.7-13.6c-.64-.03-1.21.38-1.4 1l-2.29 10.43c0 .11.08.16.18.16h21.24c.05.03.12.03.17 0l-2.28-10.69c-.14-.57-.66-.97-1.24-.96l-14.38.06z"/><g><path class="orange_x002D_fill" d="M38.79 28.79c5.62 7 11.24 13.39 13.39 21.84 1.57 6.16-3.93 13.59-10.55 15-7.1 1.53-14.67-3.29-15.95-10.36-.47-1.95-.47-3.99 0-5.94 2.61-7.74 7.67-13.92 13.11-20.54zM27.35 52.41c-.28 4.17 1.9 7.53 5 10 .84.66 2.81 1.43 3.64.5.83-.93.6-1.87-1.07-3.26-2.88-2.23-4.08-6.05-3.01-9.56.49-1.57.9-3.16 1.24-4.77.1-.89.72-1.79-.74-2.79-1.17-.47-1.97 0-2.66 1.43a30.026 30.026 0 0 0-2.4 8.45z"/><path class="orange_x002D_fill" d="M46.08 100H6.38a5.586 5.586 0 0 1-3.29-1.19c-.25-.2-.49-.4-.72-.61C.22 96.22-.55 93.12.4 90.33c.49-1.4 1.38-2.63 2.54-3.53l1.78-1.43.63-28.09c-.89-1.43-1.73-2.86-2.5-4.29a8.67 8.67 0 0 1 .27-8.71l1.08-1.84V14.09l-1.7-4.2c-.9-2.17-.66-4.66.65-6.61C4.5 1.23 6.76 0 9.17 0h57.8v2H9.2a5.25 5.25 0 0 0-4.44 2.37c-.96 1.4-1.14 3.2-.48 4.76l1.91 4.56V43l-1.4 2.27a6.675 6.675 0 0 0-.2 6.77c.8 1.43 1.66 3 2.57 4.44l.15.26-.67 29.6-2.43 2c-.91.67-1.6 1.59-2 2.66-.68 2.02-.13 4.26 1.4 5.71l.62.53c.63.45 1.37.68 2.14.69h39.7V100zM70.62 69.61h-1.97l.18-12.86.15-.23c.39-.64 1.4-2.36 2.6-4.49a6.698 6.698 0 0 0-.21-6.77L69.98 43V13.67l1.97-4.64c.63-1.54.44-3.3-.49-4.67A5.306 5.306 0 0 0 66.99 2V0a7.189 7.189 0 0 1 6.07 3.27 6.937 6.937 0 0 1 .69 6.53l-1.8 4.29v28.36l1.11 1.84a8.723 8.723 0 0 1 .27 8.79c-1.04 1.94-2.02 3.56-2.51 4.29l-.2 12.24zM96.1 68.19H74.92c-.65 0-1.26-.3-1.67-.81-.37-.47-.51-1.07-.39-1.66l2.28-10.44c.36-1.53 1.71-2.6 3.26-2.59h14.33c1.49-.02 2.79 1.02 3.13 2.49l2.33 10.54c.13.61-.02 1.25-.41 1.73-.42.49-1.04.77-1.68.74zM78.39 54.57c-.65-.02-1.24.42-1.4 1.06l-2.28 10.43c0 .11.08.16.18.16h21.2c.06 0 .12-.02.15-.07L94 55.53c-.13-.59-.64-1-1.24-1l-14.37.04zM109.58 84.07H88.31c-.64 0-1.25-.29-1.66-.8-.39-.49-.54-1.13-.39-1.74l2.25-10.43c.39-1.51 1.75-2.56 3.29-2.53h14.36c1.49-.02 2.79 1.02 3.13 2.49l2.3 10.53c.14.61 0 1.26-.39 1.74-.41.47-1 .74-1.62.74zm-17.7-13.6c-.64-.03-1.21.38-1.4 1L88.14 82c0 .1 0 .14.17.14h21.27c.05.03.11.03.15 0l-2.33-10.71c-.13-.59-.65-1.01-1.25-1l-14.27.04z"/><path class="orange_x002D_fill" d="M67.58 100H46.36c-.64 0-1.25-.29-1.66-.8-.39-.49-.54-1.13-.39-1.74L46.59 87c.37-1.52 1.72-2.59 3.26-2.59h14.3c1.48 0 2.78 1.02 3.13 2.49l2.26 10.56a2.086 2.086 0 0 1-1.96 2.54zM49.87 86.4c-.64-.03-1.21.38-1.4 1l-2.39 10.49c.01.09.09.16.18.16h21.31c.05.02.1.02.15 0L65.4 87.41c-.15-.57-.67-.96-1.25-.94l-14.28-.07zM81.25 84.19H60.03c-.64 0-1.25-.29-1.66-.8-.39-.49-.54-1.13-.41-1.74l2.29-10.43c.34-1.55 1.7-2.65 3.26-2.64h14.36c1.49 0 2.78 1.03 3.13 2.5l2.3 10.53a2 2 0 0 1-.42 1.79c-.39.49-1 .78-1.63.79zm-17.71-13.6c-.64-.03-1.21.38-1.4 1l-2.3 10.49c0 .1 0 .14.17.14h21.21c.05.03.11.03.15 0L79.1 71.6c-.14-.59-.66-1-1.25-1l-14.31-.01zM94.92 100H73.7c-.64 0-1.25-.29-1.66-.8-.39-.49-.53-1.13-.39-1.74L73.94 87c.37-1.53 1.71-2.6 3.26-2.59h14.34c1.48-.01 2.78 1.02 3.13 2.49l2.26 10.54c.13.61-.02 1.25-.41 1.74-.38.51-.97.81-1.6.82zM77.27 86.4c-.64-.03-1.21.38-1.4 1l-2.39 10.49c.01.09.09.16.18.16h21.26c.06.03.13.03.2 0L92.8 87.39c-.16-.57-.67-.95-1.25-.94l-14.28-.05zM122.9 100h-21.23c-.64 0-1.25-.29-1.66-.8-.39-.49-.54-1.13-.39-1.74L101.9 87c.37-1.52 1.72-2.59 3.26-2.59h14.36c1.49 0 2.79 1.04 3.13 2.51l2.3 10.53c.13.61-.02 1.25-.39 1.74-.41.52-1.01.81-1.66.81zm-17.7-13.6c-.64-.03-1.21.38-1.4 1l-2.29 10.43c0 .11.08.16.18.16h21.24c.05.03.12.03.17 0l-2.28-10.69c-.14-.57-.66-.97-1.24-.96l-14.38.06z"/></g></g></switch></svg>