<svg version="1.1" id="Layer_1" xmlns="http://www.w3.org/2000/svg" x="0" y="0" width="88" height="70" viewBox="0 0 88 70" xml:space="preserve"><style>.orange_x002D_fill{fill:#e48027}</style><switch><g><path class="orange_x002D_fill" d="M27.31 20.15c3.96 4.9 7.91 9.37 9.43 15.29 1.11 4.31-2.77 9.51-7.43 10.5-4.99 1.07-10.33-2.3-11.23-7.25a8.864 8.864 0 0 1 0-4.16c1.84-5.42 5.4-9.74 9.23-14.38zm-8.05 16.54c-.2 2.92 1.34 5.27 3.52 7 .59.46 1.98 1 2.56.35.58-.65.43-1.31-.75-2.28-2.03-1.56-2.87-4.23-2.12-6.69.35-1.1.63-2.21.87-3.34.07-.62.5-1.25-.52-1.95-.82-.33-1.38 0-1.87 1-.86 1.87-1.43 3.86-1.69 5.91z"/><path class="orange_x002D_fill" d="M32.44 70H4.49c-.84-.02-1.65-.31-2.31-.83-.18-.14-.35-.28-.5-.43A5.182 5.182 0 0 1 .3 63.23c.35-.98.97-1.84 1.79-2.47l1.26-1 .43-19.66c-.62-1-1.22-2-1.76-3A6.053 6.053 0 0 1 2.2 31l.76-1.29V9.86l-1.2-2.94c-.63-1.52-.45-3.26.46-4.63A5.097 5.097 0 0 1 6.46 0h40.69v1.4H6.48c-1.25-.01-2.43.61-3.13 1.66-.67.98-.8 2.24-.34 3.33l1.35 3.19V30.1l-.99 1.59a4.655 4.655 0 0 0-.14 4.74c.56 1 1.17 2.1 1.81 3.11l.11.18-.47 20.72-1.71 1.4a3.98 3.98 0 0 0-1.4 1.86c-.48 1.41-.09 2.98.99 4l.44.37c.44.31.97.48 1.5.48h27.95V70zM49.72 48.73h-1.38l.13-9 .11-.16c.28-.45.99-1.65 1.83-3.14.82-1.49.76-3.31-.15-4.74l-.99-1.59V9.57l1.38-3.25c.44-1.08.31-2.31-.35-3.27a3.712 3.712 0 0 0-3.14-1.65V0c1.72-.01 3.32.85 4.27 2.29.92 1.34 1.11 3.06.48 4.57l-1.27 3v19.85l.79 1.29a6.051 6.051 0 0 1 .19 6.15c-.73 1.36-1.42 2.49-1.77 3l-.13 8.58zM67.65 47.73h-14.9c-.46 0-.89-.21-1.18-.57-.26-.33-.36-.75-.28-1.16l1.6-7.31c.26-1.07 1.21-1.82 2.29-1.81h10.09c1.05-.01 1.96.71 2.21 1.74L69.13 46c.09.43-.01.87-.29 1.21-.3.35-.73.54-1.19.52zM55.19 38.2a.987.987 0 0 0-.99.74l-1.6 7.3c0 .08.06.11.13.11h14.93c.04 0 .08-.02.11-.05l-1.58-7.43a.888.888 0 0 0-.87-.7l-10.13.03zM77.15 58.85H62.17c-.45 0-.88-.2-1.17-.56a1.41 1.41 0 0 1-.28-1.22l1.58-7.3A2.344 2.344 0 0 1 64.61 48h10.11c1.05-.01 1.96.71 2.21 1.74l1.62 7.37c.1.43 0 .88-.28 1.22-.27.33-.69.52-1.12.52zm-12.47-9.52a1 1 0 0 0-.99.7l-1.64 7.37c0 .07 0 .1.12.1h14.97c.03.02.08.02.11 0L75.61 50a.89.89 0 0 0-.88-.7l-10.05.03z"/><path class="orange_x002D_fill" d="M47.57 70H32.64c-.45 0-.88-.2-1.17-.56a1.41 1.41 0 0 1-.28-1.22l1.6-7.32a2.36 2.36 0 0 1 2.29-1.81h10.07c1.04 0 1.95.72 2.21 1.74l1.59 7.39c.1.43-.01.88-.28 1.22-.26.34-.66.54-1.1.56zm-12.46-9.52a1 1 0 0 0-.99.7l-1.68 7.34c.01.07.06.12.13.11h15c.04.01.07.01.11 0l-1.64-7.44a.89.89 0 0 0-.88-.66l-10.05-.05zM57.2 58.93H42.26c-.45 0-.88-.21-1.17-.56-.27-.34-.38-.79-.29-1.22l1.61-7.3A2.36 2.36 0 0 1 44.7 48h10.11c1.05 0 1.96.72 2.21 1.75l1.62 7.37c.11.44 0 .91-.3 1.25-.27.35-.69.56-1.14.56zm-12.47-9.52a1 1 0 0 0-.99.7l-1.62 7.34c0 .07 0 .1.12.1h14.94c.03.02.08.02.11 0l-1.6-7.43c-.1-.41-.46-.7-.88-.7l-10.08-.01zM66.82 70H51.89c-.45 0-.88-.2-1.17-.56-.27-.34-.38-.79-.28-1.22l1.61-7.32c.26-1.07 1.21-1.82 2.29-1.81h10.1c1.05-.01 1.96.71 2.21 1.74l1.59 7.38c.09.43-.01.88-.29 1.22-.27.35-.68.56-1.13.57zM54.4 60.48a1 1 0 0 0-.99.7l-1.68 7.34c.01.07.06.12.13.11h14.96c.04.02.09.02.14 0l-1.63-7.46a.89.89 0 0 0-.88-.66l-10.05-.03zM86.52 70H71.58c-.45 0-.88-.2-1.17-.56a1.41 1.41 0 0 1-.28-1.22l1.6-7.32a2.36 2.36 0 0 1 2.29-1.81h10.11c1.05 0 1.96.73 2.21 1.76l1.62 7.37c.09.43-.01.87-.28 1.22-.28.35-.7.56-1.16.56zm-12.46-9.52a1 1 0 0 0-.99.7l-1.61 7.3c0 .08.06.11.13.11h14.96c.04.02.08.02.12 0l-1.6-7.48c-.1-.4-.46-.68-.87-.67l-10.14.04z"/></g></switch></svg>