<svg version="1.1" id="Layer_1" xmlns="http://www.w3.org/2000/svg" x="0" y="0" viewBox="0 0 100 100" xml:space="preserve"><style>.st0{fill:#e98024}</style><switch><g><path class="st0" d="M81.24 34C87.73 34 93 39.29 93 45.81v6.4H73.94c-8.06-.03-14.65 6.43-14.82 14.51-.16 9.55 5.39 15.18 14.82 15.18h17.88l1.15-.07v6.4c0 8.24-3.49 11.77-11.73 11.77H11.76C3.52 100 0 96.47 0 88.19L.07 43.2C.08 38.12 4.19 34 9.26 34h71.98zm-70.9 2.24c-4.44 0-8.05 3.62-8.05 8.08V88.2c0 7.06 2.45 9.52 9.47 9.52h69.47c7.03 0 9.52-2.5 9.52-9.55v-3.99H73.94c-10.43 0-16.96-6.45-17.08-16.86-.1-9.54 7.53-17.36 17.04-17.46H90.75v-4.05c0-5.28-4.27-9.56-9.53-9.56H10.34z"/><path class="st0" d="M91.71 79.5H74.74C66.73 79.5 62 74.81 62 67s4.78-12.5 12.74-12.5h16.97c5.73 0 8.29 2.5 8.29 8.13v8.77c0 5.58-2.56 8.1-8.29 8.1zM74.74 56.69c-9.11 0-10.43 6.45-10.43 10.23 0 3.78 1.37 10.29 10.43 10.29h16.97c4.51 0 6.01-1.48 6.01-5.9v-8.73c0-4.4-1.51-5.9-6.01-5.9H74.74zm1.77 16.71c-3.59.02-6.52-2.82-6.54-6.34-.02-3.52 2.87-6.4 6.46-6.42 3.59-.02 6.52 2.82 6.54 6.34v.01c-.01 3.52-2.91 6.37-6.5 6.37l.04.04zm0-10.52c-2.33 0-4.23 1.86-4.23 4.15s1.89 4.15 4.23 4.15c2.33 0 4.23-1.86 4.23-4.15.01-2.28-1.88-4.14-4.21-4.15h-.02zM34.59 30.2c-1.19.03-2.34-.42-3.2-1.25-1.9-1.89-1.64-5.24.57-7.47a6.003 6.003 0 0 1 5.29-1.79c.49.1.81.57.71 1.06a.9.9 0 0 1-1.06.71c-1.35-.2-2.72.29-3.64 1.3-1.51 1.52-1.77 3.73-.58 4.9s3.4.91 4.91-.62a.9.9 0 0 1 1.25 1.25 6.13 6.13 0 0 1-4.25 1.91z"/><path class="st0" d="M40.56 35.75a.913.913 0 0 1-.79-1.02c.05-.38.33-.69.7-.77 1.03-.11 2-.58 2.72-1.33 1.51-1.53 1.78-3.74.58-4.92-.59-.58-1.42-.85-2.24-.75-1.03.12-1.99.6-2.7 1.35-.36.35-.93.35-1.29 0a.9.9 0 0 1-.01-1.27l.01-.01c1-1.04 2.33-1.7 3.77-1.87 1.36-.17 2.72.28 3.7 1.23 1.91 1.89 1.65 5.24-.56 7.47a6.192 6.192 0 0 1-3.86 1.88l-.03.01z"/><path class="st0" d="M44.78 35.46c-.24 0-.47-.1-.64-.26l-15-14.9a.9.9 0 0 1 0-1.27c.35-.34.91-.34 1.26 0l15.08 14.92c.35.36.35.92 0 1.28-.19.17-.44.25-.7.23z"/><path class="st0" d="M23.68 35.97a16.3 16.3 0 0 1-1.68-7.2c-.26-9 6.7-16.5 15.53-16.76s16.2 6.82 16.46 15.82c.01.26.01.53 0 .79.02 2.56-.57 5.09-1.71 7.38l-28.6-.03zm1.69-1.69H50.6c2.99-7.1-.23-15.32-7.2-18.36s-15.04.24-18.03 7.33a14.256 14.256 0 0 0 0 11.03z"/><circle cx="59.47" cy="15.95" r="14.84" fill="#fff"/><path class="st0" d="M60 32c-8.84 0-16-7.16-16-16S51.16 0 60 0s16 7.16 16 16-7.16 16-16 16zm0-29.69c-7.56 0-13.69 6.13-13.69 13.69S52.44 29.69 60 29.69 73.69 23.56 73.69 16C73.68 8.44 67.56 2.32 60 2.31z"/><path class="st0" d="M61.39 23.49l1.51-1.53 1.79 1.8c.2.23.56.26.79.06.23-.2.26-.56.06-.79l-.06-.06-1.79-1.8 1-1 1.79 1.8c.2.23.56.26.79.06.23-.2.26-.56.06-.79l-.06-.06-1.79-1.8.44-.43a3.59 3.59 0 0 0-.02-4.99l-.26-.26a3.597 3.597 0 0 0-4.21-.64 3.57 3.57 0 0 0-5.8-3.46l-1.8-1.81c-.2-.23-.56-.26-.79-.06s-.26.56-.06.79l.06.06 1.79 1.79-1 1-1.79-1.8a.566.566 0 0 0-.79-.06c-.23.2-.26.56-.06.79l.06.06 1.79 1.8-1.5 1.49c-.22.22-.22.57 0 .79l4.26 4.28c.04.05.09.08.15.11.03.06.06.11.11.15l4.52 4.54c.22.22.58.21.79-.01l.02-.02zm-8.65-9.48l3.44-3.42c.96-.96 2.52-.95 3.48.01s.95 2.52-.01 3.48l-3.43 3.42-3.48-3.49zm4.52 4.54l4.1-4.07c.96-.96 2.52-.96 3.48 0l.26.26c.96.96.96 2.52 0 3.48L61 22.3l-3.74-3.75z"/><path class="st0" d="M65.07 24.31a.91.91 0 0 1-.64-.27l-1.53-1.56-1.25 1.25c-.35.35-.93.35-1.28 0l-4.52-4.54c0-.05-.08-.09-.12-.15l-.16-.08-4.26-4.29a.911.911 0 0 1 0-1.28l1.26-1.25-1.55-1.58a.911.911 0 0 1 0-1.28c.36-.35.93-.35 1.29 0l1.59 1.56.48-.48-1.6-1.55a.911.911 0 0 1 .64-1.55c.24 0 .47.1.64.27l1.58 1.6c1.76-1.26 4.21-.84 5.47.92.51.71.76 1.58.72 2.45 1.42-.45 2.97-.07 4 1l.26.26a3.93 3.93 0 0 1 0 5.55l-.19.2 1.55 1.55a.91.91 0 0 1-.01 1.28.9.9 0 0 1-.64.26.9.9 0 0 1-.64-.26l-1.55-1.56-.47.48 1.55 1.55a.91.91 0 0 1-.01 1.28.95.95 0 0 1-.61.22zM62.9 21.5l2 2.05c.08.08.22.08.3 0 .08-.07.09-.2.02-.28l-.02-.02-2-2.05 1.46-1.45 2 2.05c.04.04.09.06.15.06s.11-.02.15-.06c.04-.04.06-.09.07-.15 0-.06-.03-.11-.07-.15l-2-2.05.68-.68a3.235 3.235 0 0 0 0-4.57l-.25-.24c-1-1.01-2.55-1.25-3.81-.58l-.64.34.14-.72c.22-1.06-.11-2.16-.87-2.93a3.276 3.276 0 0 0-4.37-.2l-.24.21-2-2c-.08-.08-.21-.08-.3-.01-.08.08-.08.22 0 .3l2 2.05-1.4 1.39-2-2a.217.217 0 0 0-.3 0c-.08.08-.08.22 0 .3l2 2.05-1.8 1.68c-.04.04-.06.09-.06.15s.02.11.06.15l9 9.09c.08.08.22.08.3 0l1.8-1.73zM61 22.79l-4.22-4.24 4.34-4.32a2.78 2.78 0 0 1 2-.82c.75 0 1.47.3 2 .83l.25.26a2.81 2.81 0 0 1 .03 3.97l-.03.03L61 22.79zm-3.24-4.24l3.25 3.26 3.83-3.85c.83-.83.83-2.17 0-3l-.26-.26c-.39-.4-.93-.62-1.49-.62-.56 0-1.09.22-1.49.61l-3.84 3.86zm-1.54-.6l-4-4 3.68-3.62c.53-.52 1.25-.81 2-.81a2.813 2.813 0 0 1 2.83 2.79c0 .75-.29 1.47-.83 2.01l-3.68 3.63zm-3-4l3 3 3.19-3.17c.82-.83.82-2.17 0-3-.4-.4-.94-.62-1.5-.62s-1.1.22-1.5.61l-3.19 3.18z"/></g></switch></svg>