<svg version="1.1" id="Layer_1" xmlns="http://www.w3.org/2000/svg" x="0" y="0" viewBox="0 0 107 100" xml:space="preserve"><style>.st0{fill:#e98024}</style><switch><g><path class="st0" d="M55.65 65.17c.05-1.32-.47-2.6-1.41-3.52a14.177 14.177 0 0 0-5-2.65c-2.2-.59-4.25-1.65-6-3.1a6.599 6.599 0 0 1-2-5.12 6.99 6.99 0 0 1 2-5.16 7.966 7.966 0 0 1 5.3-2.26v-4h2v4c2.04.09 3.95 1.02 5.29 2.56A8.993 8.993 0 0 1 57.7 52l-.06.1h-2.19c.08-1.75-.48-3.46-1.56-4.83a5.427 5.427 0 0 0-4.35-1.86c-1.61-.12-3.19.43-4.39 1.51-1 1.01-1.54 2.4-1.49 3.82-.06 1.32.42 2.61 1.32 3.58 1.49 1.23 3.23 2.12 5.1 2.61 2.19.62 4.24 1.69 6 3.14a6.46 6.46 0 0 1 1.94 5c.1 1.94-.63 3.82-2 5.19a8.584 8.584 0 0 1-5.48 2.26v3.71h-2v-3.69a9.585 9.585 0 0 1-5.87-2.26c-1.56-1.33-2.31-3.39-2.26-6.16l.06-.12h2.17c0 2.32.67 3.99 2 5a7.521 7.521 0 0 0 4.77 1.53c1.65.08 3.28-.47 4.55-1.53 1.1-.97 1.71-2.37 1.69-3.83zM63.91 59.29l1.63-15.56H79.3v2.17H67.48L66.43 56c.69-.63 1.49-1.14 2.36-1.5 1.12-.4 2.31-.6 3.5-.59 2.22-.12 4.38.78 5.86 2.44a9.76 9.76 0 0 1 2.22 6.72c.14 2.49-.62 4.95-2.15 6.93-1.44 1.72-3.61 2.58-6.5 2.58a8.86 8.86 0 0 1-5.86-2 6.894 6.894 0 0 1-2.24-5.81v-.11h2.09c-.11 1.63.49 3.22 1.63 4.38a6.097 6.097 0 0 0 4.34 1.51c1.79.14 3.54-.57 4.74-1.91a8.503 8.503 0 0 0 1.57-5.54c.1-1.83-.44-3.63-1.53-5.1a5.377 5.377 0 0 0-4.41-1.92c-1.44-.08-2.88.22-4.17.87-.98.61-1.71 1.54-2.08 2.63l-1.89-.29z"/><path class="st0" d="M61.69 99.88c-25.01 0-45.34-20.2-45.34-45.02.01-4.65.73-9.26 2.13-13.69l.25-.76.78.08c.58.06 1.16.09 1.74.09C32.63 40.64 41.9 31.44 42 20c0-1.55-.18-3.1-.53-4.61l-.18-.77.71-.32a45.226 45.226 0 0 1 19.69-4.46c24.99 0 45.31 20.2 45.31 45.02S86.67 99.88 61.69 99.88zM20.11 42.51c-1.2 4.01-1.81 8.17-1.81 12.35 0 23.74 19.46 43.03 43.4 43.03s43.4-19.29 43.4-43.03-19.5-43.07-43.41-43.07c-6.27 0-12.46 1.36-18.16 3.99.28 1.41.41 2.84.42 4.27-.12 12.5-10.26 22.55-22.68 22.49-.45 0-.81-.01-1.16-.03zm-.53-3.48C8.84 39.08.09 30.39 0 19.58 0 8.7 8.77-.12 19.58-.12s19.58 8.82 19.58 19.7c-.08 10.81-8.84 19.5-19.58 19.45zm0-36.92c-9.64-.03-17.5 7.77-17.6 17.47.08 9.71 7.95 17.53 17.6 17.5 9.67.06 17.56-7.77 17.64-17.5-.1-9.71-7.98-17.52-17.64-17.47zm.31 27.7c-1.54.03-2.81-1.2-2.84-2.75V22.6h-4.37c-1.58.09-2.94-1.12-3.03-2.71a2.883 2.883 0 0 1 3.03-3.05h4.37V12.5c0-1.6 1.29-2.9 2.89-2.9 1.59 0 2.88 1.3 2.88 2.9v4.34h4.39c1.58-.09 2.94 1.12 3.03 2.71a2.883 2.883 0 0 1-3.03 3.05H22.8v4.36c-.04 1.58-1.34 2.84-2.91 2.81v.04zm-7.21-10.98c-.51-.01-.93.4-.94.92 0 .51.41.93.92.93H19v6.27c-.01.47.37.85.83.86h.06c.51.03.95-.35.99-.86v-6.31h6.34a.93.93 0 1 0 0-1.85h-6.34V12.5a.995.995 0 0 0-1.25-.64c-.3.1-.53.34-.63.64v6.29l-6.32.04z"/></g></switch></svg>