<svg version="1.1" id="Layer_1" xmlns="http://www.w3.org/2000/svg" x="0" y="0" viewBox="0 0 100 100" xml:space="preserve"><style>.st0{fill:#e98024}</style><switch><g><path class="st0" d="M37.18 20.99c-.12 0-.25-.02-.36-.07a83.685 83.685 0 0 0-18.88-5.1c-.53.02-.98-.38-1-.9-.02-.51.39-.95.92-.97.12 0 .25.01.36.05 6.63.99 13.11 2.74 19.31 5.23.47.24.65.8.4 1.26-.14.28-.43.47-.75.5zM37.35 37.03c-.13 0-.25-.03-.37-.08a86.206 86.206 0 0 0-19.19-5.14c-.51-.18-.77-.71-.59-1.2.13-.36.48-.61.88-.62 6.74 1 13.33 2.76 19.63 5.26.48.23.68.8.43 1.26-.15.3-.45.5-.79.52zM37.26 53.04c-.13 0-.25-.02-.37-.07a84.704 84.704 0 0 0-19.01-5.14c-.51-.09-.86-.54-.79-1.04.09-.51.59-.86 1.11-.77h.01c6.67.99 13.2 2.75 19.44 5.25.48.23.67.8.43 1.26-.15.29-.45.49-.79.51h-.03zM37.18 68.83c-.12 0-.25-.02-.36-.07a83.685 83.685 0 0 0-18.88-5.1c-.53.02-.98-.38-1-.9-.02-.51.39-.95.92-.97.12 0 .25.01.36.05 6.63.99 13.11 2.74 19.31 5.23.47.24.65.8.4 1.26-.14.28-.43.47-.75.5zM51.99 68.85c-.53.04-1-.35-1.04-.87-.04-.52.37-.97.9-1 6.54-.97 12.93-2.69 19.04-5.14.52-.1 1.03.23 1.14.74.08.38-.09.76-.42.97a86.707 86.707 0 0 1-19.48 5.31h-.14zM52.16 52.79a.944.944 0 0 1-1.02-.86c-.04-.51.36-.95.89-.98 6.43-.95 12.71-2.64 18.73-5.03a.965.965 0 0 1 1.32.24c.3.42.19.99-.25 1.28a1.2 1.2 0 0 1-.37.15 85.44 85.44 0 0 1-19.16 5.15l-.14.05zM52.16 36.78c-.53.04-.98-.35-1.02-.86s.36-.95.89-.98c6.43-.95 12.71-2.64 18.73-5.03a.965.965 0 0 1 1.32.24c.3.42.19.99-.25 1.28a1.2 1.2 0 0 1-.37.15 85.44 85.44 0 0 1-19.16 5.15l-.14.05zM51.34 21.35c-.53-.07-.91-.55-.83-1.07.05-.37.33-.67.69-.78 6.6-.97 13.06-2.7 19.23-5.16a.98.98 0 0 1 1.15.74c.08.38-.09.77-.43.98a87.853 87.853 0 0 1-19.67 5.29h-.14z"/><path class="st0" d="M85.18 94.72H.76c-.56 0-1.01-.45-1.01-1V12.33c0-.55.45-1 1.01-1H6.7c.56 0 1.01.45 1.01 1s-.45 1-1.01 1H1.76v79.43h82.5V13.31h-4.48c-.56 0-1.01-.45-1.01-1s.45-1 1.01-1h5.39c.56 0 1.01.45 1.01 1v81.43c-.01.55-.46.98-1 .98z"/><path class="st0" d="M43.12 94.21h-.14c-.22.03-.45-.01-.64-.12C26.93 85.07 15.7 81.61 8 83.53a1.003 1.003 0 0 1-1.21-.95V.76a1 1 0 0 1 .3-.71c.18-.2.44-.32.71-.3 11.92.33 23.8 4.03 35.18 11.09A72.459 72.459 0 0 1 78.14-.25c.55 0 1 .45 1 1.01v81.81c0 .53-.41.97-.93 1.01-12.21.6-24.08 4.21-34.58 10.5-.15.09-.33.13-.51.13zm.69-81.58v79.05A76.181 76.181 0 0 1 77.2 81.6V1.77a70.819 70.819 0 0 0-33.39 10.86zM12.49 81.04c9.59 0 20.85 5.58 29.36 10.47V12.45C31.08 5.86 19.95 2.26 8.75 1.77v79.58c1.24-.21 2.49-.32 3.74-.31z"/><path d="M88.9 79.28l5.02-3.86a3.131 3.131 0 0 0-.42-5.03l-18.69-7.75a3.012 3.012 0 0 0-4.59 3.43L72.6 87.1c.13 1.03.92 1.84 1.94 2.01.92.37 1.97.18 2.69-.5l5.02-3.86 9.21 12.68a4.202 4.202 0 0 0 5.85 1.02c.06-.04.12-.09.18-.13 1.9-1.59 2.22-4.39.72-6.36L88.9 79.28z" fill="#fff"/><path class="st0" d="M94.55 99.74c-.18.01-.37.01-.55 0a5.48 5.48 0 0 1-3.83-2.22l-8.63-11.94-4.22 3.25c-.97.87-2.34 1.13-3.56.67-1.4-.27-2.47-1.4-2.66-2.81l-2.38-21.15a4.08 4.08 0 0 1 1.53-4.25c1.33-.93 3.09-1 4.49-.17l18.64 7.73.2.11c1.13.71 1.84 1.92 1.91 3.25.07 1.27-.45 2.5-1.4 3.34l-4.33 3.33 8.81 11.92a5.35 5.35 0 0 1 1.15 3.97 5.592 5.592 0 0 1-2.01 3.79c-.87.79-2 1.21-3.16 1.18zM81.74 83.19h.14c.26.04.5.18.65.39l9.22 12.74c.58.79 1.47 1.3 2.44 1.4.79.1 1.59-.15 2.18-.67a3.68 3.68 0 0 0 1.32-2.47c.11-.9-.14-1.81-.7-2.53L87.63 79.3c-.31-.44-.23-1.04.19-1.37l5.03-3.87a2.14 2.14 0 0 0-.31-3.41l-18.61-7.71-.14-.08c-.77-.46-1.73-.42-2.45.11-.62.59-.86 1.47-.64 2.3l2.39 21.15c.07.59.53 1.07 1.12 1.17.08.01.15.03.22.06.56.24 1.21.11 1.65-.31l5.1-3.93c.17-.13.36-.2.56-.22z"/></g></switch></svg>