<svg version="1.1" id="svg" xmlns="http://www.w3.org/2000/svg" x="0" y="0" viewBox="0 0 100 100" xml:space="preserve"><style>.st0{fill:#e98024}</style><switch><g><path class="st0" d="M37 30.15c-1.86 0-3.37-1.54-3.37-3.44V11.6l-1.9 1.9c-.65.64-1.5 1-2.41.98-.9-.01-1.75-.39-2.38-1.05-1.28-1.36-1.25-3.54.07-4.85L34.64.99c.15-.15.3-.24.4-.29l.13-.09c.13-.1.3-.23.54-.33.83-.35 1.74-.35 2.57 0 .24.1.41.23.54.33l.08.06c.13.07.29.16.44.32l7.63 7.59c1.32 1.31 1.36 3.49.08 4.85-1.27 1.34-3.5 1.37-4.79.08l-1.9-1.89v15.11c.01 1.88-1.5 3.42-3.36 3.42zM35.59 6.88v19.83c0 .81.63 1.47 1.41 1.47.78 0 1.41-.66 1.41-1.47V6.88l5.25 5.22c.54.54 1.45.52 1.98-.03.55-.59.54-1.53-.03-2.1l-7.63-7.59c-.06-.02-.12-.06-.18-.1l-.15-.11-.12-.09c-.33-.14-.7-.14-1.04 0-.03.02-.07.05-.11.08l-.13.1c-.07.05-.14.09-.22.14l-7.62 7.57c-.57.57-.59 1.51-.03 2.1.26.28.61.43.98.44.38.01.73-.14 1-.41l5.23-5.22zM52.89 80H3.45C1.55 80 0 78.41 0 76.45v-38.9C0 35.59 1.55 34 3.45 34h65.11c1.9 0 3.45 1.59 3.45 3.55v16.17h-1.99V37.55c0-.84-.64-1.5-1.46-1.5H3.45c-.8 0-1.46.67-1.46 1.5v38.91c0 .83.65 1.5 1.46 1.5h49.44V80zm-37.43-5.4h-10V64.38l1.12.26c4.26.98 7.64 4.43 8.61 8.78l.27 1.18zm-8.3-1.75h6c-1.01-2.84-3.23-5.1-6-6.13v6.13zm59.57-23.28l-1.12-.25c-4.26-.96-7.64-4.41-8.61-8.78l-.26-1.18h10v10.21zm-7.7-8.47c1.02 2.85 3.23 5.12 6 6.13V41.1h-6zM5.47 49.53V39.31h10l-.27 1.19c-1 4.38-4.38 7.83-8.61 8.78l-1.12.25zm1.69-8.46v6.13c2.76-1.01 4.97-3.28 6-6.13h-6z"/><path class="st0" d="M76 100c-13.23 0-24-10.82-24-24.12s10.77-24.12 24-24.12 24 10.82 24 24.12S89.23 100 76 100zm0-46.22c-12.13 0-21.99 9.92-21.99 22.1s9.87 22.1 21.99 22.1 21.99-9.92 21.99-22.1-9.86-22.1-21.99-22.1z"/><path class="st0" d="M84.09 87.44H67.92c-1.33 0-2.42-1.1-2.42-2.44V73.83c0-1.35 1.08-2.44 2.42-2.44h.79V68c0-4.24 3.27-7.69 7.29-7.69s7.3 3.45 7.3 7.69v3.39h.79c1.33 0 2.41 1.1 2.41 2.44v11.16c0 1.35-1.08 2.45-2.41 2.45zM67.92 73.36c-.26 0-.46.21-.46.47v11.16c0 .26.21.47.46.47h16.17c.26 0 .46-.21.46-.47V73.83c0-.26-.21-.47-.46-.47H67.92zm2.74-1.97h10.69V68c0-3.15-2.4-5.72-5.34-5.72-2.95 0-5.34 2.56-5.34 5.72v3.39z"/><path class="st0" d="M76.71 79.47v3.11h-1.37v-3.11c-.7-.28-1.21-.96-1.21-1.77 0-1.05.85-1.9 1.89-1.9s1.89.85 1.89 1.9c.01.81-.49 1.5-1.2 1.77zM36.45 67.84h1.26v-2.06l.23-.01c1.11-.06 2.17-.51 2.98-1.26a3.74 3.74 0 0 0 1.07-2.8c.07-1.07-.32-2.1-1.06-2.84-.97-.84-2.1-1.47-3.35-1.85-.8-.23-1.54-.62-2.18-1.16-.46-.47-.7-1.09-.67-1.71-.03-.63.19-1.26.63-1.74.51-.49 1.19-.72 1.87-.67.71-.05 1.42.3 1.86.89.42.61.65 1.33.66 2.05h2.16c.01-1.1-.35-2.18-1-3.07a4.22 4.22 0 0 0-2.76-1.49l-.22-.02v-2.35h-1.27v2.35l-.22.02c-1.07.08-2.08.54-2.83 1.3-.7.74-1.08 1.75-1.04 2.77-.05 1.07.34 2.09 1.08 2.84.97.83 2.11 1.44 3.36 1.81.79.23 1.5.62 2.12 1.16.46.46.7 1.08.69 1.71.04.67-.21 1.32-.7 1.79-.6.47-1.33.69-2.06.66-.73.02-1.47-.23-2.05-.72-.56-.6-.86-1.36-.85-2.14H32c-.07 1.16.35 2.31 1.16 3.16.83.76 1.92 1.24 3.06 1.33l.22.02v2.03z"/></g></switch></svg>