<svg version="1.1" id="svg" xmlns="http://www.w3.org/2000/svg" x="0" y="0" viewBox="0 0 100 100" xml:space="preserve"><style>.st0{fill:#e98024}.st1{fill:#fff}.st2{fill:#e98024;stroke:#e98024;stroke-miterlimit:10}</style><switch><g><path class="st0" d="M50 90c-22.09 0-40-17.91-40-40s17.91-40 40-40 40 17.91 40 40v.01C89.97 72.09 72.08 89.98 50 90zm0-77.82C29.11 12.17 12.16 29.11 12.16 50s16.93 37.84 37.82 37.84 37.84-16.93 37.84-37.82v-.01C87.8 29.13 70.88 12.21 50 12.18z"/><circle class="st1" cx="50.07" cy="13.16" r="12.08"/><path class="st0" d="M50 26c-7.18 0-13-5.82-13-13S42.82 0 50 0s13 5.82 13 13c-.01 7.18-5.82 12.99-13 13zm0-23.87C44 2.13 39.13 7 39.13 13S44 23.87 50 23.87 60.87 19 60.87 13 56 2.13 50 2.13z"/><circle class="st1" cx="49.87" cy="86.84" r="12.08"/><path class="st0" d="M50.03 100c-7.18.02-13.01-5.79-13.03-12.97S42.79 74.02 49.97 74c7.18-.02 13.01 5.79 13.03 12.97V87c-.01 7.17-5.8 12.98-12.97 13zm0-23.87c-6 0-10.87 4.86-10.87 10.87s4.86 10.87 10.87 10.87S60.9 93 60.9 87c0-6-4.87-10.87-10.87-10.87z"/><circle class="st1" cx="13.03" cy="50" r="12.08"/><path class="st0" d="M13 63C5.82 63 0 57.18 0 50s5.82-13 13-13 13 5.82 13 13c-.01 7.18-5.82 12.99-13 13zm0-23.87C7 39.13 2.13 44 2.13 50S7 60.87 13 60.87 23.87 56 23.87 50 19 39.13 13 39.13z"/><circle class="st1" cx="87.01" cy="49.93" r="12.08"/><path class="st0" d="M87 63c-7.18 0-13-5.82-13-13s5.82-13 13-13 13 5.82 13 13c-.01 7.18-5.82 12.99-13 13zm0-23.87C81 39.13 76.13 44 76.13 50S81 60.87 87 60.87c6 0 10.87-4.86 10.87-10.87S93 39.13 87 39.13zM50.22 10.23c.78.81 1.37 1.78 1.75 2.85.16.97-.48 1.89-1.44 2.06-.96.17-1.87-.49-2.03-1.46-.06-.25-.06-.52 0-.78.4-.99.99-1.89 1.72-2.67z"/><path class="st0" d="M52.31 20h-5.99c-.26-.01-.51-.1-.72-.26l-.13-.12c-.42-.39-.57-1-.38-1.54.1-.27.27-.51.5-.69l.08-3.28-.27-.46c-.28-.52-.26-1.15.06-1.65l.07-.11V8.41L45.37 8c-.18-.44-.13-.94.13-1.33.26-.4.7-.63 1.18-.63h5.03c.26 0 .48.22.48.48v.21c0 .27-.21.48-.48.48h-5.03c-.07 0-.14.04-.18.1a.22.22 0 0 0 0 .16l.26.59c.01.06.01.12 0 .18v3.88c0 .09-.03.18-.08.26l-.19.29c-.07.12-.07.27 0 .39.1.19.21.37.33.55.05.09.09.2.1.31l-.09 3.88c-.01.14-.07.28-.18.37l-.33.26c-.04.03-.08.08-.1.13-.03.08 0 .18.07.23l.07.06h5.96c.26 0 .48.22.48.48v.26c-.07.24-.26.41-.49.41z"/><path class="st0" d="M47.75 20c-.26 0-.48-.22-.48-.48v-.26c0-.27.21-.48.48-.48l6.03-.05c.06-.06.08-.15.05-.22a.273.273 0 0 0-.09-.12l-.33-.27a.474.474 0 0 1-.18-.37l-.09-3.88c.01-.1.06-.18.12-.25.13-.21.24-.41.33-.59.08-.12.08-.27 0-.39l-.18-.29a.607.607 0 0 1-.08-.26V8.21a.544.544 0 0 1 0-.18l.25-.59c.03-.05.03-.11 0-.16a.21.21 0 0 0-.18-.11h-5.06c-.26 0-.48-.22-.48-.48v-.2c0-.27.21-.48.48-.48h5.02c.48 0 .92.24 1.19.64.27.4.32.91.12 1.36l-.17.44v3.42l.07.11c.3.51.3 1.14 0 1.65-.08.15-.17.3-.26.46l.07 3.28h.06c.23.17.4.41.49.68.19.54.04 1.15-.38 1.54l-.15.11c-.2.16-.45.24-.7.25l-5.95.05zM10.71 55.82H6.14c-.39 0-.7-.31-.7-.7v-6.46c.01-.6.48-1.08 1.08-1.09h3.8c.59.02 1.07.5 1.08 1.09v6.46c0 .38-.31.69-.69.7h-.01.01zm-3.88-1.4h3.18v-5.44H6.82l.01 5.44z"/><path class="st0" d="M15.28 55.82h-4.57c-.39 0-.7-.31-.7-.7v-4.13c0-.6.48-1.08 1.08-1.09h3.8c.6 0 1.09.49 1.09 1.09v4.17c0 .38-.31.69-.69.7l-.01-.04zm-3.88-1.4h3.18v-3.2H11.4v3.2z"/><path class="st0" d="M19.86 55.82h-4.58c-.39 0-.7-.31-.7-.7v-9.89c.01-.6.49-1.08 1.09-1.08h3.79c.6 0 1.08.48 1.09 1.08v9.89c.01.38-.3.69-.69.7zm-3.89-1.39h3.19v-8.89h-3.2l.01 8.89z"/><g><path class="st0" d="M46.94 86.47c-.61-.6-.95-1.41-.94-2.26a3.783 3.783 0 0 1 3.99-3.41c1.4-.03 2.72.63 3.53 1.77.16.4-.04.86-.45 1.02a.81.81 0 0 1-.85-.18 2.674 2.674 0 0 0-2.25-1.09c-1.22-.14-2.33.7-2.52 1.91 0 1.08 1.11 1.91 2.51 1.93.42.09.7.5.62.92a.79.79 0 0 1-.63.62c-1.12-.02-2.2-.46-3.01-1.23z"/><path class="st0" d="M47.09 91.97a.795.795 0 0 1 .2-1.09c.26-.16.59-.16.85 0 .51.42 1.15.66 1.82.67 1.22.14 2.33-.7 2.52-1.91-.02-.51-.26-.99-.67-1.3-.52-.41-1.16-.62-1.82-.62a.778.778 0 0 1-.64-.89c.05-.33.31-.59.64-.64 1.02 0 2 .35 2.79.99.76.6 1.22 1.52 1.22 2.49-.19 2.05-1.99 3.56-4.05 3.42-1.03.01-2.03-.34-2.83-.99l-.03-.13z"/><path class="st0" d="M49.41 94.74a.725.725 0 0 1-.23-.54l.08-14.3a.79.79 0 0 1 1.54-.34c.02.11.02.23 0 .34v14.33c-.01.42-.35.76-.77.76a.72.72 0 0 1-.62-.25z"/></g><g id="indecies"><path class="st2" d="M93.08 53.17h-2.96c-.04.01-.08.01-.12 0l-1.97-2.02-2.06 1.91c-.07.06-.17.06-.24 0l-5.05-5.05a.175.175 0 0 1-.05-.24c.04-.08.14-.11.22-.07.01 0 .01.01.02.01l.06.05c1.17 1.17 4.3 4.25 4.96 4.88l2.07-1.91c.07-.06.17-.06.24 0l2.01 2.12h2.89c.09 0 .17.08.17.17v.01c0 .1-.08.17-.17.17v-.03z"/><path class="st2" d="M80.68 53.76c-.09 0-.17-.08-.17-.17v-.01a.205.205 0 0 1 0-.11l2.83-2.87 2.2-2.19c.03-.03.07-.06.11-.06h4.02l3.28-3.27c.07-.07.18-.07.25 0s.07.18 0 .25l-3.22 3.27c-.03.04-.08.06-.12.06h-4.03l-2.14 2.13-2.83 2.87c-.04.06-.11.1-.18.1z"/><path class="st2" d="M93.08 47.89c-.08-.02-.14-.1-.13-.18v-2.35h-2.37c-.09 0-.17-.08-.17-.17 0-.1.07-.18.17-.18h2.5c.1.01.17.08.17.18v2.52c0 .09-.07.17-.17.18zM91.61 54.99c-.04.01-.08.01-.12 0a.196.196 0 0 1 0-.25l1.6-1.7-1.68-1.63c-.08-.06-.09-.18-.02-.26.04-.05.12-.08.18-.06.03.02.06.04.08.08l1.8 1.69c.06.07.06.17 0 .24l-1.72 1.82c-.03.04-.07.07-.12.07z"/></g></g></switch></svg>