<svg version="1.1" id="svg" xmlns="http://www.w3.org/2000/svg" x="0" y="0" viewBox="0 0 100 100" xml:space="preserve"><style>.st0{fill:#e98024}</style><switch><g><path class="st0" d="M82.82 34.36c-9.49 0-17.18-7.69-17.18-17.18S73.33 0 82.82 0C92.31 0 100 7.69 100 17.18s-7.69 17.18-17.18 17.18zm0-32.24c-8.32 0-15.06 6.74-15.06 15.06s6.74 15.06 15.06 15.06 15.06-6.74 15.06-15.06c-.01-8.31-6.74-15.05-15.06-15.06zM80.1 24c-.28 0-.55-.11-.74-.31L74.6 19c-.41-.41-.41-1.09 0-1.5s1.09-.41 1.5 0l4 4 9.44-9.5c.47-.35 1.14-.24 1.48.23.28.38.27.91-.02 1.28L80.85 23.7c-.2.2-.47.31-.75.3zM27.17 37.32c-.28.01-.56-.11-.75-.31l-6.66-6.64L13.1 37c-.3.32-.76.41-1.16.23-.4-.17-.66-.56-.65-1V13.47c0-.59.47-1.06 1.06-1.06.59 0 1.06.47 1.06 1.06v20.25L19 28.13c.41-.41 1.08-.41 1.49 0l5.61 5.59V13.47c-.06-.58.37-1.1.95-1.16a1.063 1.063 0 0 1 1.16 1.16v22.79c.03.44-.24.85-.65 1-.12.05-.26.07-.39.06z"/><path class="st0" d="M82.48 100H2.38c-1.29.03-2.35-.99-2.38-2.28V14.11a2.326 2.326 0 0 1 2.38-2.28h64.09c.59 0 1.06.47 1.06 1.06 0 .59-.47 1.06-1.06 1.06H2.21v83.93h79.16V33.62a1.11 1.11 0 0 1 2.21 0v65.32c-.01.6-.5 1.07-1.1 1.06z"/><path class="st0" d="M67.43 44.85h-55c-.58.06-1.1-.37-1.16-.95a1.063 1.063 0 0 1 1.16-1.16h55c.58-.06 1.1.37 1.16.95a1.063 1.063 0 0 1-1.16 1.16zM67.43 54.16h-55c-.59.08-1.13-.33-1.21-.91-.08-.59.33-1.13.91-1.21.1-.01.2-.01.29 0h55c.59-.08 1.13.33 1.21.91.08.59-.33 1.13-.91 1.21-.09.01-.19.01-.29 0zM67.43 63.25h-55c-.58.06-1.1-.37-1.16-.95a1.063 1.063 0 0 1 1.16-1.16h55c.58-.06 1.1.37 1.16.95a1.063 1.063 0 0 1-1.16 1.16zM67.43 72.56h-55c-.59.08-1.13-.33-1.21-.91-.08-.59.33-1.13.91-1.21.1-.01.2-.01.29 0h55c.59-.08 1.13.33 1.21.91.08.59-.33 1.13-.91 1.21-.09.01-.19.01-.29 0zM40 82.89H12.47c-.59.08-1.13-.33-1.21-.91-.08-.59.33-1.13.91-1.21.1-.01.2-.01.29 0H40c.59-.08 1.13.33 1.21.91s-.33 1.13-.91 1.21c-.1.01-.2.01-.3 0zM67.56 92.06H58c-.59 0-1.06-.47-1.06-1.06 0-.59.47-1.06 1.06-1.06h9.53c.59 0 1.06.47 1.06 1.06 0 .59-.47 1.06-1.06 1.06h.03z"/></g></switch></svg>