<svg version="1.1" id="Layer_1" xmlns="http://www.w3.org/2000/svg" x="0" y="0" viewBox="0 0 100 100" xml:space="preserve"><style>.st0{fill:#ec7623}</style><switch><g><g id="efcd3f8e-5ec4-4ad3-93f0-5179f2cdce1a"><g id="af6f945f-caaf-42e3-a32a-961d4816c15d"><path class="st0" d="M44.7 28.09H2.59C1.17 28.1.01 26.94 0 25.52V2.79A2.588 2.588 0 0 1 2.59.21H44.7c1.43 0 2.58 1.15 2.59 2.58v22.73c-.01 1.42-1.17 2.58-2.59 2.57zM2.59 1.79c-.55 0-1 .45-1 1v22.73c0 .55.45 1 1 1H44.7c.55 0 1-.45 1-1V2.79c0-.55-.45-1-1-1H2.59zM42.9 24.52H4.4c-.44 0-.79-.35-.79-.79V4.57c0-.44.35-.79.79-.79h38.5c.43.01.78.36.79.79v19.16c0 .44-.35.79-.79.79zM5.19 23h36.92V5.36H5.19V23z"/><path class="st0" d="M23.65 20.47c-3.4-.1-6.07-2.92-6-6.32a6.188 6.188 0 0 1 6-6.31c3.39.1 6.07 2.92 6 6.31.07 3.4-2.6 6.22-6 6.32zm0-11c-2.5.09-4.46 2.19-4.39 4.69a4.545 4.545 0 0 0 4.39 4.69 4.56 4.56 0 0 0 4.35-4.7c.07-2.49-1.86-4.58-4.35-4.68zM37.7 68.65c-.25 0-.49-.09-.67-.26A1 1 0 0 1 37 67l14.82-16c.25-.27.38-.63.37-1l-.25-30c0-.55.45-1 1-1s1 .45 1 1l.22 30a3.3 3.3 0 0 1-.91 2.31l-14.83 16c-.18.21-.44.33-.72.34z"/><path class="st0" d="M52.66 100c-22.4 0-41.9-16.79-46.38-39.94a.998.998 0 0 1 .78-1.14c.53-.09 1.03.25 1.15.77C12.51 81.91 31.2 98 52.66 98 77.68 98 98 76.49 98 50S77.68 2 52.66 2c-.55 0-1-.45-1-1s.45-1 1-1C78.76 0 100 22.43 100 50s-21.24 50-47.34 50z"/><path class="st0" d="M1.19 70.61c-.13 0-.26-.03-.38-.1-.4-.2-.56-.69-.36-1.09 0-.01.01-.02.01-.02l5.76-11c.11-.2.29-.35.5-.42.22-.06.46-.03.65.09l10.38 6.09c.39.24.5.76.26 1.14 0 .01-.01.01-.01.02-.23.39-.73.52-1.12.3 0 0-.01 0-.01-.01L7.28 60 1.93 70.17c-.15.27-.43.44-.74.44zM44.7 28.09H2.59C1.17 28.1.01 26.94 0 25.52V2.79A2.588 2.588 0 0 1 2.59.21H44.7c1.43 0 2.58 1.15 2.59 2.58v22.73c-.01 1.42-1.17 2.58-2.59 2.57zM2.59 1.79c-.55 0-1 .45-1 1v22.73c0 .55.45 1 1 1H44.7c.55 0 1-.45 1-1V2.79c0-.55-.45-1-1-1H2.59zM42.9 24.52H4.4c-.44 0-.79-.35-.79-.79V4.57c0-.44.35-.79.79-.79h38.5c.43.01.78.36.79.79v19.16c0 .44-.35.79-.79.79zM5.19 23h36.92V5.36H5.19V23z"/><path class="st0" d="M23.65 20.47c-3.4-.1-6.07-2.92-6-6.32a6.188 6.188 0 0 1 6-6.31c3.39.1 6.07 2.92 6 6.31.07 3.4-2.6 6.22-6 6.32zm0-11c-2.5.09-4.46 2.19-4.39 4.69a4.545 4.545 0 0 0 4.39 4.69 4.56 4.56 0 0 0 4.35-4.7c.07-2.49-1.86-4.58-4.35-4.68zM37.7 68.65c-.25 0-.49-.09-.67-.26A1 1 0 0 1 37 67l14.82-16c.25-.27.38-.63.37-1l-.25-30c0-.55.45-1 1-1s1 .45 1 1l.22 30a3.3 3.3 0 0 1-.91 2.31l-14.83 16c-.18.21-.44.33-.72.34z"/><path class="st0" d="M52.66 100c-22.4 0-41.9-16.79-46.38-39.94a.998.998 0 0 1 .78-1.14c.53-.09 1.03.25 1.15.77C12.51 81.91 31.2 98 52.66 98 77.68 98 98 76.49 98 50S77.68 2 52.66 2c-.55 0-1-.45-1-1s.45-1 1-1C78.76 0 100 22.43 100 50s-21.24 50-47.34 50z"/><path d="M1.19 70.61c-.13 0-.26-.03-.38-.1-.4-.2-.56-.69-.36-1.09 0-.01.01-.02.01-.02l5.76-11c.11-.2.29-.35.5-.42.22-.06.46-.03.65.09l10.38 6.09c.39.24.5.76.26 1.14 0 .01-.01.01-.01.02-.23.39-.73.52-1.12.3 0 0-.01 0-.01-.01L7.28 60 1.93 70.17c-.15.27-.43.44-.74.44z" fill="#e38025"/></g></g></g></switch></svg>