<svg xmlns="http://www.w3.org/2000/svg" width="100" height="100" viewBox="0 0 100 100"><defs><style>.fb829723-958a-49d7-bf14-e42b357b1ede{fill:#ec7623}</style></defs><g id="efcd3f8e-5ec4-4ad3-93f0-5179f2cdce1a" data-name="Layer 2"><g id="af6f945f-caaf-42e3-a32a-961d4816c15d" data-name="Layer 1"><path class="fb829723-958a-49d7-bf14-e42b357b1ede" d="M44.7 28.09H2.59A2.58 2.58 0 0 1 0 25.52V2.79A2.59 2.59 0 0 1 2.59.21H44.7a2.59 2.59 0 0 1 2.59 2.58v22.73a2.58 2.58 0 0 1-2.59 2.57zM2.59 1.79a1 1 0 0 0-1 1v22.73a1 1 0 0 0 1 1H44.7a1 1 0 0 0 1-1V2.79a1 1 0 0 0-1-1zM42.9 24.52H4.4a.79.79 0 0 1-.79-.79V4.57a.79.79 0 0 1 .79-.79h38.5a.8.8 0 0 1 .79.79v19.16a.79.79 0 0 1-.79.79zM5.19 23h36.92V5.36H5.19z"/><path class="fb829723-958a-49d7-bf14-e42b357b1ede" d="M23.65 20.47a6.19 6.19 0 0 1-6-6.32 6.18 6.18 0 0 1 6-6.31 6.18 6.18 0 0 1 6 6.31 6.19 6.19 0 0 1-6 6.32zm0-11a4.56 4.56 0 0 0-4.39 4.69 4.55 4.55 0 0 0 4.39 4.69 4.55 4.55 0 0 0 4.35-4.7 4.56 4.56 0 0 0-4.35-4.69zM37.7 68.65a1 1 0 0 1-.67-.26A1 1 0 0 1 37 67l14.82-16a1.39 1.39 0 0 0 .37-1l-.25-30a1 1 0 0 1 1-1 1 1 0 0 1 1 1l.22 30a3.29 3.29 0 0 1-.91 2.31l-14.83 16a1 1 0 0 1-.72.34z"/><path class="fb829723-958a-49d7-bf14-e42b357b1ede" d="M52.66 100c-22.4 0-41.9-16.79-46.38-39.94a1 1 0 0 1 .78-1.14 1 1 0 0 1 1.15.77C12.51 81.91 31.2 98 52.66 98 77.68 98 98 76.49 98 50S77.68 2 52.66 2a1 1 0 1 1 0-2C78.76 0 100 22.43 100 50s-21.24 50-47.34 50z"/><path class="fb829723-958a-49d7-bf14-e42b357b1ede" d="M1.19 70.61a.75.75 0 0 1-.38-.1.81.81 0 0 1-.35-1.11l5.76-11a.87.87 0 0 1 .5-.42.82.82 0 0 1 .65.09l10.38 6.09a.83.83 0 0 1 .25 1.16.82.82 0 0 1-1.13.29L7.28 60 1.93 70.17a.84.84 0 0 1-.74.44zM44.7 28.09H2.59A2.58 2.58 0 0 1 0 25.52V2.79A2.59 2.59 0 0 1 2.59.21H44.7a2.59 2.59 0 0 1 2.59 2.58v22.73a2.58 2.58 0 0 1-2.59 2.57zM2.59 1.79a1 1 0 0 0-1 1v22.73a1 1 0 0 0 1 1H44.7a1 1 0 0 0 1-1V2.79a1 1 0 0 0-1-1zM42.9 24.52H4.4a.79.79 0 0 1-.79-.79V4.57a.79.79 0 0 1 .79-.79h38.5a.8.8 0 0 1 .79.79v19.16a.79.79 0 0 1-.79.79zM5.19 23h36.92V5.36H5.19z"/><path class="fb829723-958a-49d7-bf14-e42b357b1ede" d="M23.65 20.47a6.19 6.19 0 0 1-6-6.32 6.18 6.18 0 0 1 6-6.31 6.18 6.18 0 0 1 6 6.31 6.19 6.19 0 0 1-6 6.32zm0-11a4.56 4.56 0 0 0-4.39 4.69 4.55 4.55 0 0 0 4.39 4.69 4.55 4.55 0 0 0 4.35-4.7 4.56 4.56 0 0 0-4.35-4.69zM37.7 68.65a1 1 0 0 1-.67-.26A1 1 0 0 1 37 67l14.82-16a1.39 1.39 0 0 0 .37-1l-.25-30a1 1 0 0 1 1-1 1 1 0 0 1 1 1l.22 30a3.29 3.29 0 0 1-.91 2.31l-14.83 16a1 1 0 0 1-.72.34z"/><path class="fb829723-958a-49d7-bf14-e42b357b1ede" d="M52.66 100c-22.4 0-41.9-16.79-46.38-39.94a1 1 0 0 1 .78-1.14 1 1 0 0 1 1.15.77C12.51 81.91 31.2 98 52.66 98 77.68 98 98 76.49 98 50S77.68 2 52.66 2a1 1 0 1 1 0-2C78.76 0 100 22.43 100 50s-21.24 50-47.34 50z"/><path d="M1.19 70.61a.75.75 0 0 1-.38-.1.81.81 0 0 1-.35-1.11l5.76-11a.87.87 0 0 1 .5-.42.82.82 0 0 1 .65.09l10.38 6.09a.83.83 0 0 1 .25 1.16.82.82 0 0 1-1.13.29L7.28 60 1.93 70.17a.84.84 0 0 1-.74.44z" fill="#e38025"/></g></g></svg>