<svg version="1.1" id="Layer_1" xmlns="http://www.w3.org/2000/svg" x="0" y="0" viewBox="0 0 100 100" xml:space="preserve"><style>.st0{fill:#e98024}</style><switch><g><path class="st0" d="M55.93 100c-.39 0-.75-.23-.9-.59-.17-.4-.06-.87.28-1.14 1.71-1.41 3.47-3.02 5.36-4.93.68-.68 1.33-1.37 1.98-2.08a.98.98 0 0 1 1.38-.07c.4.36.43.98.07 1.38-.66.72-1.34 1.44-2.03 2.14a78.22 78.22 0 0 1-3.01 2.89c2.69-.43 5.51-1.2 8.57-2.49a.977.977 0 1 1 .76 1.8c-4.49 1.89-8.11 2.56-12.34 3.07-.04.02-.08.02-.12.02zM48.25 98.81c-.21 0-.41-.07-.58-.19-2.34-1.73-4.64-3.77-7.25-6.4a62.684 62.684 0 0 1-8.53-10.72.974.974 0 0 1-.05-.95c.15-.3.44-.51.77-.55 5.05-.57 10.3-.89 15.63-.94.29.02.51.1.7.28.19.18.29.43.29.7v17.8c0 .37-.21.71-.54.88-.14.05-.29.09-.44.09zM34.4 81.78a60.73 60.73 0 0 0 7.4 9.06c1.95 1.97 3.72 3.59 5.46 4.99v-14.8c-4.36.07-8.68.32-12.86.75zM71.12 19.53c-.34 0-.66-.18-.84-.48a64.234 64.234 0 0 0-9.6-12.37c-1.9-1.91-3.65-3.53-5.37-4.93A.993.993 0 0 1 55.03.6a.98.98 0 0 1 1.02-.59C67.28 1.37 77.43 6.34 85.4 14.37c.11.11.21.22.32.33l.21.22c.24.25.33.6.24.93a.99.99 0 0 1-.67.69c-4.11 1.21-8.9 2.21-14.25 2.97-.04.01-.09.02-.13.02zM59.14 2.48c.95.87 1.92 1.8 2.92 2.82 3.67 3.69 6.88 7.79 9.55 12.19 4.32-.64 8.26-1.43 11.75-2.37C76.61 8.56 68.31 4.23 59.14 2.48zM30.74 78.62c-.36 0-.69-.19-.86-.51-4.44-8.18-6.83-17.03-7.11-26.31-.01-.27.09-.52.28-.71.18-.19.44-.3.7-.3h24.5c.54 0 .98.44.98.98V76.5c0 .54-.43.97-.97.98-6.01.06-11.86.44-17.39 1.13-.04 0-.09.01-.13.01zm-5.97-25.87c.4 8.38 2.59 16.39 6.52 23.84 5.1-.61 10.47-.96 15.97-1.05V52.75H24.77zM48.25 76.5zM48.25 49.22h-24.5a.96.96 0 0 1-.7-.3c-.18-.19-.28-.45-.28-.71.28-9.27 2.68-18.12 7.11-26.31.19-.35.58-.56.98-.51 5.53.69 11.38 1.06 17.39 1.13.54.01.97.44.97.98v24.74c.01.54-.43.98-.97.98zm-23.48-1.96h22.5V24.47c-5.5-.09-10.87-.44-15.97-1.05-3.94 7.45-6.13 15.46-6.53 23.84zM96.15 68.81a.981.981 0 0 1-.91-1.34c1.93-4.83 2.53-9.43 2.76-14.72H80.71c-.07 1.8-.21 5.07-.38 6.51-.06.54-.54.93-1.09.86a.98.98 0 0 1-.86-1.09c.19-1.65.35-5.4.4-7.3.02-.53.45-.95.98-.95h19.26a1 1 0 0 1 .71.3c.18.19.28.45.27.72-.21 5.93-.79 10.99-2.94 16.39a.97.97 0 0 1-.91.62zM51.75 98.81c-.15 0-.3-.03-.44-.1a.993.993 0 0 1-.54-.88v-17.8a.974.974 0 0 1 .99-.98c.73.01 5.63.04 7.84.14.54.02.96.48.94 1.02-.02.54-.48.97-1.02.94-1.43-.06-4.89-.1-6.78-.13v14.8c1.73-1.4 3.51-3.02 5.46-4.99.67-.67 2.07-2.11 2.7-2.81.36-.4.98-.43 1.38-.07.4.36.43.98.07 1.38-.65.72-2.07 2.18-2.76 2.88-2.62 2.64-4.93 4.67-7.25 6.4a1 1 0 0 1-.59.2zM28.88 19.52c-.05 0-.09 0-.14-.01-5.34-.76-10.14-1.76-14.25-2.97a.99.99 0 0 1-.67-.69c-.09-.33.01-.69.25-.93l.22-.23c.1-.11.2-.21.3-.32 7.98-8.03 18.13-13 29.36-14.36.43-.05.85.19 1.02.59.17.4.06.87-.28 1.14-1.71 1.41-3.47 3.02-5.37 4.94a63.627 63.627 0 0 0-9.6 12.37.97.97 0 0 1-.84.47zm-12.25-4.41c3.48.94 7.42 1.74 11.74 2.37 2.68-4.4 5.89-8.5 9.55-12.19 1.01-1.02 1.98-1.95 2.93-2.82-9.16 1.76-17.46 6.09-24.22 12.64z"/><path class="st0" d="M20.24 49.22H.98a1 1 0 0 1-.71-.3.995.995 0 0 1-.27-.72c.39-11.08 4.46-21.86 11.45-30.35a.99.99 0 0 1 1.06-.31c4.32 1.39 9.27 2.51 14.7 3.34.31.05.58.24.73.52.14.28.14.61 0 .89-4.19 8.13-6.44 16.86-6.71 25.96-.02.55-.46.97-.99.97zM2.01 47.26H19.3c.37-8.6 2.48-16.88 6.28-24.64-4.75-.78-9.13-1.79-13.03-3C6.2 27.53 2.57 37.05 2.01 47.26zM44.07 100c-.04 0-.08 0-.12-.01-5.66-.69-11.1-2.32-16.18-4.85a50.08 50.08 0 0 1-13.17-9.51c-.11-.11-.21-.22-.32-.34l-.21-.22c-.24-.25-.33-.6-.24-.93a.99.99 0 0 1 .67-.69c4.11-1.21 8.91-2.21 14.25-2.97.39-.06.78.13.98.47 2.66 4.48 5.89 8.64 9.6 12.37 1.9 1.91 3.65 3.53 5.37 4.93.34.28.45.74.28 1.14-.17.38-.52.61-.91.61zM16.63 84.89c3.54 3.43 7.58 6.29 12.01 8.49 3.88 1.93 7.97 3.32 12.21 4.14-.94-.87-1.91-1.8-2.92-2.81a65.898 65.898 0 0 1-9.55-12.19c-4.32.64-8.26 1.43-11.75 2.37zM12.21 82.51c-.29 0-.57-.13-.76-.36C4.46 73.66.39 62.88 0 51.8c-.01-.27.09-.52.27-.72s.44-.3.71-.3h19.26c.53 0 .96.42.98.95.26 9.1 2.52 17.83 6.71 25.96.14.28.15.61 0 .89-.14.28-.41.48-.73.52-5.44.83-10.39 1.96-14.7 3.35-.09.04-.19.06-.29.06zM2.01 52.75c.57 10.07 4.28 19.83 10.54 27.64 3.89-1.21 8.27-2.22 13.03-3-3.8-7.76-5.91-16.03-6.28-24.64H2.01zM48.25 20.95h-.01c-5.32-.06-10.58-.38-15.63-.94a.972.972 0 0 1-.77-.55c-.15-.3-.13-.66.05-.95a62.2 62.2 0 0 1 8.53-10.72c2.62-2.64 4.93-4.67 7.25-6.4.3-.22.69-.26 1.02-.09.33.17.54.51.54.88v17.79c0 .26-.1.51-.29.7-.19.18-.43.28-.69.28zM34.4 18.23c4.18.42 8.5.68 12.86.75V4.18c-1.73 1.4-3.5 3.02-5.46 4.99a60.845 60.845 0 0 0-7.4 9.06zM99.02 49.22H79.76c-.53 0-.97-.42-.98-.95-.26-9.1-2.52-17.83-6.7-25.96a.965.965 0 0 1 0-.89.95.95 0 0 1 .72-.52c5.44-.83 10.38-1.95 14.7-3.34.38-.12.8 0 1.06.31C95.54 26.34 99.61 37.12 100 48.2c.01.27-.09.52-.27.72a1 1 0 0 1-.71.3zM80.7 47.26h17.29c-.57-10.07-4.28-19.83-10.54-27.64-3.9 1.21-8.27 2.22-13.03 3 3.8 7.76 5.91 16.03 6.28 24.64z"/><path class="st0" d="M76.25 49.22h-24.5c-.54 0-.98-.44-.98-.98V23.5c0-.54.43-.97.97-.98 6.02-.06 11.87-.44 17.39-1.13.41-.05.79.15.98.51 4.44 8.18 6.83 17.03 7.11 26.31.01.26-.09.52-.28.71-.17.19-.42.3-.69.3zm-23.52-1.96h22.5c-.4-8.38-2.59-16.39-6.52-23.84-5.1.61-10.46.96-15.97 1.05v22.79zM59.77 77.61c-.01 0-6.98-.12-8.03-.13a.98.98 0 0 1-.97-.98V51.77c0-.54.44-.98.98-.98h24.5c.27 0 .52.11.7.3.18.19.28.45.28.71-.06 2.07-.34 6.76-.53 8.38-.07.54-.56.92-1.09.86a.986.986 0 0 1-.86-1.09c.16-1.3.41-5.34.48-7.19h-22.5v22.79c1.53.02 5.57.06 7.08.12.54.02.96.48.94 1.02a.97.97 0 0 1-.98.92zM51.75 20.95a.976.976 0 0 1-.98-.98V2.18c0-.37.21-.71.54-.88.33-.17.73-.13 1.02.09 2.33 1.73 4.63 3.76 7.25 6.4 3.22 3.25 6.09 6.85 8.53 10.72.18.29.2.64.05.95s-.44.51-.77.55c-5.05.57-10.31.89-15.63.95 0-.01 0-.01-.01-.01zm.98-16.77v14.8c4.37-.07 8.68-.33 12.86-.75a60.115 60.115 0 0 0-7.4-9.06c-1.95-1.97-3.72-3.59-5.46-4.99z"/><g><path class="st0" d="M83.51 85.78c0-.91-.4-1.82-1.01-2.53-1.01-.81-2.23-1.52-3.44-1.82-1.52-.4-3.04-1.11-4.25-2.13-1.01-.91-1.52-2.33-1.42-3.64-.1-1.32.51-2.63 1.42-3.54 1.01-1.01 2.33-1.62 3.74-1.62v-2.83h1.42v2.63c1.42.1 2.83.71 3.74 1.82a6.547 6.547 0 0 1 1.32 4.35l-.1.1h-1.62c.1-1.21-.3-2.43-1.11-3.44-.81-.91-1.92-1.32-3.04-1.32-1.11-.1-2.23.3-3.04 1.11-.71.71-1.11 1.62-1.11 2.63 0 .91.3 1.82.91 2.53 1.01.81 2.23 1.52 3.54 1.82 1.52.4 3.04 1.21 4.25 2.23.91.91 1.42 2.23 1.42 3.54 0 1.32-.51 2.63-1.42 3.64-1.11 1.01-2.43 1.52-3.85 1.62v2.63h-1.42v-2.63c-1.52 0-3.04-.61-4.15-1.62-1.11-1.11-1.72-2.73-1.62-4.35v-.1h1.62c-.1 1.32.4 2.63 1.42 3.54.91.71 2.13 1.11 3.34 1.11 1.21.1 2.33-.3 3.24-1.11.71-.6 1.12-1.61 1.22-2.62z"/><path class="st0" d="M79.86 93.81h-1.42c-.13 0-.24-.11-.24-.24v-2.4a6.476 6.476 0 0 1-4.07-1.68c-1.17-1.17-1.8-2.86-1.7-4.54v-.09c0-.13.11-.24.24-.24h1.62c.07 0 .13.03.18.08.04.05.07.11.06.18-.1 1.25.4 2.5 1.34 3.35.86.66 2.02 1.05 3.18 1.05 1.14.09 2.2-.27 3.08-1.05.62-.53 1.03-1.42 1.13-2.47 0-.8-.35-1.66-.95-2.36-1.07-.85-2.26-1.48-3.32-1.75-1.67-.45-3.17-1.2-4.35-2.17-1.04-.94-1.61-2.41-1.5-3.85-.1-1.27.45-2.66 1.49-3.69 1.03-1.03 2.33-1.62 3.68-1.68v-2.6c0-.13.11-.24.24-.24h1.42c.13 0 .24.11.24.24v2.41c1.5.16 2.83.84 3.69 1.89a6.791 6.791 0 0 1 1.37 4.52c0 .06-.03.11-.07.15l-.1.1c-.04.05-.11.07-.17.07h-1.62a.25.25 0 0 1-.18-.08.202.202 0 0 1-.06-.18c.09-1.14-.28-2.3-1.06-3.27-.7-.79-1.72-1.23-2.85-1.23a3.57 3.57 0 0 0-2.87 1.04c-.68.68-1.04 1.53-1.04 2.46 0 .89.3 1.73.85 2.37 1.11.88 2.27 1.48 3.42 1.75 1.54.41 3.08 1.22 4.35 2.27.96.96 1.5 2.31 1.5 3.73 0 1.37-.54 2.76-1.48 3.8a6.481 6.481 0 0 1-3.78 1.68v2.41c-.01.15-.11.26-.25.26zm-1.17-.48h.94v-2.39c0-.12.1-.23.22-.24 1.43-.1 2.68-.63 3.7-1.56.84-.94 1.34-2.21 1.34-3.47 0-1.27-.5-2.53-1.35-3.37-1.2-1-2.68-1.77-4.14-2.16-1.21-.28-2.43-.91-3.63-1.87a4.1 4.1 0 0 1-1-2.72c0-1.06.41-2.03 1.18-2.8.86-.86 2.03-1.29 3.23-1.18 1.25 0 2.39.5 3.19 1.4.8 1 1.22 2.19 1.19 3.36h1.24c.06-1.45-.39-2.89-1.28-4.07-.81-.99-2.11-1.62-3.57-1.73a.24.24 0 0 1-.22-.24V67.9h-.94v2.6c0 .13-.11.24-.24.24-1.31 0-2.58.55-3.58 1.55-.93.93-1.44 2.19-1.35 3.35-.1 1.33.41 2.65 1.34 3.49 1.11.93 2.55 1.64 4.15 2.07 1.44.36 2.71 1.21 3.53 1.87.71.82 1.1 1.8 1.1 2.72v.02c-.12 1.17-.59 2.18-1.3 2.79-.98.87-2.17 1.28-3.41 1.17-1.24 0-2.51-.42-3.46-1.16a4.586 4.586 0 0 1-1.52-3.49h-1.14c-.05 1.51.52 3.01 1.56 4.05 1.08.98 2.53 1.55 3.98 1.55.13 0 .24.11.24.24v2.37zm4.82-7.55z"/><g><path class="st0" d="M79.5 100C68.2 100 59 90.8 59 79.5S68.2 59 79.5 59 100 68.2 100 79.5 90.8 100 79.5 100zm0-39.05c-10.23 0-18.55 8.32-18.55 18.55s8.32 18.55 18.55 18.55 18.55-8.32 18.55-18.55-8.32-18.55-18.55-18.55z"/></g></g></g></switch></svg>