<svg version="1.1" id="Layer_1" xmlns="http://www.w3.org/2000/svg" x="0" y="0" viewBox="0 0 100 100" xml:space="preserve"><style>.st0{fill:#e98024}</style><switch><g><path class="st0" d="M77 46c-12.7 0-23-10.3-23-23S64.3 0 77 0s23 10.3 23 23-10.3 23-23 23zm0-44.1c-11.6 0-21.1 9.4-21.1 21S65.3 44 76.9 44 98 34.7 98 23c0-11.6-9.4-21-21-21.1z"/><path class="st0" d="M84.9 32.2c-.2 0-.5-.1-.7-.3L68.1 15.8c-.3-.5-.2-1.1.3-1.4.4-.2.8-.2 1.2 0l16.1 16.1c.4.4.4 1.1-.1 1.5-.2.1-.5.2-.7.2z"/><path class="st0" d="M68.9 32.2c-.3 0-.5-.1-.7-.3-.4-.4-.4-1 0-1.4L84 14.6c.3-.5.9-.6 1.4-.3.5.3.6.9.3 1.4l-.3.3-15.8 15.9c-.2.2-.5.3-.7.3zM23 46C10.3 46 0 35.7 0 23S10.3 0 23 0s23 10.3 23 23-10.3 23-23 23zm0-44.1C11.4 1.9 1.9 11.4 1.9 23S11.4 44.1 23 44.1 44.1 34.6 44.1 23C44 11.4 34.6 2 23 1.9z"/><path class="st0" d="M17.9 32.2c-.2 0-.5-.1-.7-.3l-6-6.1c-.3-.4-.2-1 .3-1.3.3-.2.7-.2 1 0l5.4 5.5 15.3-15.5c.4-.4.9-.4 1.3 0 .3.4.3.9 0 1.3L18.5 32c-.1.1-.4.2-.6.2zM69.1 100H50.3c-3.6 0-4.7-3-5.2-4.5-.1-.2-.2-.4-.3-.7-.6-1-4.2-8.3-4.3-8.7 0-.1-.1-.1-.1-.2-.9-3.4-1.9-7.8-2.7-11.6-.6-2.9-1.2-5.4-1.6-6.9-.3-.9-.1-2 .6-2.7 1-.8 2.3-1 3.5-.5 1.7.6 3.1 1.7 4 3.1V41.2c-.2-2.7 1.9-5 4.5-5.2 2.7-.2 5 1.9 5.2 4.6v12.9c.9-.9 2.1-1.5 3.4-1.5 2.3.1 4.3 1.7 4.7 4 .9-1 2.2-1.6 3.5-1.6 2.3.1 4.3 1.8 4.7 4.1 1.6-1.8 4.3-1.9 6.1-.2l.1.1c1 1.1 1.5 2.5 1.5 3.9l-.6 16.3v.2L74 94.6c-.5 2.6-1.5 5.4-4.9 5.4zM42.3 85.4c.4.8 3.7 7.5 4.2 8.5.1.3.3.6.4.9.6 1.7 1.3 3.2 3.4 3.2h18.9c1.6 0 2.4-1 3.1-3.9l3.2-15.7.5-16.2c0-.9-.3-1.8-.9-2.5-.4-.4-1-.7-1.6-.7-1.7 0-2.5 1.7-2.5 3.2v5.1c0 .6-.4 1-1 1h-.2l-.5-.1c-.5-.1-.8-.5-.8-1v-7.7c.2-1.6-1-3-2.6-3.2-1.6-.2-3 1-3.2 2.6v6.8c0 .6-.4 1-1 1h-.2l-.5-.1c-.5-.1-.8-.5-.8-1v-8.5c.2-1.6-1-3-2.6-3.2-1.6-.2-3 1-3.2 2.6V65c0 .5-.3.9-.8 1l-.4.1c-.5.1-1.1-.2-1.2-.8V41.2c.1-1.6-1.1-3-2.7-3.2-1.6-.1-3 1.1-3.1 2.7v32c0 .3-.1.6-.4.8-.2.2-.5.3-.8.2l-.3-.1c-.4-.1-.7-.4-.8-.8l-.2-1.8c-.4-2.2-2-4-4.1-4.8-.5-.2-1.1-.2-1.6 0-.2.2-.1.6 0 .8.4 1.6 1 4.1 1.6 7 .8 3.8 1.8 8.1 2.7 11.4zm34.1-6.9z"/></g></switch></svg>