<?xml version="1.0" encoding="utf-8"?>
<!-- Generator: Adobe Illustrator 23.0.1, SVG Export Plug-In . SVG Version: 6.00 Build 0)  -->
<svg version="1.1" id="Layer_1" xmlns="http://www.w3.org/2000/svg" xmlns:xlink="http://www.w3.org/1999/xlink" x="0px" y="0px"
	 viewBox="0 0 99.8 100" style="enable-background:new 0 0 99.8 100;" xml:space="preserve">
<style type="text/css">
	.st0{fill:#E58025;}
	.st1{fill:#F2F2F2;}
</style>
<title>assets</title>
<g id="f9444b65-7e54-4feb-9d44-f103fa4cdad1">
	<g id="bb6caeeb-2661-4599-af93-43a79b00ac67">
		<path class="st0" d="M49.7,87.2c-20.6,0-37.2-16.7-37.2-37.3c0-20.6,16.7-37.2,37.3-37.2C70.3,12.7,87,29.3,87,49.9
			C87,70.5,70.3,87.2,49.7,87.2z M49.7,14.6c-19.5,0-35.3,15.8-35.3,35.3c0,19.5,15.8,35.3,35.3,35.3C69.2,85.2,85,69.4,85,49.9
			C85,30.4,69.2,14.6,49.7,14.6z"/>
		<path class="st0" d="M49.7,87.2c-20.6,0-37.2-16.7-37.2-37.3c0-20.6,16.7-37.2,37.3-37.2C70.3,12.7,87,29.3,87,49.9
			C87,70.5,70.3,87.2,49.7,87.2z M49.7,14.6c-19.5,0-35.3,15.8-35.3,35.3c0,19.5,15.8,35.3,35.3,35.3C69.2,85.2,85,69.4,85,49.9
			C85,30.4,69.2,14.6,49.7,14.6z"/>
		<path class="st0" d="M49.7,61.3c-6.4,0-11.5-5.1-11.5-11.5s5.1-11.5,11.5-11.5s11.5,5.1,11.5,11.5l0,0
			C61.2,56.1,56,61.3,49.7,61.3z M49.7,40.3c-5.3,0-9.5,4.3-9.5,9.5s4.3,9.5,9.5,9.5s9.5-4.3,9.5-9.5C59.2,44.5,55,40.3,49.7,40.3
			C49.7,40.2,49.7,40.2,49.7,40.3L49.7,40.3z"/>
		<path class="st0" d="M49.7,61.3c-6.4,0-11.5-5.1-11.5-11.5s5.1-11.5,11.5-11.5s11.5,5.1,11.5,11.5l0,0
			C61.2,56.1,56,61.3,49.7,61.3z M49.7,40.3c-5.3,0-9.5,4.3-9.5,9.5s4.3,9.5,9.5,9.5s9.5-4.3,9.5-9.5C59.2,44.5,55,40.3,49.7,40.3
			C49.7,40.2,49.7,40.2,49.7,40.3L49.7,40.3z"/>
		<circle class="st0" cx="13.6" cy="50" r="12.6"/>
		<path class="st0" d="M13.6,63.6C6.1,63.6,0,57.5,0,50s6.1-13.6,13.6-13.6S27.2,42.5,27.2,50S21.1,63.6,13.6,63.6L13.6,63.6z
			 M13.6,38.4C7.2,38.4,2,43.6,2,50s5.2,11.6,11.7,11.6S25.3,56.4,25.3,50c0,0,0,0,0,0C25.2,43.6,20,38.4,13.6,38.4z"/>
		<circle class="st1" cx="13.6" cy="50" r="12.6"/>
		<path class="st0" d="M13.6,63.6C6.1,63.6,0,57.5,0,50s6.1-13.6,13.6-13.6S27.2,42.5,27.2,50S21.1,63.6,13.6,63.6L13.6,63.6z
			 M13.6,38.4C7.2,38.4,2,43.6,2,50s5.2,11.6,11.7,11.6S25.3,56.4,25.3,50c0,0,0,0,0,0C25.2,43.6,20,38.4,13.6,38.4z"/>
		<circle class="st0" cx="86.2" cy="49.8" r="12.6"/>
		<path class="st0" d="M86.2,63.4c-7.5,0-13.6-6.1-13.6-13.6c0-7.5,6.1-13.6,13.6-13.6c7.5,0,13.6,6.1,13.6,13.6c0,0,0,0,0,0
			C99.8,57.3,93.7,63.4,86.2,63.4z M86.2,38.1c-6.4,0-11.6,5.2-11.6,11.6s5.2,11.7,11.6,11.7c6.4,0,11.7-5.2,11.7-11.7
			C97.8,43.3,92.6,38.1,86.2,38.1z"/>
		<circle class="st1" cx="86.2" cy="49.8" r="12.6"/>
		<path class="st0" d="M86.2,63.4c-7.5,0-13.6-6.1-13.6-13.6c0-7.5,6.1-13.6,13.6-13.6c7.5,0,13.6,6.1,13.6,13.6c0,0,0,0,0,0
			C99.8,57.3,93.7,63.4,86.2,63.4z M86.2,38.1c-6.4,0-11.6,5.2-11.6,11.6s5.2,11.7,11.6,11.7c6.4,0,11.7-5.2,11.7-11.7
			C97.8,43.3,92.6,38.1,86.2,38.1z"/>
		<circle class="st0" cx="49.7" cy="13.6" r="12.6"/>
		<path class="st0" d="M49.7,27.2c-7.5,0-13.6-6.1-13.6-13.6C36.1,6.1,42.1,0,49.7,0s13.6,6.1,13.6,13.6c0,0,0,0,0,0
			C63.3,21.1,57.2,27.2,49.7,27.2z M49.7,2C43.2,2,38,7.2,38,13.6c0,6.4,5.2,11.7,11.6,11.7c6.4,0,11.7-5.2,11.7-11.6c0,0,0,0,0-0.1
			C61.3,7.2,56.1,2,49.7,2z"/>
		<circle class="st1" cx="49.7" cy="13.6" r="12.6"/>
		<path class="st0" d="M49.7,27.2c-7.5,0-13.6-6.1-13.6-13.6C36.1,6.1,42.1,0,49.7,0s13.6,6.1,13.6,13.6c0,0,0,0,0,0
			C63.3,21.1,57.2,27.2,49.7,27.2z M49.7,2C43.2,2,38,7.2,38,13.6c0,6.4,5.2,11.7,11.6,11.7c6.4,0,11.7-5.2,11.7-11.6c0,0,0,0,0-0.1
			C61.3,7.2,56.1,2,49.7,2z"/>
		<circle class="st0" cx="49.7" cy="86.4" r="12.6"/>
		<path class="st0" d="M49.7,100c-7.5,0-13.6-6.1-13.6-13.6c0-7.5,6.1-13.6,13.6-13.6c7.5,0,13.6,6.1,13.6,13.6c0,0,0,0,0,0
			C63.3,93.9,57.2,100,49.7,100z M49.7,74.8C43.2,74.7,38,80,38,86.4C38,92.8,43.2,98,49.7,98s11.7-5.2,11.7-11.6c0,0,0,0,0,0
			C61.3,80,56.1,74.8,49.7,74.8z"/>
		<circle class="st1" cx="49.7" cy="86.4" r="12.6"/>
		<path class="st0" d="M49.7,100c-7.5,0-13.6-6.1-13.6-13.6c0-7.5,6.1-13.6,13.6-13.6c7.5,0,13.6,6.1,13.6,13.6c0,0,0,0,0,0
			C63.3,93.9,57.2,100,49.7,100z M49.7,74.8C43.2,74.7,38,80,38,86.4C38,92.8,43.2,98,49.7,98s11.7-5.2,11.7-11.6c0,0,0,0,0,0
			C61.3,80,56.1,74.8,49.7,74.8z"/>
		<path class="st0" d="M50.4,85.4L50.4,85.4v-2.6c0.7,0.1,1.4,0.4,2,0.8l0.9-1.3c-0.9-0.6-1.9-1-2.9-1.1v-0.7h-0.9v0.7
			c-0.8,0-1.6,0.3-2.2,0.8c-0.6,0.5-0.9,1.2-0.8,2c0,0.7,0.2,1.4,0.7,1.8c0.7,0.5,1.5,0.8,2.3,1v2.7c-0.9-0.2-1.8-0.6-2.5-1.2
			l-1,1.2c1,0.9,2.2,1.4,3.5,1.5v1h0.9v-1c0.8,0,1.7-0.3,2.3-0.8c0.6-0.5,0.9-1.2,0.9-2c0-0.7-0.2-1.4-0.8-1.9
			C52.1,85.9,51.3,85.5,50.4,85.4z M49.5,85.1c-0.4-0.1-0.8-0.3-1.1-0.5c-0.2-0.2-0.3-0.5-0.3-0.8c0-0.3,0.1-0.6,0.4-0.8
			c0.3-0.2,0.6-0.4,1-0.4L49.5,85.1z M51.5,89.2c-0.3,0.2-0.7,0.4-1.1,0.4v-2.5c0.4,0.1,0.8,0.3,1.2,0.5c0.2,0.2,0.3,0.5,0.3,0.8
			C51.8,88.8,51.7,89.1,51.5,89.2L51.5,89.2z"/>
		<path class="st0" d="M50.4,85.4L50.4,85.4v-2.6c0.7,0.1,1.4,0.4,2,0.8l0.9-1.3c-0.9-0.6-1.9-1-2.9-1.1v-0.7h-0.9v0.7
			c-0.8,0-1.6,0.3-2.2,0.8c-0.6,0.5-0.9,1.2-0.8,2c0,0.7,0.2,1.4,0.7,1.8c0.7,0.5,1.5,0.8,2.3,1v2.7c-0.9-0.2-1.8-0.6-2.5-1.2
			l-1,1.2c1,0.9,2.2,1.4,3.5,1.5v1h0.9v-1c0.8,0,1.7-0.3,2.3-0.8c0.6-0.5,0.9-1.2,0.9-2c0-0.7-0.2-1.4-0.8-1.9
			C52.1,85.9,51.3,85.5,50.4,85.4z M49.5,85.1c-0.4-0.1-0.8-0.3-1.1-0.5c-0.2-0.2-0.3-0.5-0.3-0.8c0-0.3,0.1-0.6,0.4-0.8
			c0.3-0.2,0.6-0.4,1-0.4L49.5,85.1z M51.5,89.2c-0.3,0.2-0.7,0.4-1.1,0.4v-2.5c0.4,0.1,0.8,0.3,1.2,0.5c0.2,0.2,0.3,0.5,0.3,0.8
			C51.8,88.8,51.7,89.1,51.5,89.2L51.5,89.2z"/>
		<path class="st0" d="M18.8,53.8l-1.1-1.4c-0.4,0.4-0.8,0.7-1.3,1c-0.5,0.2-1,0.3-1.5,0.3c-1.1,0-2.1-0.6-2.6-1.7h3.7v-1.4h-4.1
			c0-0.2,0-0.5-0.1-0.7c0-0.3,0-0.5,0-0.6h4.1v-1.4h-3.8c0.4-1.1,1.6-1.9,2.8-1.9c0.5,0,1.1,0.1,1.6,0.3c0.5,0.3,1,0.6,1.3,1
			l1.1-1.4c-1-1.2-2.5-1.9-4-1.8c-1.1,0-2.2,0.3-3.1,1C11,46,10.3,47,10,48.1H8.3v1.4h1.4c0,0.1,0,0.3,0,0.6c0,0.3,0,0.5,0.1,0.8
			H8.3v1.4H10c0.3,1,1,1.9,1.9,2.6c0.9,0.6,1.9,1,2.9,1C16.3,55.8,17.8,55.1,18.8,53.8z"/>
		<path class="st0" d="M18.8,53.8l-1.1-1.4c-0.4,0.4-0.8,0.7-1.3,1c-0.5,0.2-1,0.3-1.5,0.3c-1.1,0-2.1-0.6-2.6-1.7h3.7v-1.4h-4.1
			c0-0.2,0-0.5-0.1-0.7c0-0.3,0-0.5,0-0.6h4.1v-1.4h-3.8c0.4-1.1,1.6-1.9,2.8-1.9c0.5,0,1.1,0.1,1.6,0.3c0.5,0.3,1,0.6,1.3,1
			l1.1-1.4c-1-1.2-2.5-1.9-4-1.8c-1.1,0-2.2,0.3-3.1,1C11,46,10.3,47,10,48.1H8.3v1.4h1.4c0,0.1,0,0.3,0,0.6c0,0.3,0,0.5,0.1,0.8
			H8.3v1.4H10c0.3,1,1,1.9,1.9,2.6c0.9,0.6,1.9,1,2.9,1C16.3,55.8,17.8,55.1,18.8,53.8z"/>
		<polygon class="st0" points="46.3,13.4 46.3,14.7 49,14.7 49.1,14.8 49.1,15.6 46.3,15.6 46.3,16.9 49.1,16.9 49.1,18.7 
			50.9,18.7 50.9,16.9 53.6,16.9 53.6,15.6 50.9,15.6 50.9,14.8 51,14.7 53.6,14.7 53.6,13.4 51.8,13.4 54.8,8.5 52.9,8.5 
			50.1,13.2 50,13.2 47.2,8.5 45.4,8.5 48.3,13.4 		"/>
		<polygon class="st0" points="46.3,13.4 46.3,14.7 49,14.7 49.1,14.8 49.1,15.6 46.3,15.6 46.3,16.9 49.1,16.9 49.1,18.7 
			50.9,18.7 50.9,16.9 53.6,16.9 53.6,15.6 50.9,15.6 50.9,14.8 51,14.7 53.6,14.7 53.6,13.4 51.8,13.4 54.8,8.5 52.9,8.5 
			50.1,13.2 50,13.2 47.2,8.5 45.4,8.5 48.3,13.4 		"/>
		<path class="st0" d="M86.6,46.7c0.3-0.3,0.7-0.4,1.2-0.4c0.7,0,1.3,0.4,1.5,1l1.2-1c-0.6-1-1.7-1.7-2.8-1.6
			c-1.7-0.1-3.1,1.1-3.2,2.8c0,0.2,0,0.4,0,0.6v1.8h-1.2v1.4h1.2v2.6h-1.2v1.5h7.2v-1.5h-4.3v-2.6h2.4v-1.4h-2.4v-1.9
			C86.1,47.5,86.2,47,86.6,46.7z"/>
		<path class="st0" d="M86.6,46.7c0.3-0.3,0.7-0.4,1.2-0.4c0.7,0,1.3,0.4,1.5,1l1.2-1c-0.6-1-1.7-1.7-2.8-1.6
			c-1.7-0.1-3.1,1.1-3.2,2.8c0,0.2,0,0.4,0,0.6v1.8h-1.2v1.4h1.2v2.6h-1.2v1.5h7.2v-1.5h-4.3v-2.6h2.4v-1.4h-2.4v-1.9
			C86.1,47.5,86.2,47,86.6,46.7z"/>
	</g>
</g>
</svg>
