<svg xmlns="http://www.w3.org/2000/svg" width="99.78" height="100" viewBox="0 0 99.78 100"><defs><style>.a60fc5bb-a54d-4dcb-9c33-9ffe42c8e9ae{fill:#e58025;}.edd6be02-56db-4101-a854-d93c03864d9e{fill:#fff;}</style></defs><title>assets</title><g id="f9444b65-7e54-4feb-9d44-f103fa4cdad1" data-name="Layer 2"><g id="bb6caeeb-2661-4599-af93-43a79b00ac67" data-name="Layer 1"><path class="a60fc5bb-a54d-4dcb-9c33-9ffe42c8e9ae" d="M49.68,87.17A37.27,37.27,0,1,1,87,49.9,37.31,37.31,0,0,1,49.68,87.17Zm0-72.58A35.31,35.31,0,1,0,85,49.9,35.35,35.35,0,0,0,49.68,14.59Z"/><path class="a60fc5bb-a54d-4dcb-9c33-9ffe42c8e9ae" d="M49.68,87.17A37.27,37.27,0,1,1,87,49.9,37.31,37.31,0,0,1,49.68,87.17Zm0-72.58A35.31,35.31,0,1,0,85,49.9,35.35,35.35,0,0,0,49.68,14.59Z"/><path class="a60fc5bb-a54d-4dcb-9c33-9ffe42c8e9ae" d="M49.68,61.28a11.5,11.5,0,1,1,11.5-11.5A11.51,11.51,0,0,1,49.68,61.28Zm0-21a9.54,9.54,0,1,0,9.54,9.54A9.55,9.55,0,0,0,49.68,40.24Z"/><path class="a60fc5bb-a54d-4dcb-9c33-9ffe42c8e9ae" d="M49.68,61.28a11.5,11.5,0,1,1,11.5-11.5A11.51,11.51,0,0,1,49.68,61.28Zm0-21a9.54,9.54,0,1,0,9.54,9.54A9.55,9.55,0,0,0,49.68,40.24Z"/><circle class="a60fc5bb-a54d-4dcb-9c33-9ffe42c8e9ae" cx="13.6" cy="50.01" r="12.62"/><path class="a60fc5bb-a54d-4dcb-9c33-9ffe42c8e9ae" d="M13.6,63.61A13.61,13.61,0,1,1,27.21,50,13.61,13.61,0,0,1,13.6,63.61Zm0-25.25A11.65,11.65,0,1,0,25.25,50,11.66,11.66,0,0,0,13.6,38.36Z"/><circle class="edd6be02-56db-4101-a854-d93c03864d9e" cx="13.6" cy="50.01" r="12.62"/><path class="a60fc5bb-a54d-4dcb-9c33-9ffe42c8e9ae" d="M13.6,63.61A13.61,13.61,0,1,1,27.21,50,13.61,13.61,0,0,1,13.6,63.61Zm0-25.25A11.65,11.65,0,1,0,25.25,50,11.66,11.66,0,0,0,13.6,38.36Z"/><circle class="a60fc5bb-a54d-4dcb-9c33-9ffe42c8e9ae" cx="86.17" cy="49.78" r="12.62"/><path class="a60fc5bb-a54d-4dcb-9c33-9ffe42c8e9ae" d="M86.17,63.38a13.61,13.61,0,1,1,13.61-13.6A13.61,13.61,0,0,1,86.17,63.38Zm0-25.25A11.65,11.65,0,1,0,97.82,49.78,11.66,11.66,0,0,0,86.17,38.13Z"/><circle class="edd6be02-56db-4101-a854-d93c03864d9e" cx="86.17" cy="49.78" r="12.62"/><path class="a60fc5bb-a54d-4dcb-9c33-9ffe42c8e9ae" d="M86.17,63.38a13.61,13.61,0,1,1,13.61-13.6A13.61,13.61,0,0,1,86.17,63.38Zm0-25.25A11.65,11.65,0,1,0,97.82,49.78,11.66,11.66,0,0,0,86.17,38.13Z"/><circle class="a60fc5bb-a54d-4dcb-9c33-9ffe42c8e9ae" cx="49.68" cy="13.6" r="12.62"/><path class="a60fc5bb-a54d-4dcb-9c33-9ffe42c8e9ae" d="M49.68,27.21A13.61,13.61,0,1,1,63.28,13.6,13.62,13.62,0,0,1,49.68,27.21ZM49.68,2A11.65,11.65,0,1,0,61.32,13.6,11.66,11.66,0,0,0,49.68,2Z"/><circle class="edd6be02-56db-4101-a854-d93c03864d9e" cx="49.68" cy="13.6" r="12.62"/><path class="a60fc5bb-a54d-4dcb-9c33-9ffe42c8e9ae" d="M49.68,27.21A13.61,13.61,0,1,1,63.28,13.6,13.62,13.62,0,0,1,49.68,27.21ZM49.68,2A11.65,11.65,0,1,0,61.32,13.6,11.66,11.66,0,0,0,49.68,2Z"/><circle class="a60fc5bb-a54d-4dcb-9c33-9ffe42c8e9ae" cx="49.68" cy="86.4" r="12.62"/><path class="a60fc5bb-a54d-4dcb-9c33-9ffe42c8e9ae" d="M49.68,100a13.61,13.61,0,1,1,13.6-13.6A13.62,13.62,0,0,1,49.68,100Zm0-25.25A11.65,11.65,0,1,0,61.32,86.4,11.66,11.66,0,0,0,49.68,74.75Z"/><circle class="edd6be02-56db-4101-a854-d93c03864d9e" cx="49.68" cy="86.4" r="12.62"/><path class="a60fc5bb-a54d-4dcb-9c33-9ffe42c8e9ae" d="M49.68,100a13.61,13.61,0,1,1,13.6-13.6A13.62,13.62,0,0,1,49.68,100Zm0-25.25A11.65,11.65,0,1,0,61.32,86.4,11.66,11.66,0,0,0,49.68,74.75Z"/><path class="a60fc5bb-a54d-4dcb-9c33-9ffe42c8e9ae" d="M50.39,85.38h0V82.74a4.54,4.54,0,0,1,2,.81l.91-1.29a5.94,5.94,0,0,0-2.93-1.06v-.72h-.9v.71a3.4,3.4,0,0,0-2.22.84,2.57,2.57,0,0,0-.85,2,2.26,2.26,0,0,0,.74,1.84,5.73,5.73,0,0,0,2.33,1v2.73A5,5,0,0,1,47,88.37l-1,1.22a6,6,0,0,0,3.46,1.54v1h.9v-1a3.68,3.68,0,0,0,2.31-.84,2.58,2.58,0,0,0,.87-2,2.32,2.32,0,0,0-.76-1.88A5.77,5.77,0,0,0,50.39,85.38Zm-.94-.25a2.9,2.9,0,0,1-1.07-.53,1,1,0,0,1-.28-.75,1,1,0,0,1,.36-.78,1.65,1.65,0,0,1,1-.38Zm2,4.11a2,2,0,0,1-1.07.4V87.1a3.13,3.13,0,0,1,1.16.54,1.07,1.07,0,0,1,.31.79A1,1,0,0,1,51.42,89.24Z"/><path class="a60fc5bb-a54d-4dcb-9c33-9ffe42c8e9ae" d="M50.39,85.38h0V82.74a4.54,4.54,0,0,1,2,.81l.91-1.29a5.94,5.94,0,0,0-2.93-1.06v-.72h-.9v.71a3.4,3.4,0,0,0-2.22.84,2.57,2.57,0,0,0-.85,2,2.26,2.26,0,0,0,.74,1.84,5.73,5.73,0,0,0,2.33,1v2.73A5,5,0,0,1,47,88.37l-1,1.22a6,6,0,0,0,3.46,1.54v1h.9v-1a3.68,3.68,0,0,0,2.31-.84,2.58,2.58,0,0,0,.87-2,2.32,2.32,0,0,0-.76-1.88A5.77,5.77,0,0,0,50.39,85.38Zm-.94-.25a2.9,2.9,0,0,1-1.07-.53,1,1,0,0,1-.28-.75,1,1,0,0,1,.36-.78,1.65,1.65,0,0,1,1-.38Zm2,4.11a2,2,0,0,1-1.07.4V87.1a3.13,3.13,0,0,1,1.16.54,1.07,1.07,0,0,1,.31.79A1,1,0,0,1,51.42,89.24Z"/><path class="a60fc5bb-a54d-4dcb-9c33-9ffe42c8e9ae" d="M18.75,53.85l-1.14-1.37a5.55,5.55,0,0,1-1.3,1,3.08,3.08,0,0,1-1.48.33,2.79,2.79,0,0,1-2.6-1.66H15.9V50.8H11.8a5.74,5.74,0,0,1-.05-.74c0-.26,0-.45,0-.58H15.9V48.1H12.1a2.9,2.9,0,0,1,2.78-1.86,3.62,3.62,0,0,1,1.56.3,4.67,4.67,0,0,1,1.33,1.05l1.14-1.43a4.89,4.89,0,0,0-4-1.84,4.88,4.88,0,0,0-3.05,1A5.48,5.48,0,0,0,10,48.1H8.3v1.38H9.71c0,.12,0,.3,0,.56a6.47,6.47,0,0,0,.05.76H8.3v1.38H10a5.26,5.26,0,0,0,1.85,2.56,4.85,4.85,0,0,0,2.94.95A4.78,4.78,0,0,0,18.75,53.85Z"/><path class="a60fc5bb-a54d-4dcb-9c33-9ffe42c8e9ae" d="M18.75,53.85l-1.14-1.37a5.55,5.55,0,0,1-1.3,1,3.08,3.08,0,0,1-1.48.33,2.79,2.79,0,0,1-2.6-1.66H15.9V50.8H11.8a5.74,5.74,0,0,1-.05-.74c0-.26,0-.45,0-.58H15.9V48.1H12.1a2.9,2.9,0,0,1,2.78-1.86,3.62,3.62,0,0,1,1.56.3,4.67,4.67,0,0,1,1.33,1.05l1.14-1.43a4.89,4.89,0,0,0-4-1.84,4.88,4.88,0,0,0-3.05,1A5.48,5.48,0,0,0,10,48.1H8.3v1.38H9.71c0,.12,0,.3,0,.56a6.47,6.47,0,0,0,.05.76H8.3v1.38H10a5.26,5.26,0,0,0,1.85,2.56,4.85,4.85,0,0,0,2.94.95A4.78,4.78,0,0,0,18.75,53.85Z"/><polygon class="a60fc5bb-a54d-4dcb-9c33-9ffe42c8e9ae" points="46.34 13.45 46.34 14.72 49.04 14.72 49.09 14.81 49.09 15.59 46.34 15.59 46.34 16.87 49.09 16.87 49.09 18.66 50.9 18.66 50.9 16.87 53.64 16.87 53.64 15.59 50.92 15.59 50.92 14.81 50.96 14.72 53.64 14.72 53.64 13.45 51.75 13.45 54.76 8.54 52.92 8.54 50.08 13.19 49.98 13.19 47.24 8.54 45.37 8.54 48.28 13.45 46.34 13.45"/><polygon class="a60fc5bb-a54d-4dcb-9c33-9ffe42c8e9ae" points="46.34 13.45 46.34 14.72 49.04 14.72 49.09 14.81 49.09 15.59 46.34 15.59 46.34 16.87 49.09 16.87 49.09 18.66 50.9 18.66 50.9 16.87 53.64 16.87 53.64 15.59 50.92 15.59 50.92 14.81 50.96 14.72 53.64 14.72 53.64 13.45 51.75 13.45 54.76 8.54 52.92 8.54 50.08 13.19 49.98 13.19 47.24 8.54 45.37 8.54 48.28 13.45 46.34 13.45"/><path class="a60fc5bb-a54d-4dcb-9c33-9ffe42c8e9ae" d="M86.56,46.65a1.66,1.66,0,0,1,1.15-.4,1.77,1.77,0,0,1,1.54,1l1.2-.95a3.1,3.1,0,0,0-2.85-1.63A3,3,0,0,0,84.39,48v1.82H83.15v1.42h1.24v2.63H83.2V55.4h7.22V53.88H86.1V51.25h2.42V49.83H86.1v-1.9A1.62,1.62,0,0,1,86.56,46.65Z"/><path class="a60fc5bb-a54d-4dcb-9c33-9ffe42c8e9ae" d="M86.56,46.65a1.66,1.66,0,0,1,1.15-.4,1.77,1.77,0,0,1,1.54,1l1.2-.95a3.1,3.1,0,0,0-2.85-1.63A3,3,0,0,0,84.39,48v1.82H83.15v1.42h1.24v2.63H83.2V55.4h7.22V53.88H86.1V51.25h2.42V49.83H86.1v-1.9A1.62,1.62,0,0,1,86.56,46.65Z"/></g></g></svg>