<svg xmlns="http://www.w3.org/2000/svg" width="131.39" height="100" ><defs><style>.b81d5d8b-8941-4fd0-b5d4-6a0d309f38c0{fill:#e58025;}</style></defs><title>commodities</title><g id="af023ace-90d4-4530-875f-fb0e492457a5" data-name="Layer 2"><g id="b0ef9ffa-dd10-4e6e-9870-88b8c954fe72" data-name="Layer 1"><path class="b81d5d8b-8941-4fd0-b5d4-6a0d309f38c0" d="M39.44,28.78c5.7,7,11.4,13.39,13.61,21.85,1.61,6.15-4,13.58-10.72,15-7.22,1.53-14.91-3.29-16.21-10.36a12.42,12.42,0,0,1,.05-5.94C28.77,41.58,33.91,35.41,39.44,28.78ZM27.81,52.41c-.28,4.17,1.93,7.53,5.09,10,.86.66,2.83,1.41,3.7.5.7-.94.61-1.86-1.08-3.25-3.11-2.56-4-5.77-3.07-9.56a47.91,47.91,0,0,0,1.26-4.77c.11-.88.73-1.78-.76-2.78-1.18-.48-2,0-2.7,1.49A29.58,29.58,0,0,0,27.81,52.41Z"/><path class="b81d5d8b-8941-4fd0-b5d4-6a0d309f38c0" d="M53.06,100H6.49a5.69,5.69,0,0,1-3.35-1.19,8.41,8.41,0,0,1-.73-.61,7.36,7.36,0,0,1-2-7.87A7.57,7.57,0,0,1,3,86.8l1.82-1.42.63-28.1C4.55,55.85,3.7,54.41,2.92,53a8.58,8.58,0,0,1,.27-8.79l1.13-1.77,0-28.36L2.56,9.89a6.94,6.94,0,0,1,.65-6.62A7.36,7.36,0,0,1,9.33,0H68.1V2H9.35A5.41,5.41,0,0,0,4.84,4.37a4.93,4.93,0,0,0-.48,4.76L6.3,13.68V43L4.84,45.27a6.6,6.6,0,0,0-.2,6.78c.81,1.46,1.69,3,2.62,4.44l.16.25L6.76,86.35l-2.55,2A5.71,5.71,0,0,0,2.26,91a5.42,5.42,0,0,0,1.46,5.79l.62.52A3.73,3.73,0,0,0,6.52,98H53.06Z"/><path class="b81d5d8b-8941-4fd0-b5d4-6a0d309f38c0" d="M71.82,69.62l-2,0L70,56.76l.15-.23c.4-.64,1.47-2.36,2.65-4.48a6.62,6.62,0,0,0-.21-6.78L71.16,43l0-29.33,2-4.64a4.91,4.91,0,0,0-.51-4.67A5.4,5.4,0,0,0,68.12,2l0-2h0a7.34,7.34,0,0,1,6.11,3.27,6.84,6.84,0,0,1,.7,6.53L73.1,14.08l0,28.36,1.14,1.77A8.56,8.56,0,0,1,74.52,53c-1.07,1.94-2.07,3.56-2.56,4.34Z"/><path class="b81d5d8b-8941-4fd0-b5d4-6a0d309f38c0" d="M53.06,100H6.49a5.69,5.69,0,0,1-3.35-1.19,8.41,8.41,0,0,1-.73-.61,7.36,7.36,0,0,1-2-7.87A7.57,7.57,0,0,1,3,86.8l1.82-1.42.63-28.1C4.55,55.85,3.7,54.41,2.92,53a8.58,8.58,0,0,1,.27-8.79l1.13-1.77,0-28.36L2.56,9.89a6.94,6.94,0,0,1,.65-6.62A7.36,7.36,0,0,1,9.33,0H68.1a1,1,0,1,1,0,2H9.35A5.41,5.41,0,0,0,4.84,4.37a4.93,4.93,0,0,0-.48,4.76l1.86,4.36a1,1,0,0,1,.08.39V42.72a1,1,0,0,1-.16.53l-1.29,2a6.6,6.6,0,0,0-.2,6.78c.81,1.46,1.69,3,2.62,4.44a.94.94,0,0,1,.15.54L6.77,85.88a1,1,0,0,1-.38.75L4.21,88.34A5.71,5.71,0,0,0,2.26,91a5.42,5.42,0,0,0,1.46,5.79l.62.52A3.73,3.73,0,0,0,6.52,98H53.06a1,1,0,1,1,0,2Z"/><path class="b81d5d8b-8941-4fd0-b5d4-6a0d309f38c0" d="M70.84,70.59h0a1,1,0,0,1-1-1L70,57a1,1,0,0,1,.16-.51c.4-.64,1.47-2.36,2.65-4.48a6.62,6.62,0,0,0-.21-6.78l-1.29-2a1,1,0,0,1-.15-.53l0-28.84a1,1,0,0,1,.08-.39L73.12,9a4.91,4.91,0,0,0-.51-4.67A5.4,5.4,0,0,0,68.12,2a1,1,0,0,1-1-1,1,1,0,0,1,1-1h0a7.34,7.34,0,0,1,6.11,3.27,6.84,6.84,0,0,1,.7,6.53L73.1,14.08l0,28.36,1.14,1.77A8.56,8.56,0,0,1,74.52,53c-1.07,1.94-2.07,3.56-2.56,4.34l-.14,12.28A1,1,0,0,1,70.84,70.59Z"/><path class="b81d5d8b-8941-4fd0-b5d4-6a0d309f38c0" d="M102,68.18H80.47a2.14,2.14,0,0,1-1.7-.81,2,2,0,0,1-.4-1.73L80.69,55.2A3.39,3.39,0,0,1,84,52.61h14.6a3.25,3.25,0,0,1,3.18,2.49l2.35,10.54a2.07,2.07,0,0,1-.41,1.73A2.14,2.14,0,0,1,102,68.18ZM84,54.57a1.41,1.41,0,0,0-1.4,1.06L80.28,66.06c0,.11.09.16.19.16H102a.22.22,0,0,0,.16-.07L99.87,55.53a1.28,1.28,0,0,0-1.26-1Z"/><path class="b81d5d8b-8941-4fd0-b5d4-6a0d309f38c0" d="M115.66,84.07H94.09a2.14,2.14,0,0,1-1.69-.8A2,2,0,0,1,92,81.53L94.32,71.1a3.37,3.37,0,0,1,3.31-2.59h14.6A3.25,3.25,0,0,1,115.41,71l2.35,10.53a2,2,0,0,1-.41,1.74A2.14,2.14,0,0,1,115.66,84.07Zm-18-13.6a1.41,1.41,0,0,0-1.4,1L93.91,82c0,.1.08.15.18.15h21.57a.18.18,0,0,0,.16-.07L113.5,71.43a1.29,1.29,0,0,0-1.27-1Z"/><path class="b81d5d8b-8941-4fd0-b5d4-6a0d309f38c0" d="M73,100H51.37a2.16,2.16,0,0,1-1.69-.8,2.06,2.06,0,0,1-.4-1.74L51.6,87a3.38,3.38,0,0,1,3.31-2.58h14.6a3.26,3.26,0,0,1,3.19,2.48L75,97.46a2.06,2.06,0,0,1-.4,1.74A2.16,2.16,0,0,1,73,100Zm-18-13.6a1.4,1.4,0,0,0-1.39,1L51.19,97.88c0,.11.09.16.18.16H73a.22.22,0,0,0,.16-.07L70.78,87.35a1.27,1.27,0,0,0-1.27-.95Z"/><path class="b81d5d8b-8941-4fd0-b5d4-6a0d309f38c0" d="M86.9,84.18H65.33a2.14,2.14,0,0,1-1.69-.8,2.06,2.06,0,0,1-.41-1.74l2.33-10.43a3.37,3.37,0,0,1,3.31-2.59h14.6a3.25,3.25,0,0,1,3.18,2.49L89,81.64a2,2,0,0,1-.41,1.74A2.14,2.14,0,0,1,86.9,84.18Zm-18-13.6a1.42,1.42,0,0,0-1.4,1L65.15,82.07c0,.1.08.15.18.15H86.9a.18.18,0,0,0,.16-.07L84.74,71.53a1.29,1.29,0,0,0-1.27-1Z"/><path class="b81d5d8b-8941-4fd0-b5d4-6a0d309f38c0" d="M100.8,100H79.23a2.14,2.14,0,0,1-1.69-.8,2,2,0,0,1-.41-1.74L79.46,87a3.37,3.37,0,0,1,3.31-2.58h14.6a3.24,3.24,0,0,1,3.18,2.48l2.35,10.54a2.07,2.07,0,0,1-.41,1.74A2.16,2.16,0,0,1,100.8,100Zm-18-13.6a1.41,1.41,0,0,0-1.4,1L79,97.88c0,.11.09.16.19.16H100.8A.22.22,0,0,0,101,98L98.64,87.35a1.29,1.29,0,0,0-1.27-.95Z"/><path class="b81d5d8b-8941-4fd0-b5d4-6a0d309f38c0" d="M129.25,100H107.67a2.16,2.16,0,0,1-1.69-.8,2.06,2.06,0,0,1-.4-1.74L107.9,87a3.38,3.38,0,0,1,3.31-2.58h14.6A3.25,3.25,0,0,1,129,86.93l2.34,10.53a2.06,2.06,0,0,1-.4,1.74A2.16,2.16,0,0,1,129.25,100Zm-18-13.6a1.4,1.4,0,0,0-1.39,1l-2.33,10.43c0,.11.09.16.18.16h21.58a.22.22,0,0,0,.16-.07l-2.33-10.62a1.27,1.27,0,0,0-1.27-.95Z"/><path class="b81d5d8b-8941-4fd0-b5d4-6a0d309f38c0" d="M39.44,28.78c5.7,7,11.4,13.39,13.61,21.85,1.61,6.15-4,13.58-10.72,15-7.22,1.53-14.91-3.29-16.21-10.36a12.42,12.42,0,0,1,.05-5.94C28.77,41.58,33.91,35.41,39.44,28.78ZM27.81,52.41c-.28,4.17,1.93,7.53,5.09,10,.86.66,2.83,1.41,3.7.5.7-.94.61-1.86-1.08-3.25-3.11-2.56-4-5.77-3.07-9.56a47.91,47.91,0,0,0,1.26-4.77c.11-.88.73-1.78-.76-2.78-1.18-.48-2,0-2.7,1.49A29.58,29.58,0,0,0,27.81,52.41Z"/><path class="b81d5d8b-8941-4fd0-b5d4-6a0d309f38c0" d="M53.06,100H6.49a5.69,5.69,0,0,1-3.35-1.19,8.41,8.41,0,0,1-.73-.61,7.36,7.36,0,0,1-2-7.87A7.57,7.57,0,0,1,3,86.8l1.82-1.42.63-28.1C4.55,55.85,3.7,54.41,2.92,53a8.58,8.58,0,0,1,.27-8.79l1.13-1.77,0-28.36L2.56,9.89a6.94,6.94,0,0,1,.65-6.62A7.36,7.36,0,0,1,9.33,0H68.1V2H9.35A5.41,5.41,0,0,0,4.84,4.37a4.93,4.93,0,0,0-.48,4.76L6.3,13.68V43L4.84,45.27a6.6,6.6,0,0,0-.2,6.78c.81,1.46,1.69,3,2.62,4.44l.16.25L6.76,86.35l-2.55,2A5.71,5.71,0,0,0,2.26,91a5.42,5.42,0,0,0,1.46,5.79l.62.52A3.73,3.73,0,0,0,6.52,98H53.06Z"/><path class="b81d5d8b-8941-4fd0-b5d4-6a0d309f38c0" d="M71.82,69.62l-2,0L70,56.76l.15-.23c.4-.64,1.47-2.36,2.65-4.48a6.62,6.62,0,0,0-.21-6.78L71.16,43l0-29.33,2-4.64a4.91,4.91,0,0,0-.51-4.67A5.4,5.4,0,0,0,68.12,2l0-2h0a7.34,7.34,0,0,1,6.11,3.27,6.84,6.84,0,0,1,.7,6.53L73.1,14.08l0,28.36,1.14,1.77A8.56,8.56,0,0,1,74.52,53c-1.07,1.94-2.07,3.56-2.56,4.34Z"/><path class="b81d5d8b-8941-4fd0-b5d4-6a0d309f38c0" d="M53.06,100H6.49a5.69,5.69,0,0,1-3.35-1.19,8.41,8.41,0,0,1-.73-.61,7.36,7.36,0,0,1-2-7.87A7.57,7.57,0,0,1,3,86.8l1.82-1.42.63-28.1C4.55,55.85,3.7,54.41,2.92,53a8.58,8.58,0,0,1,.27-8.79l1.13-1.77,0-28.36L2.56,9.89a6.94,6.94,0,0,1,.65-6.62A7.36,7.36,0,0,1,9.33,0H68.1a1,1,0,1,1,0,2H9.35A5.41,5.41,0,0,0,4.84,4.37a4.93,4.93,0,0,0-.48,4.76l1.86,4.36a1,1,0,0,1,.08.39V42.72a1,1,0,0,1-.16.53l-1.29,2a6.6,6.6,0,0,0-.2,6.78c.81,1.46,1.69,3,2.62,4.44a.94.94,0,0,1,.15.54L6.77,85.88a1,1,0,0,1-.38.75L4.21,88.34A5.71,5.71,0,0,0,2.26,91a5.42,5.42,0,0,0,1.46,5.79l.62.52A3.73,3.73,0,0,0,6.52,98H53.06a1,1,0,1,1,0,2Z"/><path class="b81d5d8b-8941-4fd0-b5d4-6a0d309f38c0" d="M70.84,70.59h0a1,1,0,0,1-1-1L70,57a1,1,0,0,1,.16-.51c.4-.64,1.47-2.36,2.65-4.48a6.62,6.62,0,0,0-.21-6.78l-1.29-2a1,1,0,0,1-.15-.53l0-28.84a1,1,0,0,1,.08-.39L73.12,9a4.91,4.91,0,0,0-.51-4.67A5.4,5.4,0,0,0,68.12,2a1,1,0,0,1-1-1,1,1,0,0,1,1-1h0a7.34,7.34,0,0,1,6.11,3.27,6.84,6.84,0,0,1,.7,6.53L73.1,14.08l0,28.36,1.14,1.77A8.56,8.56,0,0,1,74.52,53c-1.07,1.94-2.07,3.56-2.56,4.34l-.14,12.28A1,1,0,0,1,70.84,70.59Z"/><path class="b81d5d8b-8941-4fd0-b5d4-6a0d309f38c0" d="M102,68.18H80.47a2.14,2.14,0,0,1-1.7-.81,2,2,0,0,1-.4-1.73L80.69,55.2A3.39,3.39,0,0,1,84,52.61h14.6a3.25,3.25,0,0,1,3.18,2.49l2.35,10.54a2.07,2.07,0,0,1-.41,1.73A2.14,2.14,0,0,1,102,68.18ZM84,54.57a1.41,1.41,0,0,0-1.4,1.06L80.28,66.06c0,.11.09.16.19.16H102a.22.22,0,0,0,.16-.07L99.87,55.53a1.28,1.28,0,0,0-1.26-1Z"/><path class="b81d5d8b-8941-4fd0-b5d4-6a0d309f38c0" d="M115.66,84.07H94.09a2.14,2.14,0,0,1-1.69-.8A2,2,0,0,1,92,81.53L94.32,71.1a3.37,3.37,0,0,1,3.31-2.59h14.6A3.25,3.25,0,0,1,115.41,71l2.35,10.53a2,2,0,0,1-.41,1.74A2.14,2.14,0,0,1,115.66,84.07Zm-18-13.6a1.41,1.41,0,0,0-1.4,1L93.91,82c0,.1.08.15.18.15h21.57a.18.18,0,0,0,.16-.07L113.5,71.43a1.29,1.29,0,0,0-1.27-1Z"/><path class="b81d5d8b-8941-4fd0-b5d4-6a0d309f38c0" d="M73,100H51.37a2.16,2.16,0,0,1-1.69-.8,2.06,2.06,0,0,1-.4-1.74L51.6,87a3.38,3.38,0,0,1,3.31-2.58h14.6a3.26,3.26,0,0,1,3.19,2.48L75,97.46a2.06,2.06,0,0,1-.4,1.74A2.16,2.16,0,0,1,73,100Zm-18-13.6a1.4,1.4,0,0,0-1.39,1L51.19,97.88c0,.11.09.16.18.16H73a.22.22,0,0,0,.16-.07L70.78,87.35a1.27,1.27,0,0,0-1.27-.95Z"/><path class="b81d5d8b-8941-4fd0-b5d4-6a0d309f38c0" d="M86.9,84.18H65.33a2.14,2.14,0,0,1-1.69-.8,2.06,2.06,0,0,1-.41-1.74l2.33-10.43a3.37,3.37,0,0,1,3.31-2.59h14.6a3.25,3.25,0,0,1,3.18,2.49L89,81.64a2,2,0,0,1-.41,1.74A2.14,2.14,0,0,1,86.9,84.18Zm-18-13.6a1.42,1.42,0,0,0-1.4,1L65.15,82.07c0,.1.08.15.18.15H86.9a.18.18,0,0,0,.16-.07L84.74,71.53a1.29,1.29,0,0,0-1.27-1Z"/><path class="b81d5d8b-8941-4fd0-b5d4-6a0d309f38c0" d="M100.8,100H79.23a2.14,2.14,0,0,1-1.69-.8,2,2,0,0,1-.41-1.74L79.46,87a3.37,3.37,0,0,1,3.31-2.58h14.6a3.24,3.24,0,0,1,3.18,2.48l2.35,10.54a2.07,2.07,0,0,1-.41,1.74A2.16,2.16,0,0,1,100.8,100Zm-18-13.6a1.41,1.41,0,0,0-1.4,1L79,97.88c0,.11.09.16.19.16H100.8A.22.22,0,0,0,101,98L98.64,87.35a1.29,1.29,0,0,0-1.27-.95Z"/><path class="b81d5d8b-8941-4fd0-b5d4-6a0d309f38c0" d="M129.25,100H107.67a2.16,2.16,0,0,1-1.69-.8,2.06,2.06,0,0,1-.4-1.74L107.9,87a3.38,3.38,0,0,1,3.31-2.58h14.6A3.25,3.25,0,0,1,129,86.93l2.34,10.53a2.06,2.06,0,0,1-.4,1.74A2.16,2.16,0,0,1,129.25,100Zm-18-13.6a1.4,1.4,0,0,0-1.39,1l-2.33,10.43c0,.11.09.16.18.16h21.58a.22.22,0,0,0,.16-.07l-2.33-10.62a1.27,1.27,0,0,0-1.27-.95Z"/></g></g></svg>