<svg xmlns="http://www.w3.org/2000/svg" width="107.92" height="100" viewBox="0 0 107.92 100"><defs><style>.b019432e-399b-484d-8810-0947b71873b5{fill:#ec7623;}.a45b9eb3-aec7-4a71-81ee-6b36bf27ff8e{fill:#e38025;}</style></defs><title>deposit</title><g id="fabd8fc0-bedf-47da-b730-56cdbe2e73a3" data-name="Layer 2"><g id="fc6675e5-8ab0-4d40-95e5-7cf5189c10a7" data-name="svg"><path class="b019432e-399b-484d-8810-0947b71873b5" d="M56.11,65.17a4.69,4.69,0,0,0-1.41-3.52,14.09,14.09,0,0,0-5-2.65,15.87,15.87,0,0,1-6-3.1,6.62,6.62,0,0,1-2-5.12,7,7,0,0,1,2-5.16A8,8,0,0,1,49,43.36v-4h2v4a7.44,7.44,0,0,1,5.29,2.56A9,9,0,0,1,58.16,52l-.06.1H55.91a7.26,7.26,0,0,0-1.56-4.83A5.42,5.42,0,0,0,50,45.41a5.91,5.91,0,0,0-4.39,1.51,5.19,5.19,0,0,0-1.49,3.82,4.91,4.91,0,0,0,1.32,3.58,13.22,13.22,0,0,0,5.1,2.61,16.58,16.58,0,0,1,6,3.14,6.48,6.48,0,0,1,1.94,5,6.82,6.82,0,0,1-2,5.19A8.64,8.64,0,0,1,51,72.52v3.71H49V72.54a9.56,9.56,0,0,1-5.87-2.26q-2.34-2-2.26-6.16l.06-.12H43.1q0,3.48,2,5a7.57,7.57,0,0,0,4.77,1.53A6.61,6.61,0,0,0,54.42,69,5,5,0,0,0,56.11,65.17Z"/><path class="b019432e-399b-484d-8810-0947b71873b5" d="M64.37,59.29,66,43.73H79.76V45.9H67.94L66.89,56a8,8,0,0,1,2.36-1.5,10.25,10.25,0,0,1,3.5-.59,7.33,7.33,0,0,1,5.86,2.44,9.76,9.76,0,0,1,2.22,6.72A10.4,10.4,0,0,1,78.68,70q-2.16,2.58-6.5,2.58a8.83,8.83,0,0,1-5.86-2,6.89,6.89,0,0,1-2.24-5.81l0-.11h2.09a5.7,5.7,0,0,0,1.63,4.38,6.1,6.1,0,0,0,4.34,1.51,5.77,5.77,0,0,0,4.74-1.91,8.51,8.51,0,0,0,1.57-5.54A7.79,7.79,0,0,0,76.92,58a5.39,5.39,0,0,0-4.41-1.92,8.15,8.15,0,0,0-4.17.87,5,5,0,0,0-2.08,2.63Z"/><path class="a45b9eb3-aec7-4a71-81ee-6b36bf27ff8e" d="M62.22,100C37,100,16.49,79.75,16.49,54.87a45.35,45.35,0,0,1,2.15-13.72l.25-.76.79.08a15.4,15.4,0,0,0,1.76.09A20.81,20.81,0,0,0,42.36,19.93a20.86,20.86,0,0,0-.53-4.62l-.18-.77.71-.33A45.78,45.78,0,0,1,62.22,9.74c25.2,0,45.7,20.25,45.7,45.13S87.42,100,62.22,100ZM20.28,42.49a43.21,43.21,0,0,0-1.83,12.38C18.45,78.67,38.08,98,62.22,98S106,78.67,106,54.87,86.34,11.7,62.22,11.7a44,44,0,0,0-18.32,4,22.25,22.25,0,0,1,.42,4.28A22.76,22.76,0,0,1,21.44,42.52C21,42.52,20.64,42.51,20.28,42.49ZM19.75,39A19.65,19.65,0,0,1,0,19.51a19.75,19.75,0,0,1,39.5,0A19.65,19.65,0,0,1,19.75,39Zm0-37A17.69,17.69,0,0,0,2,19.51,17.69,17.69,0,0,0,19.75,37.05,17.69,17.69,0,0,0,37.54,19.51,17.69,17.69,0,0,0,19.75,2Zm.31,27.76A2.81,2.81,0,0,1,17.2,26.9V22.53H12.79a2.89,2.89,0,1,1,0-5.77H17.2V12.41a2.91,2.91,0,0,1,5.82,0v4.35h4.43a2.89,2.89,0,1,1,0,5.77H23V26.9A2.9,2.9,0,0,1,20.06,29.72Zm-7.27-11a.94.94,0,0,0-.95.92.93.93,0,0,0,.95.93h6.37V26.9a.85.85,0,0,0,.9.86.94.94,0,0,0,1-.86V20.57h6.39a.93.93,0,1,0,0-1.85H21.06V12.41a1,1,0,0,0-1.9,0v6.31Z"/></g></g></svg>