<?xml version="1.0" encoding="utf-8"?>
<!-- Generator: Adobe Illustrator 23.0.1, SVG Export Plug-In . SVG Version: 6.00 Build 0)  -->
<svg version="1.1" id="Layer_1" xmlns="http://www.w3.org/2000/svg" xmlns:xlink="http://www.w3.org/1999/xlink" x="0px" y="0px"
	 viewBox="0 0 88.4 100" style="enable-background:new 0 0 88.4 100;" xml:space="preserve">
<style type="text/css">
	.st0{fill:#E58025;}
</style>
<title>forex</title>
<g id="af63abb3-4745-40f2-b9dc-5953d9b94b48">
	<g id="aab0d9ab-942f-46bd-a607-3b67c763bd1b">
		<path class="st0" d="M30.6,35.6c3,0,6,0.5,8.8,1.5c4.7,1.7,9.6,2.6,14.6,2.7c4,0,7.9-0.6,11.7-1.9v3.8c0,1.7,0,3.4,0,5.1
			c0,4.3,0,8.8,0.1,13.2c0,1.2-0.1,1.5-1.6,2.2c-3,1.4-6.3,2.2-9.7,2.3c-2.3,0-4.6-0.4-6.8-1.3c-5.1-2-11.3-4-17.9-4
			c-2.5,0-5,0.3-7.4,0.9V36.7C25.1,36,27.9,35.6,30.6,35.6 M44.7,57.3c4.3,0.1,7.8-3.3,7.9-7.6c0-0.1,0-0.1,0-0.2
			c0.1-4.3-3.3-8-7.7-8.1c0,0-0.1,0-0.1,0h-0.1c-4.4,0.1-7.8,3.8-7.7,8.2c0.1,4.2,3.4,7.5,7.6,7.7L44.7,57.3 M30.7,33.7
			c-3.4,0-6.8,0.6-10.1,1.6v27.3c3-1,6.1-1.5,9.3-1.5c5.9,0,11.6,1.7,17.2,3.9c2.4,0.9,4.9,1.4,7.5,1.4c3.6-0.1,7.2-0.9,10.5-2.4
			c1.9-0.9,2.8-1.8,2.8-4.1c-0.2-6.1-0.1-12.1-0.1-18.2c0-2.1,0-4.2,0-6.6c-4.3,1.8-9,2.8-13.6,2.8c-4.8-0.1-9.5-0.9-14-2.6
			C37,34.2,33.8,33.7,30.7,33.7L30.7,33.7z M44.7,55.3L44.7,55.3c-3.3,0-5.9-2.6-6-5.8c0-0.1,0-0.1,0-0.2c0-3.3,2.7-5.9,6-5.9
			c0,0,0,0,0,0h0.1c3.3,0,5.9,2.7,5.9,6c0,0,0,0,0,0.1c0,3.2-2.6,5.8-5.8,5.9C44.8,55.3,44.8,55.3,44.7,55.3L44.7,55.3z"/>
		<path class="st0" d="M30.6,35.6c3,0,6,0.5,8.8,1.5c4.7,1.7,9.6,2.6,14.6,2.7c4,0,7.9-0.6,11.7-1.9v3.8c0,1.7,0,3.4,0,5.1
			c0,4.3,0,8.8,0.1,13.2c0,1.2-0.1,1.5-1.6,2.2c-3,1.4-6.3,2.2-9.7,2.3c-2.3,0-4.6-0.4-6.8-1.3c-5.1-2-11.3-4-17.9-4
			c-2.5,0-5,0.3-7.4,0.9V36.7C25.1,36,27.9,35.6,30.6,35.6 M44.7,57.3c4.3,0.1,7.8-3.3,7.9-7.6c0-0.1,0-0.1,0-0.2
			c0.1-4.3-3.3-8-7.7-8.1c0,0-0.1,0-0.1,0h-0.1c-4.4,0.1-7.8,3.8-7.7,8.2c0.1,4.2,3.4,7.5,7.6,7.7L44.7,57.3 M30.7,33.7
			c-3.4,0-6.8,0.6-10.1,1.6v27.3c3-1,6.1-1.5,9.3-1.5c5.9,0,11.6,1.7,17.2,3.9c2.4,0.9,4.9,1.4,7.5,1.4c3.6-0.1,7.2-0.9,10.5-2.4
			c1.9-0.9,2.8-1.8,2.8-4.1c-0.2-6.1-0.1-12.1-0.1-18.2c0-2.1,0-4.2,0-6.6c-4.3,1.8-9,2.8-13.6,2.8c-4.8-0.1-9.5-0.9-14-2.6
			C37,34.2,33.8,33.7,30.7,33.7L30.7,33.7z M44.7,55.3L44.7,55.3c-3.3,0-5.9-2.6-6-5.8c0-0.1,0-0.1,0-0.2c0-3.3,2.7-5.9,6-5.9
			c0,0,0,0,0,0h0.1c3.3,0,5.9,2.7,5.9,6c0,0,0,0,0,0.1c0,3.2-2.6,5.8-5.8,5.9C44.8,55.3,44.8,55.3,44.7,55.3L44.7,55.3z"/>
		<path class="st0" d="M35.2,93H35C11.1,87.9-4.1,64.5,1,40.6C4.4,24.4,16.7,11.4,32.7,7.1c0.6,0,1,0.4,1.1,0.9c0,0.4-0.2,0.8-0.6,1
			C10.7,15-2.6,38.2,3.4,60.7c4.1,15.3,16.5,27.1,32,30.4c0.5,0.2,0.8,0.7,0.6,1.3C35.9,92.7,35.6,93,35.2,93L35.2,93z"/>
		<path class="st0" d="M27.1,20.3c-0.6,0-1-0.5-1-1c0-0.2,0.1-0.3,0.1-0.5L33,8.4L22.7,1.8c-0.4-0.4-0.4-1-0.1-1.4
			c0.3-0.3,0.7-0.4,1.1-0.2l11.1,7.1c0.2,0.1,0.4,0.4,0.4,0.6c0.1,0.3,0,0.5-0.1,0.7l-7.2,11.3C27.7,20.1,27.4,20.3,27.1,20.3z"/>
		<path class="st0" d="M27.1,20.3c-0.6,0-1-0.5-1-1c0-0.2,0.1-0.3,0.1-0.5L33,8.4L22.7,1.8c-0.4-0.4-0.4-1-0.1-1.4
			c0.3-0.3,0.7-0.4,1.1-0.2l11.1,7.1c0.2,0.1,0.4,0.4,0.4,0.6c0.1,0.3,0,0.5-0.1,0.7l-7.2,11.3C27.7,20.1,27.4,20.3,27.1,20.3z"/>
		<path class="st0" d="M53.9,92.1C53.4,92,53,91.5,53.1,91c0-0.4,0.3-0.7,0.6-0.8C76.4,85,90.6,62.3,85.4,39.6
			c-3.8-16.4-17-29.1-33.6-32.1c-0.6,0-1-0.4-1-1s0.4-1,1-1c0.1,0,0.3,0,0.4,0.1c24,4.4,39.9,27.4,35.5,51.4
			c-3.2,17.4-16.4,31.2-33.6,35.1C54.1,92.1,54,92.1,53.9,92.1z"/>
		<path class="st0" d="M63.9,100c-0.2,0-0.4-0.1-0.5-0.2l-11-7.6c-0.4-0.3-0.5-0.9-0.2-1.4l7.6-11c0.2-0.5,0.8-0.8,1.3-0.6
			c0.5,0.2,0.8,0.8,0.6,1.3c-0.1,0.2-0.2,0.3-0.3,0.4l-7,10.2l10.2,7c0.4,0.3,0.5,1,0.2,1.4C64.5,99.9,64.2,100,63.9,100L63.9,100z"
			/>
		<path class="st0" d="M27.1,20.3c-0.6,0-1-0.5-1-1c0-0.2,0.1-0.3,0.1-0.5L33,8.4L22.7,1.8c-0.4-0.4-0.4-1-0.1-1.4
			c0.3-0.3,0.7-0.4,1.1-0.2l11.1,7.1c0.2,0.1,0.4,0.4,0.4,0.6c0.1,0.3,0,0.5-0.1,0.7l-7.2,11.3C27.7,20.1,27.4,20.3,27.1,20.3z"/>
		<path class="st0" d="M27.1,20.3c-0.6,0-1-0.5-1-1c0-0.2,0.1-0.3,0.1-0.5L33,8.4L22.7,1.8c-0.4-0.4-0.4-1-0.1-1.4
			c0.3-0.3,0.7-0.4,1.1-0.2l11.1,7.1c0.2,0.1,0.4,0.4,0.4,0.6c0.1,0.3,0,0.5-0.1,0.7l-7.2,11.3C27.7,20.1,27.4,20.3,27.1,20.3z"/>
		<path class="st0" d="M63.9,100c-0.2,0-0.4-0.1-0.5-0.2l-11-7.6c-0.4-0.3-0.5-0.9-0.2-1.4l7.6-11c0.2-0.5,0.8-0.8,1.3-0.6
			c0.5,0.2,0.8,0.8,0.6,1.3c-0.1,0.2-0.2,0.3-0.3,0.4l-7,10.2l10.2,7c0.4,0.3,0.5,1,0.2,1.4C64.5,99.9,64.2,100,63.9,100L63.9,100z"
			/>
	</g>
</g>
</svg>
