<svg xmlns="http://www.w3.org/2000/svg" width="129.11" height="100" viewBox="0 0 129.11 100"><defs><style>.a3e35353-3574-43b4-92b7-0924d33402c8{fill:#e58025;}.f49ddda7-1749-4fc2-ae65-62e2c7baddc3{fill:#ee7623;}.af3f19b5-5b1c-443d-8ef9-0735544705d0{fill:#ec7724;}</style></defs><title>high-speed-platform</title><g id="a450680f-afb7-4aca-b121-289e79852aaf" data-name="Layer 2"><g id="ba3bbf3c-03f5-42e8-803c-0ac447e0a6ac" data-name="Layer 1"><path class="a3e35353-3574-43b4-92b7-0924d33402c8" d="M18.75,61.34h-6a.77.77,0,1,1,0-1.54h6a.77.77,0,0,1,0,1.54Z"/><path class="a3e35353-3574-43b4-92b7-0924d33402c8" d="M113.11,65.31h-6a.77.77,0,1,1,0-1.54h6a.77.77,0,0,1,0,1.54Z"/><path class="a3e35353-3574-43b4-92b7-0924d33402c8" d="M13.93,74.39a.79.79,0,0,1-.75-.57.77.77,0,0,1,.55-.94l5.81-1.56a.77.77,0,1,1,.39,1.49l-5.8,1.55Z"/><path class="a3e35353-3574-43b4-92b7-0924d33402c8" d="M106.11,53.8a.76.76,0,0,1-.74-.57.77.77,0,0,1,.54-.94l5.81-1.55a.77.77,0,1,1,.4,1.48l-5.81,1.56A.68.68,0,0,1,106.11,53.8Z"/><path class="a3e35353-3574-43b4-92b7-0924d33402c8" d="M18.46,86.69a.77.77,0,0,1-.38-1.44l5.21-3a.77.77,0,0,1,.77,1.33l-5.21,3A.76.76,0,0,1,18.46,86.69Z"/><path class="a3e35353-3574-43b4-92b7-0924d33402c8" d="M102.17,42.94a.76.76,0,0,1-.67-.38.77.77,0,0,1,.28-1.05l5.22-3a.77.77,0,0,1,1,.28.78.78,0,0,1-.29,1.06l-5.21,3A.75.75,0,0,1,102.17,42.94Z"/><path class="a3e35353-3574-43b4-92b7-0924d33402c8" d="M95.56,33.49a.75.75,0,0,1-.54-.22.77.77,0,0,1,0-1.09l4.25-4.26A.77.77,0,0,1,100.36,29l-4.25,4.26A.77.77,0,0,1,95.56,33.49Z"/><path class="a3e35353-3574-43b4-92b7-0924d33402c8" d="M86.72,26.05a.75.75,0,0,1-.38-.1.76.76,0,0,1-.28-1.05l3-5.21a.77.77,0,0,1,1.34.77l-3,5.21A.76.76,0,0,1,86.72,26.05Z"/><path class="a3e35353-3574-43b4-92b7-0924d33402c8" d="M76.28,21.16a.64.64,0,0,1-.2,0,.77.77,0,0,1-.55-.94l1.56-5.81a.77.77,0,1,1,1.49.39L77,20.59A.77.77,0,0,1,76.28,21.16Z"/><path class="a3e35353-3574-43b4-92b7-0924d33402c8" d="M64.9,19.14a.77.77,0,0,1-.77-.77v-6a.77.77,0,1,1,1.54,0v6A.76.76,0,0,1,64.9,19.14Z"/><path class="a3e35353-3574-43b4-92b7-0924d33402c8" d="M53.4,20.14a.79.79,0,0,1-.75-.57L51.1,13.76a.77.77,0,1,1,1.49-.4l1.55,5.81a.77.77,0,0,1-.54.94Z"/><path class="a3e35353-3574-43b4-92b7-0924d33402c8" d="M42.55,24.07a.76.76,0,0,1-.67-.39l-3-5.2a.77.77,0,1,1,1.33-.78l3,5.21a.78.78,0,0,1-.66,1.16Z"/><path class="a3e35353-3574-43b4-92b7-0924d33402c8" d="M33.09,30.68a.77.77,0,0,1-.55-.22L28.29,26.2a.77.77,0,0,1,1.09-1.09l4.25,4.26a.77.77,0,0,1,0,1.09A.76.76,0,0,1,33.09,30.68Z"/><path class="a3e35353-3574-43b4-92b7-0924d33402c8" d="M105.39,90.14A.76.76,0,0,1,105,90L99.8,87a.77.77,0,1,1,.77-1.33l5.21,3a.77.77,0,0,1-.39,1.44Z"/><path class="a3e35353-3574-43b4-92b7-0924d33402c8" d="M25.65,39.52a.76.76,0,0,1-.38-.11l-5.21-3a.76.76,0,0,1-.28-1,.77.77,0,0,1,1-.28l5.21,3a.77.77,0,0,1-.39,1.44Z"/><path class="a3e35353-3574-43b4-92b7-0924d33402c8" d="M110.88,78.23l-.2,0-5.8-1.55a.76.76,0,0,1-.55-.94.78.78,0,0,1,.94-.55l5.81,1.56a.77.77,0,0,1,.55.94A.79.79,0,0,1,110.88,78.23Z"/><path class="a3e35353-3574-43b4-92b7-0924d33402c8" d="M20.77,50a.64.64,0,0,1-.2,0l-5.81-1.56a.77.77,0,1,1,.39-1.48L21,48.46A.77.77,0,0,1,20.77,50Z"/><path class="a3e35353-3574-43b4-92b7-0924d33402c8" d="M64.1,50.22a8.55,8.55,0,1,0,4.45,15.06L96.6,73l-25-15.31A8.55,8.55,0,0,0,64.1,50.22Z"/><path class="a3e35353-3574-43b4-92b7-0924d33402c8" d="M96.6,73.75a.76.76,0,0,1-.21,0L68.72,66.13A9.23,9.23,0,0,1,62,68a9.32,9.32,0,1,1,2.17-18.51h0a9.27,9.27,0,0,1,8.09,7.74L97,72.32a.77.77,0,0,1-.4,1.43Zm-28-9.24.2,0L91.56,70.8,71.17,58.32a.75.75,0,0,1-.36-.56A7.77,7.77,0,0,0,64,51h0a7.78,7.78,0,1,0,4,13.71A.77.77,0,0,1,68.55,64.51Z"/><path class="a3e35353-3574-43b4-92b7-0924d33402c8" d="M80.79,88.62H45.06a.77.77,0,0,1-.77-.77V76.7a.77.77,0,0,1,.77-.77H80.79a.78.78,0,0,1,.77.77V87.85A.78.78,0,0,1,80.79,88.62Zm-35-1.54H80V77.47H45.83Z"/><rect class="a3e35353-3574-43b4-92b7-0924d33402c8" x="53.07" y="80.42" width="3.03" height="3.71"/><rect class="a3e35353-3574-43b4-92b7-0924d33402c8" x="58.63" y="80.42" width="3.03" height="3.71"/><rect class="a3e35353-3574-43b4-92b7-0924d33402c8" x="64.18" y="80.42" width="3.03" height="3.71"/><rect class="a3e35353-3574-43b4-92b7-0924d33402c8" x="69.74" y="80.42" width="3.03" height="3.71"/><path class="a3e35353-3574-43b4-92b7-0924d33402c8" d="M118.09,100h0L10.63,99.39A.79.79,0,0,1,10,99a64.56,64.56,0,1,1,108.8.61A.8.8,0,0,1,118.09,100Zm-107-2.21,106.57.6a62.94,62.94,0,1,0-106.57-.6Z"/><path class="f49ddda7-1749-4fc2-ae65-62e2c7baddc3" d="M18.75,61.34h-6a.77.77,0,1,1,0-1.54h6a.77.77,0,0,1,0,1.54Z"/><path class="f49ddda7-1749-4fc2-ae65-62e2c7baddc3" d="M113.11,65.31h-6a.77.77,0,1,1,0-1.54h6a.77.77,0,0,1,0,1.54Z"/><path class="f49ddda7-1749-4fc2-ae65-62e2c7baddc3" d="M13.93,74.39a.79.79,0,0,1-.75-.57.77.77,0,0,1,.55-.94l5.81-1.56a.77.77,0,1,1,.39,1.49l-5.8,1.55Z"/><path class="f49ddda7-1749-4fc2-ae65-62e2c7baddc3" d="M106.11,53.8a.76.76,0,0,1-.74-.57.77.77,0,0,1,.54-.94l5.81-1.55a.77.77,0,1,1,.4,1.48l-5.81,1.56A.68.68,0,0,1,106.11,53.8Z"/><path class="f49ddda7-1749-4fc2-ae65-62e2c7baddc3" d="M18.46,86.69a.77.77,0,0,1-.38-1.44l5.21-3a.77.77,0,0,1,.77,1.33l-5.21,3A.76.76,0,0,1,18.46,86.69Z"/><path class="f49ddda7-1749-4fc2-ae65-62e2c7baddc3" d="M102.17,42.94a.76.76,0,0,1-.67-.38.77.77,0,0,1,.28-1.05l5.22-3a.77.77,0,0,1,1,.28.78.78,0,0,1-.29,1.06l-5.21,3A.75.75,0,0,1,102.17,42.94Z"/><path class="f49ddda7-1749-4fc2-ae65-62e2c7baddc3" d="M95.56,33.49a.75.75,0,0,1-.54-.22.77.77,0,0,1,0-1.09l4.25-4.26A.77.77,0,0,1,100.36,29l-4.25,4.26A.77.77,0,0,1,95.56,33.49Z"/><path class="f49ddda7-1749-4fc2-ae65-62e2c7baddc3" d="M86.72,26.05a.75.75,0,0,1-.38-.1.76.76,0,0,1-.28-1.05l3-5.21a.77.77,0,0,1,1.34.77l-3,5.21A.76.76,0,0,1,86.72,26.05Z"/><path class="f49ddda7-1749-4fc2-ae65-62e2c7baddc3" d="M76.28,21.16a.64.64,0,0,1-.2,0,.77.77,0,0,1-.55-.94l1.56-5.81a.77.77,0,1,1,1.49.39L77,20.59A.77.77,0,0,1,76.28,21.16Z"/><path class="f49ddda7-1749-4fc2-ae65-62e2c7baddc3" d="M64.9,19.14a.77.77,0,0,1-.77-.77v-6a.77.77,0,1,1,1.54,0v6A.76.76,0,0,1,64.9,19.14Z"/><path class="f49ddda7-1749-4fc2-ae65-62e2c7baddc3" d="M53.4,20.14a.79.79,0,0,1-.75-.57L51.1,13.76a.77.77,0,1,1,1.49-.4l1.55,5.81a.77.77,0,0,1-.54.94Z"/><path class="f49ddda7-1749-4fc2-ae65-62e2c7baddc3" d="M42.55,24.07a.76.76,0,0,1-.67-.39l-3-5.2a.77.77,0,1,1,1.33-.78l3,5.21a.78.78,0,0,1-.66,1.16Z"/><path class="f49ddda7-1749-4fc2-ae65-62e2c7baddc3" d="M33.09,30.68a.77.77,0,0,1-.55-.22L28.29,26.2a.77.77,0,0,1,1.09-1.09l4.25,4.26a.77.77,0,0,1,0,1.09A.76.76,0,0,1,33.09,30.68Z"/><path class="f49ddda7-1749-4fc2-ae65-62e2c7baddc3" d="M105.39,90.14A.76.76,0,0,1,105,90L99.8,87a.77.77,0,1,1,.77-1.33l5.21,3a.77.77,0,0,1-.39,1.44Z"/><path class="f49ddda7-1749-4fc2-ae65-62e2c7baddc3" d="M25.65,39.52a.76.76,0,0,1-.38-.11l-5.21-3a.76.76,0,0,1-.28-1,.77.77,0,0,1,1-.28l5.21,3a.77.77,0,0,1-.39,1.44Z"/><path class="f49ddda7-1749-4fc2-ae65-62e2c7baddc3" d="M110.88,78.23l-.2,0-5.8-1.55a.76.76,0,0,1-.55-.94.78.78,0,0,1,.94-.55l5.81,1.56a.77.77,0,0,1,.55.94A.79.79,0,0,1,110.88,78.23Z"/><path class="f49ddda7-1749-4fc2-ae65-62e2c7baddc3" d="M20.77,50a.64.64,0,0,1-.2,0l-5.81-1.56a.77.77,0,1,1,.39-1.48L21,48.46A.77.77,0,0,1,20.77,50Z"/><path class="af3f19b5-5b1c-443d-8ef9-0735544705d0" d="M64.1,50.22a8.55,8.55,0,1,0,4.45,15.06L96.6,73l-25-15.31A8.55,8.55,0,0,0,64.1,50.22Z"/><path class="f49ddda7-1749-4fc2-ae65-62e2c7baddc3" d="M96.6,73.75a.76.76,0,0,1-.21,0L68.72,66.13A9.23,9.23,0,0,1,62,68a9.32,9.32,0,1,1,2.17-18.51h0a9.27,9.27,0,0,1,8.09,7.74L97,72.32a.77.77,0,0,1-.4,1.43Zm-28-9.24.2,0L91.56,70.8,71.17,58.32a.75.75,0,0,1-.36-.56A7.77,7.77,0,0,0,64,51h0a7.78,7.78,0,1,0,4,13.71A.77.77,0,0,1,68.55,64.51Z"/><path class="f49ddda7-1749-4fc2-ae65-62e2c7baddc3" d="M80.79,88.62H45.06a.77.77,0,0,1-.77-.77V76.7a.77.77,0,0,1,.77-.77H80.79a.78.78,0,0,1,.77.77V87.85A.78.78,0,0,1,80.79,88.62Zm-35-1.54H80V77.47H45.83Z"/><rect class="f49ddda7-1749-4fc2-ae65-62e2c7baddc3" x="53.07" y="80.42" width="3.03" height="3.71"/><rect class="f49ddda7-1749-4fc2-ae65-62e2c7baddc3" x="58.63" y="80.42" width="3.03" height="3.71"/><rect class="f49ddda7-1749-4fc2-ae65-62e2c7baddc3" x="64.18" y="80.42" width="3.03" height="3.71"/><rect class="f49ddda7-1749-4fc2-ae65-62e2c7baddc3" x="69.74" y="80.42" width="3.03" height="3.71"/><path class="f49ddda7-1749-4fc2-ae65-62e2c7baddc3" d="M118.09,100h0L10.63,99.39A.79.79,0,0,1,10,99a64.56,64.56,0,1,1,108.8.61A.8.8,0,0,1,118.09,100Zm-107-2.21,106.57.6a62.94,62.94,0,1,0-106.57-.6Z"/></g></g></svg>