<svg xmlns="http://www.w3.org/2000/svg" width="94.56" height="100" viewBox="0 0 94.56 100"><defs><style>.af8c4b4a-7b14-4fcd-a98e-3e7704596ac1{fill:#e58025;}</style></defs><title>indices</title><g id="b9f4394b-9c0a-412d-88ef-57e0408bee1d" data-name="Layer 2"><g id="ea9161e8-7aab-44a5-83ce-6a6d321af3b1" data-name="Layer 1"><path class="af8c4b4a-7b14-4fcd-a98e-3e7704596ac1" d="M1,59.93a1,1,0,0,1-.69-.29,1,1,0,0,1,0-1.38L34.63,23.91a1,1,0,0,1,1.39,0L52.5,40.39,91.87,1A1,1,0,0,1,93.26,2.4L53.19,42.47a1,1,0,0,1-.69.29h0a1,1,0,0,1-.7-.29L35.33,26,1.67,59.64A1,1,0,0,1,1,59.93Z"/><path class="af8c4b4a-7b14-4fcd-a98e-3e7704596ac1" d="M46.77,100H23.88a1,1,0,0,1-1-1V66.64a3,3,0,0,1,2.94-3h19a3,3,0,0,1,2.94,3V99A1,1,0,0,1,46.77,100ZM24.86,98H45.79V66.64a1,1,0,0,0-1-1h-19a1,1,0,0,0-1,1Z"/><path class="af8c4b4a-7b14-4fcd-a98e-3e7704596ac1" d="M23.88,100H1a1,1,0,0,1-1-1V83.81a2.94,2.94,0,0,1,2.94-2.94h19a2.94,2.94,0,0,1,2.94,2.94V99A1,1,0,0,1,23.88,100ZM2,98H22.9V83.81a1,1,0,0,0-1-1h-19a1,1,0,0,0-1,1Z"/><path class="af8c4b4a-7b14-4fcd-a98e-3e7704596ac1" d="M69.67,100H46.77a1,1,0,0,1-1-1V78.08a2.94,2.94,0,0,1,2.94-2.94h19a2.94,2.94,0,0,1,2.94,2.94V99A1,1,0,0,1,69.67,100ZM47.75,98H68.69v-20a1,1,0,0,0-1-1h-19a1,1,0,0,0-1,1Z"/><path class="af8c4b4a-7b14-4fcd-a98e-3e7704596ac1" d="M92.57,100H69.67a1,1,0,0,1-1-1V49.46a2.94,2.94,0,0,1,2.94-2.94h19a2.94,2.94,0,0,1,2.94,2.94V99A1,1,0,0,1,92.57,100ZM70.65,98H91.59V49.46a1,1,0,0,0-1-1h-19a1,1,0,0,0-1,1Z"/><path class="af8c4b4a-7b14-4fcd-a98e-3e7704596ac1" d="M93.58,15.87a1,1,0,0,1-1-1V2H79.67a1,1,0,0,1,0-2H93.58a1,1,0,0,1,1,1V14.89A1,1,0,0,1,93.58,15.87Z"/><path class="af8c4b4a-7b14-4fcd-a98e-3e7704596ac1" d="M1,59.93a1,1,0,0,1-.69-.29,1,1,0,0,1,0-1.38L34.63,23.91a1,1,0,0,1,1.39,0L52.5,40.39,91.87,1A1,1,0,0,1,93.26,2.4L53.19,42.47a1,1,0,0,1-.69.29h0a1,1,0,0,1-.7-.29L35.33,26,1.67,59.64A1,1,0,0,1,1,59.93Z"/><path class="af8c4b4a-7b14-4fcd-a98e-3e7704596ac1" d="M46.77,100H23.88a1,1,0,0,1-1-1V66.64a3,3,0,0,1,2.94-3h19a3,3,0,0,1,2.94,3V99A1,1,0,0,1,46.77,100ZM24.86,98H45.79V66.64a1,1,0,0,0-1-1h-19a1,1,0,0,0-1,1Z"/><path class="af8c4b4a-7b14-4fcd-a98e-3e7704596ac1" d="M23.88,100H1a1,1,0,0,1-1-1V83.81a2.94,2.94,0,0,1,2.94-2.94h19a2.94,2.94,0,0,1,2.94,2.94V99A1,1,0,0,1,23.88,100ZM2,98H22.9V83.81a1,1,0,0,0-1-1h-19a1,1,0,0,0-1,1Z"/><path class="af8c4b4a-7b14-4fcd-a98e-3e7704596ac1" d="M69.67,100H46.77a1,1,0,0,1-1-1V78.08a2.94,2.94,0,0,1,2.94-2.94h19a2.94,2.94,0,0,1,2.94,2.94V99A1,1,0,0,1,69.67,100ZM47.75,98H68.69v-20a1,1,0,0,0-1-1h-19a1,1,0,0,0-1,1Z"/><path class="af8c4b4a-7b14-4fcd-a98e-3e7704596ac1" d="M92.57,100H69.67a1,1,0,0,1-1-1V49.46a2.94,2.94,0,0,1,2.94-2.94h19a2.94,2.94,0,0,1,2.94,2.94V99A1,1,0,0,1,92.57,100ZM70.65,98H91.59V49.46a1,1,0,0,0-1-1h-19a1,1,0,0,0-1,1Z"/><path class="af8c4b4a-7b14-4fcd-a98e-3e7704596ac1" d="M93.58,15.87a1,1,0,0,1-1-1V2H79.67a1,1,0,0,1,0-2H93.58a1,1,0,0,1,1,1V14.89A1,1,0,0,1,93.58,15.87Z"/><path class="af8c4b4a-7b14-4fcd-a98e-3e7704596ac1" d="M1,59.93a1,1,0,0,1-.69-.29,1,1,0,0,1,0-1.38L34.63,23.91a1,1,0,0,1,1.39,0L52.5,40.39,91.87,1A1,1,0,0,1,93.26,2.4L53.19,42.47a1,1,0,0,1-.69.29h0a1,1,0,0,1-.7-.29L35.33,26,1.67,59.64A1,1,0,0,1,1,59.93Z"/><path class="af8c4b4a-7b14-4fcd-a98e-3e7704596ac1" d="M46.77,100H23.88a1,1,0,0,1-1-1V66.64a3,3,0,0,1,2.94-3h19a3,3,0,0,1,2.94,3V99A1,1,0,0,1,46.77,100ZM24.86,98H45.79V66.64a1,1,0,0,0-1-1h-19a1,1,0,0,0-1,1Z"/><path class="af8c4b4a-7b14-4fcd-a98e-3e7704596ac1" d="M23.88,100H1a1,1,0,0,1-1-1V83.81a2.94,2.94,0,0,1,2.94-2.94h19a2.94,2.94,0,0,1,2.94,2.94V99A1,1,0,0,1,23.88,100ZM2,98H22.9V83.81a1,1,0,0,0-1-1h-19a1,1,0,0,0-1,1Z"/><path class="af8c4b4a-7b14-4fcd-a98e-3e7704596ac1" d="M69.67,100H46.77a1,1,0,0,1-1-1V78.08a2.94,2.94,0,0,1,2.94-2.94h19a2.94,2.94,0,0,1,2.94,2.94V99A1,1,0,0,1,69.67,100ZM47.75,98H68.69v-20a1,1,0,0,0-1-1h-19a1,1,0,0,0-1,1Z"/><path class="af8c4b4a-7b14-4fcd-a98e-3e7704596ac1" d="M92.57,100H69.67a1,1,0,0,1-1-1V49.46a2.94,2.94,0,0,1,2.94-2.94h19a2.94,2.94,0,0,1,2.94,2.94V99A1,1,0,0,1,92.57,100ZM70.65,98H91.59V49.46a1,1,0,0,0-1-1h-19a1,1,0,0,0-1,1Z"/><path class="af8c4b4a-7b14-4fcd-a98e-3e7704596ac1" d="M93.58,15.87a1,1,0,0,1-1-1V2H79.67a1,1,0,0,1,0-2H93.58a1,1,0,0,1,1,1V14.89A1,1,0,0,1,93.58,15.87Z"/><path class="af8c4b4a-7b14-4fcd-a98e-3e7704596ac1" d="M1,59.93a1,1,0,0,1-.69-.29,1,1,0,0,1,0-1.38L34.63,23.91a1,1,0,0,1,1.39,0L52.5,40.39,91.87,1A1,1,0,0,1,93.26,2.4L53.19,42.47a1,1,0,0,1-.69.29h0a1,1,0,0,1-.7-.29L35.33,26,1.67,59.64A1,1,0,0,1,1,59.93Z"/><path class="af8c4b4a-7b14-4fcd-a98e-3e7704596ac1" d="M46.77,100H23.88a1,1,0,0,1-1-1V66.64a3,3,0,0,1,2.94-3h19a3,3,0,0,1,2.94,3V99A1,1,0,0,1,46.77,100ZM24.86,98H45.79V66.64a1,1,0,0,0-1-1h-19a1,1,0,0,0-1,1Z"/><path class="af8c4b4a-7b14-4fcd-a98e-3e7704596ac1" d="M23.88,100H1a1,1,0,0,1-1-1V83.81a2.94,2.94,0,0,1,2.94-2.94h19a2.94,2.94,0,0,1,2.94,2.94V99A1,1,0,0,1,23.88,100ZM2,98H22.9V83.81a1,1,0,0,0-1-1h-19a1,1,0,0,0-1,1Z"/><path class="af8c4b4a-7b14-4fcd-a98e-3e7704596ac1" d="M69.67,100H46.77a1,1,0,0,1-1-1V78.08a2.94,2.94,0,0,1,2.94-2.94h19a2.94,2.94,0,0,1,2.94,2.94V99A1,1,0,0,1,69.67,100ZM47.75,98H68.69v-20a1,1,0,0,0-1-1h-19a1,1,0,0,0-1,1Z"/><path class="af8c4b4a-7b14-4fcd-a98e-3e7704596ac1" d="M92.57,100H69.67a1,1,0,0,1-1-1V49.46a2.94,2.94,0,0,1,2.94-2.94h19a2.94,2.94,0,0,1,2.94,2.94V99A1,1,0,0,1,92.57,100ZM70.65,98H91.59V49.46a1,1,0,0,0-1-1h-19a1,1,0,0,0-1,1Z"/><path class="af8c4b4a-7b14-4fcd-a98e-3e7704596ac1" d="M93.58,15.87a1,1,0,0,1-1-1V2H79.67a1,1,0,0,1,0-2H93.58a1,1,0,0,1,1,1V14.89A1,1,0,0,1,93.58,15.87Z"/></g></g></svg>