<svg xmlns="http://www.w3.org/2000/svg" width="100" height="100" viewBox="0 0 100 100"><defs><style>.fdd4a549-6837-425c-a1df-116b0be5e989{fill:#fff;}.bbad4405-40ae-4a9b-a025-68e95602fe3b,.eaa0fe8c-410c-457f-a5bb-4b2055a5f973{fill:#e98024;}.bbad4405-40ae-4a9b-a025-68e95602fe3b{fill-rule:evenodd;}</style></defs><title>reset-call-pull</title><g id="afe4260e-3d42-4378-9879-0d68f206d056" data-name="Layer 2"><g id="f4eb8b97-28d0-40e9-8af0-736c98dfee8d" data-name="Layer 1"><g id="fe527d27-37ef-49c5-ab28-6791e458855b" data-name="Oval"><circle class="fdd4a549-6837-425c-a1df-116b0be5e989" cx="67.5" cy="67.5" r="31.25"/></g><path class="eaa0fe8c-410c-457f-a5bb-4b2055a5f973" d="M67.5,37.5a30,30,0,1,1-30,30A30,30,0,0,1,67.5,37.5Zm0-2.5A32.5,32.5,0,1,0,100,67.5,32.5,32.5,0,0,0,67.5,35Z"/><path class="bbad4405-40ae-4a9b-a025-68e95602fe3b" d="M78.75,71.25a1.25,1.25,0,0,0,0,2.5h5A1.25,1.25,0,0,0,85,72.5v-5a1.25,1.25,0,0,0-2.5,0v3.75Z"/><path class="eaa0fe8c-410c-457f-a5bb-4b2055a5f973" d="M51.25,78.75a1.23,1.23,0,0,1-.79-.28,1.25,1.25,0,0,1-.18-1.76l16.25-20a1.24,1.24,0,0,1,1.81-.13l15,13.75a1.25,1.25,0,1,1-1.68,1.84l-14-12.85-15.41,19A1.27,1.27,0,0,1,51.25,78.75Z"/><path class="eaa0fe8c-410c-457f-a5bb-4b2055a5f973" d="M67.5,78.75a1.25,1.25,0,0,1-1.25-1.25V75a1.25,1.25,0,0,1,2.5,0v2.5A1.25,1.25,0,0,1,67.5,78.75Zm0-7.5A1.25,1.25,0,0,1,66.25,70V67.5a1.25,1.25,0,0,1,2.5,0V70A1.25,1.25,0,0,1,67.5,71.25Zm0-7.5a1.25,1.25,0,0,1-1.25-1.25V60a1.25,1.25,0,0,1,1.25-1.25H48.75a1.25,1.25,0,0,1,0-2.5h37.5a1.25,1.25,0,0,1,0,2.5H67.5A1.25,1.25,0,0,1,68.75,60v2.5A1.25,1.25,0,0,1,67.5,63.75Z"/><circle class="fdd4a549-6837-425c-a1df-116b0be5e989" cx="32.5" cy="32.5" r="31.25"/><path class="eaa0fe8c-410c-457f-a5bb-4b2055a5f973" d="M32.5,2.5a30,30,0,1,1-30,30A30,30,0,0,1,32.5,2.5Zm0-2.5a32.5,32.5,0,1,0,23,9.52A32.5,32.5,0,0,0,32.5,0Z"/><path class="bbad4405-40ae-4a9b-a025-68e95602fe3b" d="M47.5,28.75V32.5a1.25,1.25,0,0,0,2.5,0v-5a1.25,1.25,0,0,0-1.25-1.25h-5a1.25,1.25,0,0,0,0,2.5Z"/><path class="eaa0fe8c-410c-457f-a5bb-4b2055a5f973" d="M32.5,43.75h-.09a1.26,1.26,0,0,1-.88-.46l-16.25-20a1.25,1.25,0,1,1,1.94-1.58l15.41,19,14-12.85a1.25,1.25,0,1,1,1.68,1.84l-15,13.75A1.25,1.25,0,0,1,32.5,43.75Z"/><path class="eaa0fe8c-410c-457f-a5bb-4b2055a5f973" d="M51.25,23.55h-2.5a1.25,1.25,0,0,1,0-2.5h2.5a1.25,1.25,0,0,1,0,2.5Zm-8.75,0H40a1.25,1.25,0,0,1,0-2.5h2.5a1.25,1.25,0,0,1,0,2.5Zm-8.75,0h-2.5a1.25,1.25,0,0,1,0-2.5h2.5a1.25,1.25,0,0,1,0,2.5Zm-8.75,0H22.5a1.25,1.25,0,0,1,0-2.5H25a1.25,1.25,0,0,1,0,2.5Zm-8.75,0h-2.5a1.25,1.25,0,1,1,0-2.5h2.5a1.25,1.25,0,0,1,0,2.5Z"/><path class="eaa0fe8c-410c-457f-a5bb-4b2055a5f973" d="M86.25,78.9h-2.5a1.25,1.25,0,0,1,0-2.5h2.5a1.25,1.25,0,0,1,0,2.5Zm-8.75,0H75a1.25,1.25,0,0,1,0-2.5h2.5a1.25,1.25,0,0,1,0,2.5Zm-8.75,0h-2.5a1.25,1.25,0,0,1,0-2.5h2.5a1.25,1.25,0,0,1,0,2.5ZM60,78.9H57.5a1.25,1.25,0,0,1,0-2.5H60a1.25,1.25,0,0,1,0,2.5Zm-8.75,0h-2.5a1.25,1.25,0,0,1,0-2.5h2.5a1.25,1.25,0,0,1,0,2.5Z"/><path class="eaa0fe8c-410c-457f-a5bb-4b2055a5f973" d="M51.25,43.75H13.75a1.25,1.25,0,0,1,0-2.5h17.5v-2.5a1.25,1.25,0,0,1,2.5,0v2.5h17.5a1.25,1.25,0,0,1,0,2.5ZM32.5,35a1.25,1.25,0,0,1-1.25-1.25v-2.5a1.25,1.25,0,0,1,2.5,0v2.5A1.25,1.25,0,0,1,32.5,35Zm0-7.5a1.25,1.25,0,0,1-1.25-1.25v-2.5a1.25,1.25,0,0,1,2.5,0v2.5A1.25,1.25,0,0,1,32.5,27.5Z"/></g></g></svg>