<svg xmlns="http://www.w3.org/2000/svg" width="100" height="100" viewBox="0 0 100 100"><defs><style>.fb829723-958a-49d7-bf14-e42b357b1ede{fill:#ec7623;}.a9ab78f1-3d07-460f-9c79-5d5c7de98286{fill:#e38025;}</style></defs><title>turnover</title><g id="efcd3f8e-5ec4-4ad3-93f0-5179f2cdce1a" data-name="Layer 2"><g id="af6f945f-caaf-42e3-a32a-961d4816c15d" data-name="Layer 1"><path class="fb829723-958a-49d7-bf14-e42b357b1ede" d="M44.7,28.09H2.59A2.58,2.58,0,0,1,0,25.52V2.79A2.59,2.59,0,0,1,2.59.21H44.7a2.59,2.59,0,0,1,2.59,2.58V25.52A2.58,2.58,0,0,1,44.7,28.09ZM2.59,1.79a1,1,0,0,0-1,1V25.52a1,1,0,0,0,1,1H44.7a1,1,0,0,0,1-1V2.79a1,1,0,0,0-1-1ZM42.9,24.52H4.4a.79.79,0,0,1-.79-.79V4.57a.79.79,0,0,1,.79-.79H42.9a.8.8,0,0,1,.79.79V23.73A.79.79,0,0,1,42.9,24.52ZM5.19,23H42.11V5.36H5.19Z"/><path class="fb829723-958a-49d7-bf14-e42b357b1ede" d="M23.65,20.47a6.19,6.19,0,0,1-6-6.32,6.18,6.18,0,0,1,6-6.31,6.18,6.18,0,0,1,6,6.31A6.19,6.19,0,0,1,23.65,20.47Zm0-11a4.56,4.56,0,0,0-4.39,4.69,4.55,4.55,0,0,0,4.39,4.69A4.55,4.55,0,0,0,28,14.15,4.56,4.56,0,0,0,23.65,9.46Z"/><path class="fb829723-958a-49d7-bf14-e42b357b1ede" d="M37.7,68.65a1,1,0,0,1-.67-.26A1,1,0,0,1,37,67L51.82,51a1.39,1.39,0,0,0,.37-1L51.94,20a1,1,0,0,1,1-1h0a1,1,0,0,1,1,1L54.16,50a3.29,3.29,0,0,1-.91,2.31l-14.83,16A1,1,0,0,1,37.7,68.65Z"/><path class="fb829723-958a-49d7-bf14-e42b357b1ede" d="M52.66,100c-22.4,0-41.9-16.79-46.38-39.94a1,1,0,0,1,.78-1.14,1,1,0,0,1,1.15.77C12.51,81.91,31.2,98,52.66,98,77.68,98,98,76.49,98,50S77.68,2,52.66,2a1,1,0,1,1,0-2C78.76,0,100,22.43,100,50S78.76,100,52.66,100Z"/><path class="fb829723-958a-49d7-bf14-e42b357b1ede" d="M1.19,70.61a.75.75,0,0,1-.38-.1A.81.81,0,0,1,.46,69.4l5.76-11a.87.87,0,0,1,.5-.42.82.82,0,0,1,.65.09l10.38,6.09A.83.83,0,0,1,18,65.32a.82.82,0,0,1-1.13.29L7.28,60,1.93,70.17A.84.84,0,0,1,1.19,70.61Z"/><path class="fb829723-958a-49d7-bf14-e42b357b1ede" d="M44.7,28.09H2.59A2.58,2.58,0,0,1,0,25.52V2.79A2.59,2.59,0,0,1,2.59.21H44.7a2.59,2.59,0,0,1,2.59,2.58V25.52A2.58,2.58,0,0,1,44.7,28.09ZM2.59,1.79a1,1,0,0,0-1,1V25.52a1,1,0,0,0,1,1H44.7a1,1,0,0,0,1-1V2.79a1,1,0,0,0-1-1ZM42.9,24.52H4.4a.79.79,0,0,1-.79-.79V4.57a.79.79,0,0,1,.79-.79H42.9a.8.8,0,0,1,.79.79V23.73A.79.79,0,0,1,42.9,24.52ZM5.19,23H42.11V5.36H5.19Z"/><path class="fb829723-958a-49d7-bf14-e42b357b1ede" d="M23.65,20.47a6.19,6.19,0,0,1-6-6.32,6.18,6.18,0,0,1,6-6.31,6.18,6.18,0,0,1,6,6.31A6.19,6.19,0,0,1,23.65,20.47Zm0-11a4.56,4.56,0,0,0-4.39,4.69,4.55,4.55,0,0,0,4.39,4.69A4.55,4.55,0,0,0,28,14.15,4.56,4.56,0,0,0,23.65,9.46Z"/><path class="fb829723-958a-49d7-bf14-e42b357b1ede" d="M37.7,68.65a1,1,0,0,1-.67-.26A1,1,0,0,1,37,67L51.82,51a1.39,1.39,0,0,0,.37-1L51.94,20a1,1,0,0,1,1-1h0a1,1,0,0,1,1,1L54.16,50a3.29,3.29,0,0,1-.91,2.31l-14.83,16A1,1,0,0,1,37.7,68.65Z"/><path class="fb829723-958a-49d7-bf14-e42b357b1ede" d="M52.66,100c-22.4,0-41.9-16.79-46.38-39.94a1,1,0,0,1,.78-1.14,1,1,0,0,1,1.15.77C12.51,81.91,31.2,98,52.66,98,77.68,98,98,76.49,98,50S77.68,2,52.66,2a1,1,0,1,1,0-2C78.76,0,100,22.43,100,50S78.76,100,52.66,100Z"/><path class="a9ab78f1-3d07-460f-9c79-5d5c7de98286" d="M1.19,70.61a.75.75,0,0,1-.38-.1A.81.81,0,0,1,.46,69.4l5.76-11a.87.87,0,0,1,.5-.42.82.82,0,0,1,.65.09l10.38,6.09A.83.83,0,0,1,18,65.32a.82.82,0,0,1-1.13.29L7.28,60,1.93,70.17A.84.84,0,0,1,1.19,70.61Z"/></g></g></svg>