<svg xmlns="http://www.w3.org/2000/svg" width="99.32" height="100" viewBox="0 0 99.32 100"><defs><style>.bde60335-bb50-44ff-ba39-b7751c0e3a6f{fill:#e58025;}</style></defs><title>volatility-indices</title><g id="a4b2827a-2751-48d9-9ee7-2852b4b37b5e" data-name="Layer 2"><g id="eb9b8eed-0c7f-44d3-a865-46e563cc6fe9" data-name="Layer 1"><path class="bde60335-bb50-44ff-ba39-b7751c0e3a6f" d="M98.34,100H2.94A2.94,2.94,0,0,1,0,97.06V1A1,1,0,0,1,2,1V97.06a1,1,0,0,0,1,1h95.4a1,1,0,1,1,0,2Z"/><path class="bde60335-bb50-44ff-ba39-b7751c0e3a6f" d="M81.83,71.53H65a1,1,0,0,1-.7-.3L53.11,59.9,41.36,70.7a1,1,0,0,1-1.35,0c-.21-.21-21.44-20.85-28.88-28.14l-.27-.27a1,1,0,1,1,1.37-1.4l.27.27C19.19,47.7,37,65.06,40.71,68.63L52.48,57.82a1,1,0,0,1,1.37,0L65.38,69.57H81.83a1,1,0,0,1,0,2Z"/><path class="bde60335-bb50-44ff-ba39-b7751c0e3a6f" d="M11.42,74.78a1,1,0,0,1-.7-1.67l16.21-16.4L39.42,44.4a1,1,0,0,1,.69-.28H63L81.06,26a1,1,0,0,1,1.39,0,1,1,0,0,1,0,1.38L64.1,45.79a1,1,0,0,1-.7.29H40.51l-12.19,12L12.11,74.48A1,1,0,0,1,11.42,74.78Z"/><path class="bde60335-bb50-44ff-ba39-b7751c0e3a6f" d="M81.82,41.77a1,1,0,0,1-1-1V27.57H67.62a1,1,0,1,1,0-2h14.2a1,1,0,0,1,1,1v14.2A1,1,0,0,1,81.82,41.77Z"/><path class="bde60335-bb50-44ff-ba39-b7751c0e3a6f" d="M73.44,81.72a1,1,0,0,1-.68-.27,1,1,0,0,1,0-1.39l9.14-9.55-9.55-9.14A1,1,0,1,1,73.67,60l10.26,9.82a1,1,0,0,1,0,1.38L74.15,81.42A1,1,0,0,1,73.44,81.72Z"/><path class="bde60335-bb50-44ff-ba39-b7751c0e3a6f" d="M98.34,100H2.94A2.94,2.94,0,0,1,0,97.06V1A1,1,0,0,1,2,1V97.06a1,1,0,0,0,1,1h95.4a1,1,0,1,1,0,2Z"/><path class="bde60335-bb50-44ff-ba39-b7751c0e3a6f" d="M81.83,71.53H65a1,1,0,0,1-.7-.3L53.11,59.9,41.36,70.7a1,1,0,0,1-1.35,0c-.21-.21-21.44-20.85-28.88-28.14l-.27-.27a1,1,0,1,1,1.37-1.4l.27.27C19.19,47.7,37,65.06,40.71,68.63L52.48,57.82a1,1,0,0,1,1.37,0L65.38,69.57H81.83a1,1,0,0,1,0,2Z"/><path class="bde60335-bb50-44ff-ba39-b7751c0e3a6f" d="M11.42,74.78a1,1,0,0,1-.7-1.67l16.21-16.4L39.42,44.4a1,1,0,0,1,.69-.28H63L81.06,26a1,1,0,0,1,1.39,0,1,1,0,0,1,0,1.38L64.1,45.79a1,1,0,0,1-.7.29H40.51l-12.19,12L12.11,74.48A1,1,0,0,1,11.42,74.78Z"/><path class="bde60335-bb50-44ff-ba39-b7751c0e3a6f" d="M81.82,41.77a1,1,0,0,1-1-1V27.57H67.62a1,1,0,1,1,0-2h14.2a1,1,0,0,1,1,1v14.2A1,1,0,0,1,81.82,41.77Z"/><path class="bde60335-bb50-44ff-ba39-b7751c0e3a6f" d="M73.44,81.72a1,1,0,0,1-.68-.27,1,1,0,0,1,0-1.39l9.14-9.55-9.55-9.14A1,1,0,1,1,73.67,60l10.26,9.82a1,1,0,0,1,0,1.38L74.15,81.42A1,1,0,0,1,73.44,81.72Z"/><path class="bde60335-bb50-44ff-ba39-b7751c0e3a6f" d="M98.34,100H2.94A2.94,2.94,0,0,1,0,97.06V1A1,1,0,0,1,2,1V97.06a1,1,0,0,0,1,1h95.4a1,1,0,1,1,0,2Z"/><path class="bde60335-bb50-44ff-ba39-b7751c0e3a6f" d="M81.83,71.53H65a1,1,0,0,1-.7-.3L53.11,59.9,41.36,70.7a1,1,0,0,1-1.35,0c-.21-.21-21.44-20.85-28.88-28.14l-.27-.27a1,1,0,1,1,1.37-1.4l.27.27C19.19,47.7,37,65.06,40.71,68.63L52.48,57.82a1,1,0,0,1,1.37,0L65.38,69.57H81.83a1,1,0,0,1,0,2Z"/><path class="bde60335-bb50-44ff-ba39-b7751c0e3a6f" d="M11.42,74.78a1,1,0,0,1-.7-1.67l16.21-16.4L39.42,44.4a1,1,0,0,1,.69-.28H63L81.06,26a1,1,0,0,1,1.39,0,1,1,0,0,1,0,1.38L64.1,45.79a1,1,0,0,1-.7.29H40.51l-12.19,12L12.11,74.48A1,1,0,0,1,11.42,74.78Z"/><path class="bde60335-bb50-44ff-ba39-b7751c0e3a6f" d="M81.82,41.77a1,1,0,0,1-1-1V27.57H67.62a1,1,0,1,1,0-2h14.2a1,1,0,0,1,1,1v14.2A1,1,0,0,1,81.82,41.77Z"/><path class="bde60335-bb50-44ff-ba39-b7751c0e3a6f" d="M73.44,81.72a1,1,0,0,1-.68-.27,1,1,0,0,1,0-1.39l9.14-9.55-9.55-9.14A1,1,0,1,1,73.67,60l10.26,9.82a1,1,0,0,1,0,1.38L74.15,81.42A1,1,0,0,1,73.44,81.72Z"/><path class="bde60335-bb50-44ff-ba39-b7751c0e3a6f" d="M98.34,100H2.94A2.94,2.94,0,0,1,0,97.06V1A1,1,0,0,1,2,1V97.06a1,1,0,0,0,1,1h95.4a1,1,0,1,1,0,2Z"/><path class="bde60335-bb50-44ff-ba39-b7751c0e3a6f" d="M81.83,71.53H65a1,1,0,0,1-.7-.3L53.11,59.9,41.36,70.7a1,1,0,0,1-1.35,0c-.21-.21-21.44-20.85-28.88-28.14l-.27-.27a1,1,0,1,1,1.37-1.4l.27.27C19.19,47.7,37,65.06,40.71,68.63L52.48,57.82a1,1,0,0,1,1.37,0L65.38,69.57H81.83a1,1,0,0,1,0,2Z"/><path class="bde60335-bb50-44ff-ba39-b7751c0e3a6f" d="M11.42,74.78a1,1,0,0,1-.7-1.67l16.21-16.4L39.42,44.4a1,1,0,0,1,.69-.28H63L81.06,26a1,1,0,0,1,1.39,0,1,1,0,0,1,0,1.38L64.1,45.79a1,1,0,0,1-.7.29H40.51l-12.19,12L12.11,74.48A1,1,0,0,1,11.42,74.78Z"/><path class="bde60335-bb50-44ff-ba39-b7751c0e3a6f" d="M81.82,41.77a1,1,0,0,1-1-1V27.57H67.62a1,1,0,1,1,0-2h14.2a1,1,0,0,1,1,1v14.2A1,1,0,0,1,81.82,41.77Z"/><path class="bde60335-bb50-44ff-ba39-b7751c0e3a6f" d="M73.44,81.72a1,1,0,0,1-.68-.27,1,1,0,0,1,0-1.39l9.14-9.55-9.55-9.14A1,1,0,1,1,73.67,60l10.26,9.82a1,1,0,0,1,0,1.38L74.15,81.42A1,1,0,0,1,73.44,81.72Z"/></g></g></svg>