<svg xmlns="http://www.w3.org/2000/svg" width="133.19" height="100" viewBox="0 0 133.19 100"><defs><style>.a25832ad-14ad-4406-b588-d712b0e9187d{fill:#e58025;}</style></defs><title>volatility-indices-account</title><g id="f0214fd3-d4eb-4d93-8e56-302815191991" data-name="Layer 2"><g id="b303201d-f9ba-4088-8b1f-d1825f51a767" data-name="Layer 1"><path class="a25832ad-14ad-4406-b588-d712b0e9187d" d="M106.34,59.34a26.85,26.85,0,0,1-1.26-53.68,1.32,1.32,0,0,1,1.37,1.25,1.3,1.3,0,0,1-1.25,1.37,24.25,24.25,0,1,0,17.12,6,1.31,1.31,0,0,1,1.73-2,26.86,26.86,0,0,1-17.71,47Z"/><path class="a25832ad-14ad-4406-b588-d712b0e9187d" d="M105.93,33.38h0A1.31,1.31,0,0,1,104.62,32l.32-11.34a1.32,1.32,0,1,1,2.63.07l-.33,11.35A1.31,1.31,0,0,1,105.93,33.38Z"/><path class="a25832ad-14ad-4406-b588-d712b0e9187d" d="M120.61,33.73h0l-14.68,0a1.31,1.31,0,0,1,0-2.62h0l14.67,0a1.32,1.32,0,0,1,1.31,1.32A1.31,1.31,0,0,1,120.61,33.73Z"/><path class="a25832ad-14ad-4406-b588-d712b0e9187d" d="M101.11,16.2a1.31,1.31,0,0,1-.73-.23,1.3,1.3,0,0,1-.36-1.82l4.71-7L97.65,2.41A1.32,1.32,0,0,1,99.11.22L106.29,5a2.52,2.52,0,0,1,1.07,1.6A2.55,2.55,0,0,1,107,8.49l-4.78,7.13A1.33,1.33,0,0,1,101.11,16.2Z"/><path class="a25832ad-14ad-4406-b588-d712b0e9187d" d="M82.47,100H6.39A6.39,6.39,0,0,1,0,93.61c0-.07,0-.14,0-.22s0-.12,0-.2C0,70.34,19.93,51.75,44.43,51.75S88.85,70.34,88.85,93.19a1.48,1.48,0,0,1,0,.21,1.41,1.41,0,0,1,0,.21A6.39,6.39,0,0,1,82.47,100ZM2.63,93.67a3.76,3.76,0,0,0,3.76,3.7H82.47a3.75,3.75,0,0,0,3.75-3.7c0-.08,0-.15,0-.22v-.1c0-.08,0-.15,0-.22,0-21.38-18.77-38.76-41.79-38.76S2.66,71.75,2.63,93.12a2.32,2.32,0,0,1,0,.24A2.16,2.16,0,0,1,2.63,93.67Z"/><path class="a25832ad-14ad-4406-b588-d712b0e9187d" d="M82.47,99.34H6.39A5.74,5.74,0,0,1,.66,93.61a.75.75,0,0,1,0-.21,1.49,1.49,0,0,1,0-.21c0-22.49,19.63-40.78,43.77-40.78S88.19,70.7,88.19,93.19a2.21,2.21,0,0,0,0,.42A5.73,5.73,0,0,1,82.47,99.34Zm-38-45.62C21,53.72,2,71.42,2,93.19a1.37,1.37,0,0,1,0,.19,1.18,1.18,0,0,1,0,.22A4.42,4.42,0,0,0,6.39,98H82.47a4.42,4.42,0,0,0,4.41-4.42,1.37,1.37,0,0,1,0-.19,1.18,1.18,0,0,1,0-.22h0C86.88,71.42,67.84,53.72,44.43,53.72Z"/><path class="a25832ad-14ad-4406-b588-d712b0e9187d" d="M82.47,99.34H6.39A5.74,5.74,0,0,1,.66,93.61a.75.75,0,0,1,0-.21,1.49,1.49,0,0,1,0-.21c0-22.49,19.63-40.78,43.77-40.78S88.19,70.7,88.19,93.19a2.21,2.21,0,0,0,0,.42A5.73,5.73,0,0,1,82.47,99.34Zm-38-45.62C21,53.72,2,71.42,2,93.19a1.37,1.37,0,0,1,0,.19,1.18,1.18,0,0,1,0,.22A4.42,4.42,0,0,0,6.39,98H82.47a4.42,4.42,0,0,0,4.41-4.42,1.37,1.37,0,0,1,0-.19,1.18,1.18,0,0,1,0-.22h0C86.88,71.42,67.84,53.72,44.43,53.72Z"/><path class="a25832ad-14ad-4406-b588-d712b0e9187d" d="M43.11,48.4A24,24,0,0,1,19,24.49a24.14,24.14,0,0,1,48.27,0A24.06,24.06,0,0,1,43.11,48.4Zm0-45.2A21.43,21.43,0,0,0,21.6,24.49a21.51,21.51,0,0,0,43,0A21.43,21.43,0,0,0,43.11,3.2Z"/><path class="a25832ad-14ad-4406-b588-d712b0e9187d" d="M106.34,59A26.51,26.51,0,0,1,105.1,6a.93.93,0,0,1,1,.92,1,1,0,0,1-.92,1A24.57,24.57,0,1,0,122.55,14a1,1,0,1,1,1.28-1.46A26.52,26.52,0,0,1,106.34,59Z"/><path class="a25832ad-14ad-4406-b588-d712b0e9187d" d="M106.34,59A26.51,26.51,0,0,1,105.1,6a.93.93,0,0,1,1,.92,1,1,0,0,1-.92,1A24.57,24.57,0,1,0,122.55,14a1,1,0,1,1,1.28-1.46A26.52,26.52,0,0,1,106.34,59Z"/><path class="a25832ad-14ad-4406-b588-d712b0e9187d" d="M105.93,33h0a1,1,0,0,1-1-1l.33-11.35a1,1,0,0,1,1-.94,1,1,0,0,1,1,1L106.9,32.1A1,1,0,0,1,105.93,33Z"/><path class="a25832ad-14ad-4406-b588-d712b0e9187d" d="M105.93,33h0a1,1,0,0,1-1-1l.33-11.35a1,1,0,0,1,1-.94,1,1,0,0,1,1,1L106.9,32.1A1,1,0,0,1,105.93,33Z"/><path class="a25832ad-14ad-4406-b588-d712b0e9187d" d="M120.61,33.39h0l-14.68,0a1,1,0,1,1,0-1.94h0l14.67,0a1,1,0,0,1,0,1.95Z"/><path class="a25832ad-14ad-4406-b588-d712b0e9187d" d="M120.61,33.39h0l-14.68,0a1,1,0,1,1,0-1.94h0l14.67,0a1,1,0,0,1,0,1.95Z"/><path class="a25832ad-14ad-4406-b588-d712b0e9187d" d="M101.11,15.86a1,1,0,0,1-.54-.17,1,1,0,0,1-.27-1.35l4.78-7.13a.2.2,0,0,0,0-.17.19.19,0,0,0-.1-.14L97.84,2.12A1,1,0,1,1,98.92.5l7.18,4.79A2.23,2.23,0,0,1,107,6.67a2.27,2.27,0,0,1-.33,1.63l-4.78,7.13A1,1,0,0,1,101.11,15.86Z"/><path class="a25832ad-14ad-4406-b588-d712b0e9187d" d="M101.11,15.86a1,1,0,0,1-.54-.17,1,1,0,0,1-.27-1.35l4.78-7.13a.2.2,0,0,0,0-.17.19.19,0,0,0-.1-.14L97.84,2.12A1,1,0,1,1,98.92.5l7.18,4.79A2.23,2.23,0,0,1,107,6.67a2.27,2.27,0,0,1-.33,1.63l-4.78,7.13A1,1,0,0,1,101.11,15.86Z"/><path class="a25832ad-14ad-4406-b588-d712b0e9187d" d="M82.47,99.66H6.39a6.05,6.05,0,0,1-6-6,1.49,1.49,0,0,1,0-.21,1.65,1.65,0,0,1,0-.21c0-22.67,19.78-41.1,44.09-41.1s44.08,18.43,44.08,41.1a1.48,1.48,0,0,1,0,.21,1.62,1.62,0,0,1,0,.21A6,6,0,0,1,82.47,99.66ZM44.43,54C21.19,54,2.29,71.6,2.29,93.19a.74.74,0,0,1,0,.18,1.8,1.8,0,0,1,0,.28,4.1,4.1,0,0,0,4.1,4.06H82.47a4.1,4.1,0,0,0,4.09-4.1s0-.1,0-.17,0-.22,0-.28v0C86.56,71.6,67.66,54,44.43,54Z"/><path class="a25832ad-14ad-4406-b588-d712b0e9187d" d="M82.47,99.66H6.39a6.05,6.05,0,0,1-6-6,1.49,1.49,0,0,1,0-.21,1.65,1.65,0,0,1,0-.21c0-22.67,19.78-41.1,44.09-41.1s44.08,18.43,44.08,41.1a1.48,1.48,0,0,1,0,.21,1.62,1.62,0,0,1,0,.21A6,6,0,0,1,82.47,99.66ZM44.43,54C21.19,54,2.29,71.6,2.29,93.19a.74.74,0,0,1,0,.18,1.8,1.8,0,0,1,0,.28,4.1,4.1,0,0,0,4.1,4.06H82.47a4.1,4.1,0,0,0,4.09-4.1s0-.1,0-.17,0-.22,0-.28v0C86.56,71.6,67.66,54,44.43,54Z"/><path class="a25832ad-14ad-4406-b588-d712b0e9187d" d="M82.47,99.66H6.39a6.05,6.05,0,0,1-6-6,1.49,1.49,0,0,1,0-.21,1.65,1.65,0,0,1,0-.21c0-22.67,19.78-41.1,44.09-41.1s44.08,18.43,44.08,41.1a1.48,1.48,0,0,1,0,.21,1.62,1.62,0,0,1,0,.21A6,6,0,0,1,82.47,99.66ZM44.43,54C21.19,54,2.29,71.6,2.29,93.19a.74.74,0,0,1,0,.18,1.8,1.8,0,0,1,0,.28,4.1,4.1,0,0,0,4.1,4.06H82.47a4.1,4.1,0,0,0,4.09-4.1s0-.1,0-.17,0-.22,0-.28v0C86.56,71.6,67.66,54,44.43,54Z"/><path class="a25832ad-14ad-4406-b588-d712b0e9187d" d="M82.47,99.66H6.39a6.05,6.05,0,0,1-6-6,1.49,1.49,0,0,1,0-.21,1.65,1.65,0,0,1,0-.21c0-22.67,19.78-41.1,44.09-41.1s44.08,18.43,44.08,41.1a1.48,1.48,0,0,1,0,.21,1.62,1.62,0,0,1,0,.21A6,6,0,0,1,82.47,99.66ZM44.43,54C21.19,54,2.29,71.6,2.29,93.19a.74.74,0,0,1,0,.18,1.8,1.8,0,0,1,0,.28,4.1,4.1,0,0,0,4.1,4.06H82.47a4.1,4.1,0,0,0,4.09-4.1s0-.1,0-.17,0-.22,0-.28v0C86.56,71.6,67.66,54,44.43,54Z"/><path class="a25832ad-14ad-4406-b588-d712b0e9187d" d="M82.47,99.66H6.39a6.05,6.05,0,0,1-6-6,1.49,1.49,0,0,1,0-.21,1.65,1.65,0,0,1,0-.21c0-22.67,19.78-41.1,44.09-41.1s44.08,18.43,44.08,41.1a1.48,1.48,0,0,1,0,.21,1.62,1.62,0,0,1,0,.21A6,6,0,0,1,82.47,99.66ZM44.43,54C21.19,54,2.29,71.6,2.29,93.19a.74.74,0,0,1,0,.18,1.8,1.8,0,0,1,0,.28,4.1,4.1,0,0,0,4.1,4.06H82.47a4.1,4.1,0,0,0,4.09-4.1s0-.1,0-.17,0-.22,0-.28v0C86.56,71.6,67.66,54,44.43,54Z"/><path class="a25832ad-14ad-4406-b588-d712b0e9187d" d="M82.47,99.66H6.39a6.05,6.05,0,0,1-6-6,1.49,1.49,0,0,1,0-.21,1.65,1.65,0,0,1,0-.21c0-22.67,19.78-41.1,44.09-41.1s44.08,18.43,44.08,41.1a1.48,1.48,0,0,1,0,.21,1.62,1.62,0,0,1,0,.21A6,6,0,0,1,82.47,99.66ZM44.43,54C21.19,54,2.29,71.6,2.29,93.19a.74.74,0,0,1,0,.18,1.8,1.8,0,0,1,0,.28,4.1,4.1,0,0,0,4.1,4.06H82.47a4.1,4.1,0,0,0,4.09-4.1s0-.1,0-.17,0-.22,0-.28v0C86.56,71.6,67.66,54,44.43,54Z"/><path class="a25832ad-14ad-4406-b588-d712b0e9187d" d="M43.11,48.06a23.71,23.71,0,0,1-23.8-23.57,23.8,23.8,0,0,1,47.6,0A23.71,23.71,0,0,1,43.11,48.06Zm0-45.2A21.76,21.76,0,0,0,21.26,24.49a21.85,21.85,0,0,0,43.7,0A21.76,21.76,0,0,0,43.11,2.86Z"/><path class="a25832ad-14ad-4406-b588-d712b0e9187d" d="M43.11,48.06a23.71,23.71,0,0,1-23.8-23.57,23.8,23.8,0,0,1,47.6,0A23.71,23.71,0,0,1,43.11,48.06Zm0-45.2A21.76,21.76,0,0,0,21.26,24.49a21.85,21.85,0,0,0,43.7,0A21.76,21.76,0,0,0,43.11,2.86Z"/><path class="a25832ad-14ad-4406-b588-d712b0e9187d" d="M106.34,59.34a26.85,26.85,0,0,1-1.26-53.68,1.32,1.32,0,0,1,1.37,1.25,1.3,1.3,0,0,1-1.25,1.37,24.25,24.25,0,1,0,17.12,6,1.31,1.31,0,0,1,1.73-2,26.86,26.86,0,0,1-17.71,47Z"/><path class="a25832ad-14ad-4406-b588-d712b0e9187d" d="M105.93,33.38h0A1.31,1.31,0,0,1,104.62,32l.32-11.34a1.32,1.32,0,1,1,2.63.07l-.33,11.35A1.31,1.31,0,0,1,105.93,33.38Z"/><path class="a25832ad-14ad-4406-b588-d712b0e9187d" d="M120.61,33.73h0l-14.68,0a1.31,1.31,0,0,1,0-2.62h0l14.67,0a1.32,1.32,0,0,1,1.31,1.32A1.31,1.31,0,0,1,120.61,33.73Z"/><path class="a25832ad-14ad-4406-b588-d712b0e9187d" d="M101.11,16.2a1.31,1.31,0,0,1-.73-.23,1.3,1.3,0,0,1-.36-1.82l4.71-7L97.65,2.41A1.32,1.32,0,0,1,99.11.22L106.29,5a2.52,2.52,0,0,1,1.07,1.6A2.55,2.55,0,0,1,107,8.49l-4.78,7.13A1.33,1.33,0,0,1,101.11,16.2Z"/><path class="a25832ad-14ad-4406-b588-d712b0e9187d" d="M82.47,100H6.39A6.39,6.39,0,0,1,0,93.61c0-.07,0-.14,0-.22s0-.12,0-.2C0,70.34,19.93,51.75,44.43,51.75S88.85,70.34,88.85,93.19a1.48,1.48,0,0,1,0,.21,1.41,1.41,0,0,1,0,.21A6.39,6.39,0,0,1,82.47,100ZM2.63,93.67a3.76,3.76,0,0,0,3.76,3.7H82.47a3.75,3.75,0,0,0,3.75-3.7c0-.08,0-.15,0-.22v-.1c0-.08,0-.15,0-.22,0-21.38-18.77-38.76-41.79-38.76S2.66,71.75,2.63,93.12a2.32,2.32,0,0,1,0,.24A2.16,2.16,0,0,1,2.63,93.67Z"/><path class="a25832ad-14ad-4406-b588-d712b0e9187d" d="M82.47,99.34H6.39A5.74,5.74,0,0,1,.66,93.61a.75.75,0,0,1,0-.21,1.49,1.49,0,0,1,0-.21c0-22.49,19.63-40.78,43.77-40.78S88.19,70.7,88.19,93.19a2.21,2.21,0,0,0,0,.42A5.73,5.73,0,0,1,82.47,99.34Zm-38-45.62C21,53.72,2,71.42,2,93.19a1.37,1.37,0,0,1,0,.19,1.18,1.18,0,0,1,0,.22A4.42,4.42,0,0,0,6.39,98H82.47a4.42,4.42,0,0,0,4.41-4.42,1.37,1.37,0,0,1,0-.19,1.18,1.18,0,0,1,0-.22h0C86.88,71.42,67.84,53.72,44.43,53.72Z"/><path class="a25832ad-14ad-4406-b588-d712b0e9187d" d="M82.47,99.34H6.39A5.74,5.74,0,0,1,.66,93.61a.75.75,0,0,1,0-.21,1.49,1.49,0,0,1,0-.21c0-22.49,19.63-40.78,43.77-40.78S88.19,70.7,88.19,93.19a2.21,2.21,0,0,0,0,.42A5.73,5.73,0,0,1,82.47,99.34Zm-38-45.62C21,53.72,2,71.42,2,93.19a1.37,1.37,0,0,1,0,.19,1.18,1.18,0,0,1,0,.22A4.42,4.42,0,0,0,6.39,98H82.47a4.42,4.42,0,0,0,4.41-4.42,1.37,1.37,0,0,1,0-.19,1.18,1.18,0,0,1,0-.22h0C86.88,71.42,67.84,53.72,44.43,53.72Z"/><path class="a25832ad-14ad-4406-b588-d712b0e9187d" d="M43.11,48.4A24,24,0,0,1,19,24.49a24.14,24.14,0,0,1,48.27,0A24.06,24.06,0,0,1,43.11,48.4Zm0-45.2A21.43,21.43,0,0,0,21.6,24.49a21.51,21.51,0,0,0,43,0A21.43,21.43,0,0,0,43.11,3.2Z"/><path class="a25832ad-14ad-4406-b588-d712b0e9187d" d="M106.34,59A26.51,26.51,0,0,1,105.1,6a.93.93,0,0,1,1,.92,1,1,0,0,1-.92,1A24.57,24.57,0,1,0,122.55,14a1,1,0,1,1,1.28-1.46A26.52,26.52,0,0,1,106.34,59Z"/><path class="a25832ad-14ad-4406-b588-d712b0e9187d" d="M106.34,59A26.51,26.51,0,0,1,105.1,6a.93.93,0,0,1,1,.92,1,1,0,0,1-.92,1A24.57,24.57,0,1,0,122.55,14a1,1,0,1,1,1.28-1.46A26.52,26.52,0,0,1,106.34,59Z"/><path class="a25832ad-14ad-4406-b588-d712b0e9187d" d="M105.93,33h0a1,1,0,0,1-1-1l.33-11.35a1,1,0,0,1,1-.94,1,1,0,0,1,1,1L106.9,32.1A1,1,0,0,1,105.93,33Z"/><path class="a25832ad-14ad-4406-b588-d712b0e9187d" d="M105.93,33h0a1,1,0,0,1-1-1l.33-11.35a1,1,0,0,1,1-.94,1,1,0,0,1,1,1L106.9,32.1A1,1,0,0,1,105.93,33Z"/><path class="a25832ad-14ad-4406-b588-d712b0e9187d" d="M120.61,33.39h0l-14.68,0a1,1,0,1,1,0-1.94h0l14.67,0a1,1,0,0,1,0,1.95Z"/><path class="a25832ad-14ad-4406-b588-d712b0e9187d" d="M120.61,33.39h0l-14.68,0a1,1,0,1,1,0-1.94h0l14.67,0a1,1,0,0,1,0,1.95Z"/><path class="a25832ad-14ad-4406-b588-d712b0e9187d" d="M101.11,15.86a1,1,0,0,1-.54-.17,1,1,0,0,1-.27-1.35l4.78-7.13a.2.2,0,0,0,0-.17.19.19,0,0,0-.1-.14L97.84,2.12A1,1,0,1,1,98.92.5l7.18,4.79A2.23,2.23,0,0,1,107,6.67a2.27,2.27,0,0,1-.33,1.63l-4.78,7.13A1,1,0,0,1,101.11,15.86Z"/><path class="a25832ad-14ad-4406-b588-d712b0e9187d" d="M101.11,15.86a1,1,0,0,1-.54-.17,1,1,0,0,1-.27-1.35l4.78-7.13a.2.2,0,0,0,0-.17.19.19,0,0,0-.1-.14L97.84,2.12A1,1,0,1,1,98.92.5l7.18,4.79A2.23,2.23,0,0,1,107,6.67a2.27,2.27,0,0,1-.33,1.63l-4.78,7.13A1,1,0,0,1,101.11,15.86Z"/><path class="a25832ad-14ad-4406-b588-d712b0e9187d" d="M82.47,99.66H6.39a6.05,6.05,0,0,1-6-6,1.49,1.49,0,0,1,0-.21,1.65,1.65,0,0,1,0-.21c0-22.67,19.78-41.1,44.09-41.1s44.08,18.43,44.08,41.1a1.48,1.48,0,0,1,0,.21,1.62,1.62,0,0,1,0,.21A6,6,0,0,1,82.47,99.66ZM44.43,54C21.19,54,2.29,71.6,2.29,93.19a.74.74,0,0,1,0,.18,1.8,1.8,0,0,1,0,.28,4.1,4.1,0,0,0,4.1,4.06H82.47a4.1,4.1,0,0,0,4.09-4.1s0-.1,0-.17,0-.22,0-.28v0C86.56,71.6,67.66,54,44.43,54Z"/><path class="a25832ad-14ad-4406-b588-d712b0e9187d" d="M82.47,99.66H6.39a6.05,6.05,0,0,1-6-6,1.49,1.49,0,0,1,0-.21,1.65,1.65,0,0,1,0-.21c0-22.67,19.78-41.1,44.09-41.1s44.08,18.43,44.08,41.1a1.48,1.48,0,0,1,0,.21,1.62,1.62,0,0,1,0,.21A6,6,0,0,1,82.47,99.66ZM44.43,54C21.19,54,2.29,71.6,2.29,93.19a.74.74,0,0,1,0,.18,1.8,1.8,0,0,1,0,.28,4.1,4.1,0,0,0,4.1,4.06H82.47a4.1,4.1,0,0,0,4.09-4.1s0-.1,0-.17,0-.22,0-.28v0C86.56,71.6,67.66,54,44.43,54Z"/><path class="a25832ad-14ad-4406-b588-d712b0e9187d" d="M82.47,99.66H6.39a6.05,6.05,0,0,1-6-6,1.49,1.49,0,0,1,0-.21,1.65,1.65,0,0,1,0-.21c0-22.67,19.78-41.1,44.09-41.1s44.08,18.43,44.08,41.1a1.48,1.48,0,0,1,0,.21,1.62,1.62,0,0,1,0,.21A6,6,0,0,1,82.47,99.66ZM44.43,54C21.19,54,2.29,71.6,2.29,93.19a.74.74,0,0,1,0,.18,1.8,1.8,0,0,1,0,.28,4.1,4.1,0,0,0,4.1,4.06H82.47a4.1,4.1,0,0,0,4.09-4.1s0-.1,0-.17,0-.22,0-.28v0C86.56,71.6,67.66,54,44.43,54Z"/><path class="a25832ad-14ad-4406-b588-d712b0e9187d" d="M82.47,99.66H6.39a6.05,6.05,0,0,1-6-6,1.49,1.49,0,0,1,0-.21,1.65,1.65,0,0,1,0-.21c0-22.67,19.78-41.1,44.09-41.1s44.08,18.43,44.08,41.1a1.48,1.48,0,0,1,0,.21,1.62,1.62,0,0,1,0,.21A6,6,0,0,1,82.47,99.66ZM44.43,54C21.19,54,2.29,71.6,2.29,93.19a.74.74,0,0,1,0,.18,1.8,1.8,0,0,1,0,.28,4.1,4.1,0,0,0,4.1,4.06H82.47a4.1,4.1,0,0,0,4.09-4.1s0-.1,0-.17,0-.22,0-.28v0C86.56,71.6,67.66,54,44.43,54Z"/><path class="a25832ad-14ad-4406-b588-d712b0e9187d" d="M82.47,99.66H6.39a6.05,6.05,0,0,1-6-6,1.49,1.49,0,0,1,0-.21,1.65,1.65,0,0,1,0-.21c0-22.67,19.78-41.1,44.09-41.1s44.08,18.43,44.08,41.1a1.48,1.48,0,0,1,0,.21,1.62,1.62,0,0,1,0,.21A6,6,0,0,1,82.47,99.66ZM44.43,54C21.19,54,2.29,71.6,2.29,93.19a.74.74,0,0,1,0,.18,1.8,1.8,0,0,1,0,.28,4.1,4.1,0,0,0,4.1,4.06H82.47a4.1,4.1,0,0,0,4.09-4.1s0-.1,0-.17,0-.22,0-.28v0C86.56,71.6,67.66,54,44.43,54Z"/><path class="a25832ad-14ad-4406-b588-d712b0e9187d" d="M82.47,99.66H6.39a6.05,6.05,0,0,1-6-6,1.49,1.49,0,0,1,0-.21,1.65,1.65,0,0,1,0-.21c0-22.67,19.78-41.1,44.09-41.1s44.08,18.43,44.08,41.1a1.48,1.48,0,0,1,0,.21,1.62,1.62,0,0,1,0,.21A6,6,0,0,1,82.47,99.66ZM44.43,54C21.19,54,2.29,71.6,2.29,93.19a.74.74,0,0,1,0,.18,1.8,1.8,0,0,1,0,.28,4.1,4.1,0,0,0,4.1,4.06H82.47a4.1,4.1,0,0,0,4.09-4.1s0-.1,0-.17,0-.22,0-.28v0C86.56,71.6,67.66,54,44.43,54Z"/><path class="a25832ad-14ad-4406-b588-d712b0e9187d" d="M43.11,48.06a23.71,23.71,0,0,1-23.8-23.57,23.8,23.8,0,0,1,47.6,0A23.71,23.71,0,0,1,43.11,48.06Zm0-45.2A21.76,21.76,0,0,0,21.26,24.49a21.85,21.85,0,0,0,43.7,0A21.76,21.76,0,0,0,43.11,2.86Z"/><path class="a25832ad-14ad-4406-b588-d712b0e9187d" d="M43.11,48.06a23.71,23.71,0,0,1-23.8-23.57,23.8,23.8,0,0,1,47.6,0A23.71,23.71,0,0,1,43.11,48.06Zm0-45.2A21.76,21.76,0,0,0,21.26,24.49a21.85,21.85,0,0,0,43.7,0A21.76,21.76,0,0,0,43.11,2.86Z"/></g></g></svg>